<?xml version="1.0" encoding="UTF-8" standalone="no"?>
<!-- Created with Inkscape (http://www.inkscape.org/) -->

<svg
   version="1.1"
   id="svg204"
   xml:space="preserve"
   width="480"
   height="292"
   viewBox="0 0 480 292"
   sodipodi:docname="pnet.svg"
   inkscape:version="1.1 (c68e22c387, 2021-05-23)"
   xmlns:inkscape="http://www.inkscape.org/namespaces/inkscape"
   xmlns:sodipodi="http://sodipodi.sourceforge.net/DTD/sodipodi-0.dtd"
   xmlns="http://www.w3.org/2000/svg"
   xmlns:svg="http://www.w3.org/2000/svg"><defs
     id="defs208"><clipPath
       clipPathUnits="userSpaceOnUse"
       id="clipPath226"><path
         d="m 29,181 h 320.922 v 2 H 29 Z"
         id="path224" /></clipPath><clipPath
       clipPathUnits="userSpaceOnUse"
       id="clipPath236"><path
         d="m 29,148 h 320.922 v 2 H 29 Z"
         id="path234" /></clipPath><clipPath
       clipPathUnits="userSpaceOnUse"
       id="clipPath246"><path
         d="m 29,115 h 320.922 v 2 H 29 Z"
         id="path244" /></clipPath><clipPath
       clipPathUnits="userSpaceOnUse"
       id="clipPath256"><path
         d="m 29,82 h 320.922 v 2 H 29 Z"
         id="path254" /></clipPath><clipPath
       clipPathUnits="userSpaceOnUse"
       id="clipPath266"><path
         d="m 29,49 h 320.922 v 2 H 29 Z"
         id="path264" /></clipPath><clipPath
       clipPathUnits="userSpaceOnUse"
       id="clipPath276"><path
         d="m 29,16 h 320.922 v 2 H 29 Z"
         id="path274" /></clipPath><clipPath
       clipPathUnits="userSpaceOnUse"
       id="clipPath290"><path
         d="m 182,176 h 162 v 23.199 H 182 Z"
         id="path288" /></clipPath><clipPath
       clipPathUnits="userSpaceOnUse"
       id="clipPath300"><path
         d="M 37,74 H 345 V 199.199 H 37 Z"
         id="path298" /></clipPath></defs><sodipodi:namedview
     id="namedview206"
     pagecolor="#ffffff"
     bordercolor="#666666"
     borderopacity="1.0"
     inkscape:pageshadow="2"
     inkscape:pageopacity="0.0"
     inkscape:pagecheckerboard="0"
     showgrid="false"
     inkscape:zoom="2.3"
     inkscape:cx="239.78261"
     inkscape:cy="138.26087"
     inkscape:window-width="1620"
     inkscape:window-height="1018"
     inkscape:window-x="-6"
     inkscape:window-y="-6"
     inkscape:window-maximized="1"
     inkscape:current-layer="g210" /><g
     id="g210"
     inkscape:groupmode="layer"
     inkscape:label="pnet"
     transform="matrix(1.3333333,0,0,1.3333333,0,7.3e-6)"><g
       id="g212"><path
         d="M 112.715,198.441 V 0.5"
         style="fill:none;stroke:#808080;stroke-width:0.2;stroke-linecap:butt;stroke-linejoin:miter;stroke-miterlimit:3.25;stroke-dasharray:none;stroke-opacity:1"
         id="path214" /><path
         d="M 189.582,198.441 V 0.5"
         style="fill:none;stroke:#808080;stroke-width:0.2;stroke-linecap:butt;stroke-linejoin:miter;stroke-miterlimit:3.25;stroke-dasharray:none;stroke-opacity:1"
         id="path216" /><path
         d="M 266.449,198.441 V 0.5"
         style="fill:none;stroke:#808080;stroke-width:0.2;stroke-linecap:butt;stroke-linejoin:miter;stroke-miterlimit:3.25;stroke-dasharray:none;stroke-opacity:1"
         id="path218" /></g><g
       id="g220"><g
         id="g222"
         clip-path="url(#clipPath226)"><path
           d="M 29.445,181.945 H 349.723"
           style="fill:none;stroke:#808080;stroke-width:0.2;stroke-linecap:butt;stroke-linejoin:miter;stroke-miterlimit:3.25;stroke-dasharray:none;stroke-opacity:1"
           id="path228" /></g></g><g
       id="g230"><g
         id="g232"
         clip-path="url(#clipPath236)"><path
           d="M 29.445,148.957 H 349.723"
           style="fill:none;stroke:#808080;stroke-width:0.2;stroke-linecap:butt;stroke-linejoin:miter;stroke-miterlimit:3.25;stroke-dasharray:none;stroke-opacity:1"
           id="path238" /></g></g><g
       id="g240"><g
         id="g242"
         clip-path="url(#clipPath246)"><path
           d="M 29.445,115.965 H 349.723"
           style="fill:none;stroke:#808080;stroke-width:0.2;stroke-linecap:butt;stroke-linejoin:miter;stroke-miterlimit:3.25;stroke-dasharray:none;stroke-opacity:1"
           id="path248" /></g></g><g
       id="g250"><g
         id="g252"
         clip-path="url(#clipPath256)"><path
           d="M 29.445,82.977 H 349.723"
           style="fill:none;stroke:#808080;stroke-width:0.2;stroke-linecap:butt;stroke-linejoin:miter;stroke-miterlimit:3.25;stroke-dasharray:none;stroke-opacity:1"
           id="path258" /></g></g><g
       id="g260"><g
         id="g262"
         clip-path="url(#clipPath266)"><path
           d="M 29.445,49.984 H 349.723"
           style="fill:none;stroke:#808080;stroke-width:0.2;stroke-linecap:butt;stroke-linejoin:miter;stroke-miterlimit:3.25;stroke-dasharray:none;stroke-opacity:1"
           id="path268" /></g></g><g
       id="g270"><g
         id="g272"
         clip-path="url(#clipPath276)"><path
           d="M 29.445,16.996 H 349.723"
           style="fill:none;stroke:#808080;stroke-width:0.2;stroke-linecap:butt;stroke-linejoin:miter;stroke-miterlimit:3.25;stroke-dasharray:none;stroke-opacity:1"
           id="path278" /></g></g><g
       id="g280"><path
         d="m 38.09,198.441 0.023,-0.597 0.094,-2.379 0.094,-2.262 0.191,-4.207 0.094,-1.965 0.094,-1.879 0.187,-3.535 0.094,-1.664 0.094,-1.601 0.191,-3.036 0.094,-1.441 0.094,-1.391 0.187,-2.656 0.094,-1.265 0.094,-1.231 0.191,-2.352 0.375,-4.339 0.094,-1.016 0.097,-0.992 0.188,-1.918 0.375,-3.578 0.758,-6.324 0.101,-0.786 0.102,-0.769 0.203,-1.5 0.41,-2.84 0.817,-5.141 0.101,-0.597 0.106,-0.59 0.203,-1.156 0.41,-2.215 0.816,-4.102 0.102,-0.484 0.101,-0.477 0.207,-0.945 0.407,-1.82 0.82,-3.422 1.637,-6.11 0.093,-0.332 0.094,-0.328 0.192,-0.648 0.382,-1.274 0.766,-2.433 1.523,-4.508 0.098,-0.266 0.094,-0.265 0.191,-0.528 0.383,-1.035 0.762,-2.004 1.527,-3.765 0.094,-0.219 0.094,-0.223 0.187,-0.437 0.375,-0.86 0.75,-1.683 1.496,-3.196 2.996,-5.828 0.203,-0.375 0.204,-0.367 0.406,-0.73 0.812,-1.43 1.621,-2.746 3.25,-5.082 0.188,-0.281 0.191,-0.282 0.379,-0.558 0.758,-1.094 1.516,-2.121 3.031,-3.996 6.57,-7.719 6.453,-6.555 6.016,-5.375 6.527,-5.14 6.09,-4.246 5.973,-3.707 6.48,-3.559 6.047,-2.934 6.551,-2.796 6.434,-2.391 6,-1.938 6.507,-1.812 0.098,-0.023 0.094,-0.024 0.191,-0.051 0.379,-0.093 0.758,-0.192 1.519,-0.367 3.036,-0.691 0.105,-0.024 0.102,-0.019 0.207,-0.047 0.41,-0.086 0.824,-0.176 1.645,-0.332 3.289,-0.625 0.101,-0.02 0.102,-0.015 0.203,-0.035 0.402,-0.075 0.809,-0.136 1.617,-0.27 3.23,-0.5 0.094,-0.012 0.094,-0.015 0.187,-0.027 0.379,-0.051 0.754,-0.106 1.504,-0.203 0.094,-0.012 0.098,-0.011 0.187,-0.028 0.375,-0.047 0.754,-0.093 1.508,-0.18 0.203,-0.023 0.207,-0.024 0.406,-0.047 0.817,-0.09 1.636,-0.168 0.203,-0.023 0.204,-0.019 0.41,-0.04 0.816,-0.078 1.633,-0.144 0.098,-0.008 0.093,-0.008 0.192,-0.019 0.383,-0.032 0.761,-0.062 1.524,-0.113 0.097,-0.008 0.094,-0.008 0.192,-0.012 0.382,-0.027 0.762,-0.055 1.527,-0.094 0.09,-0.007 0.094,-0.004 0.563,-0.035 0.746,-0.039 0.093,-0.008 0.094,-0.004 0.188,-0.012 0.375,-0.019 0.746,-0.036 0.187,-0.007 0.188,-0.012 0.375,-0.016 0.746,-0.035 1.496,-0.058 0.406,-0.016 0.406,-0.012 0.809,-0.027 0.203,-0.008 0.203,-0.004 1.219,-0.035 0.102,-0.004 h 0.101 l 0.203,-0.004 0.407,-0.012 h 0.097 l 0.102,-0.003 0.609,-0.012 0.102,-0.004 h 0.101 l 0.61,-0.012 0.101,-0.004 h 0.102 l 0.203,-0.004 0.406,-0.004 0.094,-0.003 h 0.094 l 0.187,-0.004 0.379,-0.004 h 0.191 l 0.188,-0.004 0.379,-0.004 h 0.191 l 0.188,-0.004 h 0.472 l 0.094,-0.004 h 0.758 l 0.098,-0.004 h 1.984 l 0.098,0.004 h 0.66 l 0.101,0.004 h 0.516 l 0.203,0.004 h 0.207 l 0.203,0.004 0.41,0.004 h 0.207 l 0.204,0.004 0.41,0.004 0.105,0.003 h 0.102 l 0.203,0.004 0.41,0.004 0.106,0.004 h 0.101 l 0.203,0.004 1.231,0.024 0.105,0.003 h 0.102 l 0.207,0.004 0.41,0.012 0.82,0.02 h 0.098 l 0.101,0.003 0.204,0.004 1.207,0.036 0.203,0.007 0.199,0.004 0.402,0.012 0.809,0.027 0.098,0.004 0.304,0.012 0.403,0.016 0.804,0.027 1.61,0.066 0.187,0.008 0.192,0.008 0.375,0.019 0.75,0.032 1.503,0.074 0.094,0.004 0.094,0.008 0.187,0.007 0.375,0.02 0.754,0.039 1.5,0.086 0.102,0.004 0.101,0.008 0.207,0.011 0.407,0.024 0.812,0.051 1.633,0.101 3.258,0.227 0.094,0.008 0.097,0.004 0.188,0.015 0.383,0.027 0.757,0.059 1.524,0.117 3.043,0.25 5.965,0.539 6.472,0.66 6.039,0.676 6.547,0.789 6.114,0.785 5.992,0.809 6.504,0.918 6.066,0.891 6.574,0.992 6.457,1 6.02,0.953 6.531,1.051 6.094,0.992 5.976,0.98 6.485,1.071 6.051,1.004 0.105,0.015 0.105,0.02 3.165,0.527 0.21,0.031 0.633,0.106 0.848,0.14 0.105,0.02 0.106,0.016 0.633,0.105 0.105,0.02 0.106,0.015 0.211,0.035 0.105,0.02 0.105,0.016 0.106,0.019 0.105,0.016"
         style="fill:none;stroke:#000000;stroke-width:1;stroke-linecap:butt;stroke-linejoin:miter;stroke-miterlimit:3.25;stroke-dasharray:4, 4;stroke-dashoffset:0;stroke-opacity:1"
         id="path282" /></g><g
       id="g284"><g
         id="g286"
         clip-path="url(#clipPath290)"><path
           d="m 182.512,198.441 4.011,-1.968 5.981,-2.629 6.492,-2.535 6.055,-2.098 6.566,-2.008 6.442,-1.719 6.011,-1.406 6.52,-1.324 6.086,-1.063 5.965,-0.894 0.101,-0.016 0.102,-0.011 0.199,-0.028 0.406,-0.058 2.426,-0.317 3.238,-0.394 0.094,-0.012 0.094,-0.008 0.191,-0.023 0.375,-0.043 0.754,-0.086 1.512,-0.16 3.019,-0.309 0.102,-0.008 0.101,-0.011 0.208,-0.02 0.406,-0.035 0.82,-0.078 1.637,-0.145 3.273,-0.269 0.094,-0.008 0.098,-0.008 0.191,-0.012 0.383,-0.031 0.762,-0.055 1.527,-0.109 0.098,-0.008 0.093,-0.004 0.192,-0.015 0.383,-0.024 0.765,-0.051 1.528,-0.097 0.093,-0.004 0.094,-0.008 0.188,-0.012 0.375,-0.019 0.75,-0.047 1.496,-0.082 0.093,-0.004 0.094,-0.008 0.188,-0.008 1.125,-0.058 1.496,-0.074 0.406,-0.016 0.406,-0.02 2.438,-0.105 0.812,-0.031 0.813,-0.028 1.629,-0.058 0.093,-0.004 h 0.094 l 0.192,-0.008 1.136,-0.035 1.516,-0.043 0.094,-0.004 h 0.097 l 0.188,-0.008 0.379,-0.008 0.761,-0.019 1.516,-0.035 h 0.102 l 0.101,-0.004 0.207,-0.004 0.41,-0.008 0.825,-0.016 h 0.101 l 0.102,-0.003 0.207,-0.004 0.41,-0.008 0.82,-0.012 h 0.106 l 0.101,-0.004 h 0.207 l 0.41,-0.008 0.821,-0.011 h 0.207 l 0.207,-0.004 1.23,-0.012 0.102,-0.004 h 0.301 l 0.406,-0.004 0.101,-0.004 h 0.301 l 0.403,-0.004 h 0.203 l 0.203,-0.004 h 0.504 l 0.097,-0.003 h 0.606 l 0.101,-0.004 h 0.911 l 0.199,-0.004 h 3.996 l 0.094,0.004 h 0.937 l 0.098,0.004 h 0.75 l 0.093,0.003 h 0.567 l 0.094,0.004 h 0.281 l 0.379,0.004 0.75,0.004 0.101,0.004 h 0.309 l 0.406,0.004 0.817,0.008 h 0.101 l 0.102,0.004 h 0.207 l 0.406,0.004 0.816,0.011 h 0.102 l 0.102,0.004 h 0.203 l 0.41,0.008 2.449,0.035 h 0.094 l 0.097,0.004 0.188,0.004 0.383,0.004 0.761,0.016 1.524,0.027 h 0.094 l 0.097,0.004 0.192,0.004 0.379,0.008 2.285,0.046 0.187,0.008 0.563,0.012 0.746,0.016 1.492,0.039 2.988,0.082 h 0.102 l 0.101,0.004 0.204,0.003 0.406,0.012 0.808,0.028 1.622,0.046 3.242,0.106 6.051,0.219 1.687,0.062 1.688,0.067 0.21,0.007 0.211,0.012 0.422,0.016 0.848,0.035 0.422,0.015 0.422,0.02 0.632,0.023 0.106,0.008 0.105,0.004"
           style="fill:none;stroke:#000000;stroke-width:2;stroke-linecap:butt;stroke-linejoin:miter;stroke-miterlimit:3.25;stroke-dasharray:4, 4;stroke-dashoffset:0;stroke-opacity:1"
           id="path292" /></g></g><g
       id="g294"><g
         id="g296"
         clip-path="url(#clipPath300)"><path
           d="m 38.391,198.441 0.101,-1.57 0.094,-1.363 0.094,-1.305 0.187,-2.453 0.094,-1.156 0.094,-1.117 0.191,-2.11 0.375,-3.816 0.094,-0.883 0.094,-0.855 0.191,-1.641 0.375,-3.024 0.094,-0.71 0.097,-0.692 0.188,-1.336 0.375,-2.496 0.758,-4.418 0.101,-0.551 0.102,-0.539 0.203,-1.047 0.41,-1.988 0.817,-3.598 0.101,-0.418 0.106,-0.414 0.203,-0.808 0.41,-1.555 0.816,-2.875 0.102,-0.34 0.101,-0.336 0.207,-0.66 0.407,-1.281 0.82,-2.398 1.637,-4.29 0.187,-0.46 0.192,-0.458 0.382,-0.89 0.766,-1.707 1.523,-3.153 0.098,-0.187 0.094,-0.188 0.191,-0.367 0.383,-0.722 0.762,-1.399 1.527,-2.629 0.375,-0.609 0.375,-0.602 0.75,-1.168 1.496,-2.214 0.375,-0.532 0.375,-0.519 0.746,-1.02 1.5,-1.949 0.102,-0.129 0.101,-0.125 0.204,-0.254 0.406,-0.5 0.812,-0.98 1.621,-1.871 3.25,-3.442 0.094,-0.094 0.094,-0.097 0.191,-0.188 0.379,-0.375 0.758,-0.73 1.516,-1.418 3.031,-2.652 0.102,-0.086 0.105,-0.086 0.203,-0.168 0.41,-0.34 0.824,-0.664 1.641,-1.281 3.285,-2.407 6.453,-4.164 6.016,-3.332 6.527,-3.117 6.09,-2.516 5.973,-2.148 6.48,-2.027 6.047,-1.649 6.551,-1.555 6.434,-1.324 6,-1.082 6.507,-1.023 6.075,-0.84 6.582,-0.797 6.464,-0.687 6.028,-0.567 6.535,-0.547 6.105,-0.457 5.981,-0.398 6.492,-0.391 6.055,-0.328 6.566,-0.32 6.442,-0.285 6.011,-0.235 6.52,-0.226 6.086,-0.184 0.094,-0.004 0.089,-0.004 0.188,-0.004 0.375,-0.011 0.746,-0.02 1.488,-0.039 2.985,-0.074 0.101,-0.004 h 0.102 l 0.199,-0.004 0.406,-0.012 0.809,-0.019 1.617,-0.035 h 0.102 l 0.101,-0.004 0.203,-0.004 0.403,-0.008 0.812,-0.016 1.617,-0.031 0.094,-0.004 h 0.094 l 0.191,-0.004 0.375,-0.008 0.754,-0.011 1.512,-0.028 h 0.094 l 0.093,-0.003 0.192,-0.004 0.375,-0.004 0.754,-0.012 1.511,-0.023 h 0.203 l 0.208,-0.004 0.406,-0.008 0.82,-0.008 0.102,-0.004 h 0.101 l 0.207,-0.004 0.406,-0.004 0.821,-0.008 0.101,-0.003 h 0.309 l 0.406,-0.004 0.821,-0.012 h 0.203 l 0.207,-0.004 0.406,-0.004 0.82,-0.004 0.094,-0.004 h 0.289 l 0.383,-0.004 0.762,-0.003 h 0.097 l 0.094,-0.004 h 0.574 l 0.762,-0.008 h 0.766 l 0.097,-0.004 h 0.86 l 0.191,-0.004 h 1.145 l 0.093,-0.004 h 4.215 l 0.188,0.004 h 1.121 l 0.375,0.004 h 0.406 l 0.406,0.004 h 0.406 l 0.407,0.004 h 0.203 l 0.203,0.004 h 0.406 l 0.813,0.007 h 0.406 l 1.219,0.012 h 0.105 l 0.102,0.004 h 0.203 l 0.406,0.004 0.813,0.012 h 0.187 l 0.192,0.004 1.136,0.011 0.094,0.004 h 0.094 l 0.191,0.004 0.379,0.004 0.758,0.012 h 0.094 l 0.097,0.004 h 0.188 l 0.379,0.007 0.761,0.012 1.516,0.028 0.102,0.003 h 0.101 l 0.207,0.004 0.41,0.008 0.825,0.016 1.64,0.039 h 0.106 l 0.101,0.004 0.207,0.004 0.41,0.011 0.821,0.02 1.644,0.043 0.203,0.008 0.2,0.004 0.406,0.011 0.805,0.024 1.613,0.051 0.203,0.007 0.203,0.004 0.402,0.016 0.809,0.027 1.613,0.059 0.094,0.004 h 0.094 l 0.562,0.023 0.754,0.027 1.504,0.063 3.012,0.133 0.203,0.008 0.207,0.011 0.406,0.02 0.817,0.039 1.632,0.082 3.266,0.176 0.094,0.008 0.097,0.003 0.188,0.012 0.383,0.024 0.761,0.043 1.524,0.093 3.047,0.2 5.976,0.437 6.485,0.555 6.051,0.59 0.421,0.046 0.422,0.043 0.844,0.09 1.688,0.184 0.421,0.047 0.422,0.051 0.848,0.093 0.211,0.024 0.211,0.027 0.633,0.07 0.211,0.028 0.421,0.047"
           style="fill:none;stroke:#000000;stroke-width:2;stroke-linecap:square;stroke-linejoin:miter;stroke-miterlimit:3.25;stroke-dasharray:none;stroke-opacity:1"
           id="path302" /></g></g><g
       id="g304"><path
         d="M 349.723,198.441 H 29.445"
         style="fill:none;stroke:#666666;stroke-width:0.5;stroke-linecap:square;stroke-linejoin:miter;stroke-miterlimit:3.25;stroke-dasharray:none;stroke-opacity:1"
         id="path306" /><path
         d="M 29.445,198.441 V 0.5"
         style="fill:none;stroke:#666666;stroke-width:0.5;stroke-linecap:square;stroke-linejoin:miter;stroke-miterlimit:3.25;stroke-dasharray:none;stroke-opacity:1"
         id="path308" /><path
         d="M 29.445,0.5 H 349.723"
         style="fill:none;stroke:#666666;stroke-width:0.5;stroke-linecap:square;stroke-linejoin:miter;stroke-miterlimit:3.25;stroke-dasharray:none;stroke-opacity:1"
         id="path310" /><path
         d="M 349.723,0.5 V 198.441"
         style="fill:none;stroke:#666666;stroke-width:0.5;stroke-linecap:square;stroke-linejoin:miter;stroke-miterlimit:3.25;stroke-dasharray:none;stroke-opacity:1"
         id="path312" /><path
         d="m 35.852,198.441 v -3.789"
         style="fill:none;stroke:#666666;stroke-width:0.5;stroke-linecap:butt;stroke-linejoin:miter;stroke-miterlimit:3.25;stroke-dasharray:none;stroke-opacity:1"
         id="path314" /><text
         transform="translate(31.678726,215.02094)"
         style="font-variant:normal;font-weight:normal;font-size:15px;font-family:Arial;-inkscape-font-specification:ArialMT;writing-mode:lr-tb;fill:#666666;fill-opacity:1;fill-rule:nonzero;stroke:none"
         id="text318"><tspan
           x="0"
           y="0"
           id="tspan316">0</tspan></text><path
         d="m 51.223,198.441 v -2.273"
         style="fill:none;stroke:#666666;stroke-width:0.5;stroke-linecap:butt;stroke-linejoin:miter;stroke-miterlimit:3.25;stroke-dasharray:none;stroke-opacity:1"
         id="path320" /><path
         d="m 66.598,198.441 v -2.273"
         style="fill:none;stroke:#666666;stroke-width:0.5;stroke-linecap:butt;stroke-linejoin:miter;stroke-miterlimit:3.25;stroke-dasharray:none;stroke-opacity:1"
         id="path322" /><path
         d="m 81.969,198.441 v -2.273"
         style="fill:none;stroke:#666666;stroke-width:0.5;stroke-linecap:butt;stroke-linejoin:miter;stroke-miterlimit:3.25;stroke-dasharray:none;stroke-opacity:1"
         id="path324" /><path
         d="m 97.344,198.441 v -2.273"
         style="fill:none;stroke:#666666;stroke-width:0.5;stroke-linecap:butt;stroke-linejoin:miter;stroke-miterlimit:3.25;stroke-dasharray:none;stroke-opacity:1"
         id="path326" /><path
         d="m 112.715,198.441 v -3.789"
         style="fill:none;stroke:#666666;stroke-width:0.5;stroke-linecap:butt;stroke-linejoin:miter;stroke-miterlimit:3.25;stroke-dasharray:none;stroke-opacity:1"
         id="path328" /><text
         transform="translate(100.20283,215.02094)"
         style="font-variant:normal;font-weight:normal;font-size:15px;font-family:Arial;-inkscape-font-specification:ArialMT;writing-mode:lr-tb;fill:#666666;fill-opacity:1;fill-rule:nonzero;stroke:none"
         id="text332"><tspan
           x="0 8.3400002 16.68"
           y="0"
           sodipodi:role="line"
           id="tspan330">500</tspan></text><path
         d="m 128.09,198.441 v -2.273"
         style="fill:none;stroke:#666666;stroke-width:0.5;stroke-linecap:butt;stroke-linejoin:miter;stroke-miterlimit:3.25;stroke-dasharray:none;stroke-opacity:1"
         id="path334" /><path
         d="m 143.461,198.441 v -2.273"
         style="fill:none;stroke:#666666;stroke-width:0.5;stroke-linecap:butt;stroke-linejoin:miter;stroke-miterlimit:3.25;stroke-dasharray:none;stroke-opacity:1"
         id="path336" /><path
         d="m 158.836,198.441 v -2.273"
         style="fill:none;stroke:#666666;stroke-width:0.5;stroke-linecap:butt;stroke-linejoin:miter;stroke-miterlimit:3.25;stroke-dasharray:none;stroke-opacity:1"
         id="path338" /><path
         d="m 174.211,198.441 v -2.273"
         style="fill:none;stroke:#666666;stroke-width:0.5;stroke-linecap:butt;stroke-linejoin:miter;stroke-miterlimit:3.25;stroke-dasharray:none;stroke-opacity:1"
         id="path340" /><path
         d="m 189.582,198.441 v -3.789"
         style="fill:none;stroke:#666666;stroke-width:0.5;stroke-linecap:butt;stroke-linejoin:miter;stroke-miterlimit:3.25;stroke-dasharray:none;stroke-opacity:1"
         id="path342" /><text
         transform="translate(172.89808,215.02094)"
         style="font-variant:normal;font-weight:normal;font-size:15px;font-family:Arial;-inkscape-font-specification:ArialMT;writing-mode:lr-tb;fill:#666666;fill-opacity:1;fill-rule:nonzero;stroke:none"
         id="text346"><tspan
           x="0 8.3400002 16.68 25.02"
           y="0"
           sodipodi:role="line"
           id="tspan344">1000</tspan></text><path
         d="m 204.957,198.441 v -2.273"
         style="fill:none;stroke:#666666;stroke-width:0.5;stroke-linecap:butt;stroke-linejoin:miter;stroke-miterlimit:3.25;stroke-dasharray:none;stroke-opacity:1"
         id="path348" /><path
         d="m 220.328,198.441 v -2.273"
         style="fill:none;stroke:#666666;stroke-width:0.5;stroke-linecap:butt;stroke-linejoin:miter;stroke-miterlimit:3.25;stroke-dasharray:none;stroke-opacity:1"
         id="path350" /><path
         d="m 235.703,198.441 v -2.273"
         style="fill:none;stroke:#666666;stroke-width:0.5;stroke-linecap:butt;stroke-linejoin:miter;stroke-miterlimit:3.25;stroke-dasharray:none;stroke-opacity:1"
         id="path352" /><path
         d="m 251.074,198.441 v -2.273"
         style="fill:none;stroke:#666666;stroke-width:0.5;stroke-linecap:butt;stroke-linejoin:miter;stroke-miterlimit:3.25;stroke-dasharray:none;stroke-opacity:1"
         id="path354" /><path
         d="m 266.449,198.441 v -3.789"
         style="fill:none;stroke:#666666;stroke-width:0.5;stroke-linecap:butt;stroke-linejoin:miter;stroke-miterlimit:3.25;stroke-dasharray:none;stroke-opacity:1"
         id="path356" /><text
         transform="translate(249.76447,215.02094)"
         style="font-variant:normal;font-weight:normal;font-size:15px;font-family:Arial;-inkscape-font-specification:ArialMT;writing-mode:lr-tb;fill:#666666;fill-opacity:1;fill-rule:nonzero;stroke:none"
         id="text360"><tspan
           x="0 8.3400002 16.68 25.02"
           y="0"
           sodipodi:role="line"
           id="tspan358">1500</tspan></text><path
         d="m 281.824,198.441 v -2.273"
         style="fill:none;stroke:#666666;stroke-width:0.5;stroke-linecap:butt;stroke-linejoin:miter;stroke-miterlimit:3.25;stroke-dasharray:none;stroke-opacity:1"
         id="path362" /><path
         d="m 297.195,198.441 v -2.273"
         style="fill:none;stroke:#666666;stroke-width:0.5;stroke-linecap:butt;stroke-linejoin:miter;stroke-miterlimit:3.25;stroke-dasharray:none;stroke-opacity:1"
         id="path364" /><path
         d="m 312.57,198.441 v -2.273"
         style="fill:none;stroke:#666666;stroke-width:0.5;stroke-linecap:butt;stroke-linejoin:miter;stroke-miterlimit:3.25;stroke-dasharray:none;stroke-opacity:1"
         id="path366" /><path
         d="m 327.941,198.441 v -2.273"
         style="fill:none;stroke:#666666;stroke-width:0.5;stroke-linecap:butt;stroke-linejoin:miter;stroke-miterlimit:3.25;stroke-dasharray:none;stroke-opacity:1"
         id="path368" /><path
         d="m 343.316,198.441 v -3.789"
         style="fill:none;stroke:#666666;stroke-width:0.5;stroke-linecap:butt;stroke-linejoin:miter;stroke-miterlimit:3.25;stroke-dasharray:none;stroke-opacity:1"
         id="path370" /><text
         transform="translate(326.63086,215.02094)"
         style="font-variant:normal;font-weight:normal;font-size:15px;font-family:Arial;-inkscape-font-specification:ArialMT;writing-mode:lr-tb;fill:#666666;fill-opacity:1;fill-rule:nonzero;stroke:none"
         id="text374"><tspan
           x="0 8.3400002 16.68 25.02"
           y="0"
           sodipodi:role="line"
           id="tspan372">2000</tspan></text><path
         d="m 29.445,195.145 h 2.274"
         style="fill:none;stroke:#666666;stroke-width:0.5;stroke-linecap:butt;stroke-linejoin:miter;stroke-miterlimit:3.25;stroke-dasharray:none;stroke-opacity:1"
         id="path376" /><path
         d="m 29.445,188.543 h 2.274"
         style="fill:none;stroke:#666666;stroke-width:0.5;stroke-linecap:butt;stroke-linejoin:miter;stroke-miterlimit:3.25;stroke-dasharray:none;stroke-opacity:1"
         id="path378" /><path
         d="m 29.445,181.945 h 3.789"
         style="fill:none;stroke:#666666;stroke-width:0.5;stroke-linecap:butt;stroke-linejoin:miter;stroke-miterlimit:3.25;stroke-dasharray:none;stroke-opacity:1"
         id="path380" /><text
         transform="translate(0,187.14688)"
         style="font-variant:normal;font-weight:normal;font-size:15px;font-family:MathematicaSans;-inkscape-font-specification:MathematicaSans;writing-mode:lr-tb;fill:#666666;fill-opacity:1;fill-rule:nonzero;stroke:none"
         id="text384"><tspan
           x="0"
           y="0"
           id="tspan382">-</tspan></text><text
         transform="translate(9.75,187.14688)"
         style="font-variant:normal;font-weight:normal;font-size:15px;font-family:Arial;-inkscape-font-specification:ArialMT;writing-mode:lr-tb;fill:#666666;fill-opacity:1;fill-rule:nonzero;stroke:none"
         id="text388"><tspan
           x="0 8.3400002"
           y="0"
           sodipodi:role="line"
           id="tspan386">30</tspan></text><path
         d="m 29.445,175.348 h 2.274"
         style="fill:none;stroke:#666666;stroke-width:0.5;stroke-linecap:butt;stroke-linejoin:miter;stroke-miterlimit:3.25;stroke-dasharray:none;stroke-opacity:1"
         id="path390" /><path
         d="m 29.445,168.75 h 2.274"
         style="fill:none;stroke:#666666;stroke-width:0.5;stroke-linecap:butt;stroke-linejoin:miter;stroke-miterlimit:3.25;stroke-dasharray:none;stroke-opacity:1"
         id="path392" /><path
         d="m 29.445,162.152 h 2.274"
         style="fill:none;stroke:#666666;stroke-width:0.5;stroke-linecap:butt;stroke-linejoin:miter;stroke-miterlimit:3.25;stroke-dasharray:none;stroke-opacity:1"
         id="path394" /><path
         d="m 29.445,155.555 h 2.274"
         style="fill:none;stroke:#666666;stroke-width:0.5;stroke-linecap:butt;stroke-linejoin:miter;stroke-miterlimit:3.25;stroke-dasharray:none;stroke-opacity:1"
         id="path396" /><path
         d="m 29.445,148.957 h 3.789"
         style="fill:none;stroke:#666666;stroke-width:0.5;stroke-linecap:butt;stroke-linejoin:miter;stroke-miterlimit:3.25;stroke-dasharray:none;stroke-opacity:1"
         id="path398" /><text
         transform="translate(0,154.15658)"
         style="font-variant:normal;font-weight:normal;font-size:15px;font-family:MathematicaSans;-inkscape-font-specification:MathematicaSans;writing-mode:lr-tb;fill:#666666;fill-opacity:1;fill-rule:nonzero;stroke:none"
         id="text402"><tspan
           x="0"
           y="0"
           id="tspan400">-</tspan></text><text
         transform="translate(9.75,154.15658)"
         style="font-variant:normal;font-weight:normal;font-size:15px;font-family:Arial;-inkscape-font-specification:ArialMT;writing-mode:lr-tb;fill:#666666;fill-opacity:1;fill-rule:nonzero;stroke:none"
         id="text406"><tspan
           x="0 8.3400002"
           y="0"
           sodipodi:role="line"
           id="tspan404">20</tspan></text><path
         d="m 29.445,142.359 h 2.274"
         style="fill:none;stroke:#666666;stroke-width:0.5;stroke-linecap:butt;stroke-linejoin:miter;stroke-miterlimit:3.25;stroke-dasharray:none;stroke-opacity:1"
         id="path408" /><path
         d="m 29.445,135.762 h 2.274"
         style="fill:none;stroke:#666666;stroke-width:0.5;stroke-linecap:butt;stroke-linejoin:miter;stroke-miterlimit:3.25;stroke-dasharray:none;stroke-opacity:1"
         id="path410" /><path
         d="m 29.445,129.164 h 2.274"
         style="fill:none;stroke:#666666;stroke-width:0.5;stroke-linecap:butt;stroke-linejoin:miter;stroke-miterlimit:3.25;stroke-dasharray:none;stroke-opacity:1"
         id="path412" /><path
         d="m 29.445,122.563 h 2.274"
         style="fill:none;stroke:#666666;stroke-width:0.5;stroke-linecap:butt;stroke-linejoin:miter;stroke-miterlimit:3.25;stroke-dasharray:none;stroke-opacity:1"
         id="path414" /><path
         d="m 29.445,115.965 h 3.789"
         style="fill:none;stroke:#666666;stroke-width:0.5;stroke-linecap:butt;stroke-linejoin:miter;stroke-miterlimit:3.25;stroke-dasharray:none;stroke-opacity:1"
         id="path416" /><text
         transform="translate(0,121.16627)"
         style="font-variant:normal;font-weight:normal;font-size:15px;font-family:MathematicaSans;-inkscape-font-specification:MathematicaSans;writing-mode:lr-tb;fill:#666666;fill-opacity:1;fill-rule:nonzero;stroke:none"
         id="text420"><tspan
           x="0"
           y="0"
           id="tspan418">-</tspan></text><text
         transform="translate(9.75,121.16627)"
         style="font-variant:normal;font-weight:normal;font-size:15px;font-family:Arial;-inkscape-font-specification:ArialMT;writing-mode:lr-tb;fill:#666666;fill-opacity:1;fill-rule:nonzero;stroke:none"
         id="text424"><tspan
           x="0 8.3400002"
           y="0"
           sodipodi:role="line"
           id="tspan422">10</tspan></text><path
         d="m 29.445,109.367 h 2.274"
         style="fill:none;stroke:#666666;stroke-width:0.5;stroke-linecap:butt;stroke-linejoin:miter;stroke-miterlimit:3.25;stroke-dasharray:none;stroke-opacity:1"
         id="path426" /><path
         d="m 29.445,102.77 h 2.274"
         style="fill:none;stroke:#666666;stroke-width:0.5;stroke-linecap:butt;stroke-linejoin:miter;stroke-miterlimit:3.25;stroke-dasharray:none;stroke-opacity:1"
         id="path428" /><path
         d="m 29.445,96.172 h 2.274"
         style="fill:none;stroke:#666666;stroke-width:0.5;stroke-linecap:butt;stroke-linejoin:miter;stroke-miterlimit:3.25;stroke-dasharray:none;stroke-opacity:1"
         id="path430" /><path
         d="m 29.445,89.574 h 2.274"
         style="fill:none;stroke:#666666;stroke-width:0.5;stroke-linecap:butt;stroke-linejoin:miter;stroke-miterlimit:3.25;stroke-dasharray:none;stroke-opacity:1"
         id="path432" /><path
         d="m 29.445,82.977 h 3.789"
         style="fill:none;stroke:#666666;stroke-width:0.5;stroke-linecap:butt;stroke-linejoin:miter;stroke-miterlimit:3.25;stroke-dasharray:none;stroke-opacity:1"
         id="path434" /><text
         transform="translate(18.102051,88.175962)"
         style="font-variant:normal;font-weight:normal;font-size:15px;font-family:Arial;-inkscape-font-specification:ArialMT;writing-mode:lr-tb;fill:#666666;fill-opacity:1;fill-rule:nonzero;stroke:none"
         id="text438"><tspan
           x="0"
           y="0"
           id="tspan436">0</tspan></text><path
         d="m 29.445,76.379 h 2.274"
         style="fill:none;stroke:#666666;stroke-width:0.5;stroke-linecap:butt;stroke-linejoin:miter;stroke-miterlimit:3.25;stroke-dasharray:none;stroke-opacity:1"
         id="path440" /><path
         d="m 29.445,69.781 h 2.274"
         style="fill:none;stroke:#666666;stroke-width:0.5;stroke-linecap:butt;stroke-linejoin:miter;stroke-miterlimit:3.25;stroke-dasharray:none;stroke-opacity:1"
         id="path442" /><path
         d="m 29.445,63.18 h 2.274"
         style="fill:none;stroke:#666666;stroke-width:0.5;stroke-linecap:butt;stroke-linejoin:miter;stroke-miterlimit:3.25;stroke-dasharray:none;stroke-opacity:1"
         id="path444" /><path
         d="m 29.445,56.582 h 2.274"
         style="fill:none;stroke:#666666;stroke-width:0.5;stroke-linecap:butt;stroke-linejoin:miter;stroke-miterlimit:3.25;stroke-dasharray:none;stroke-opacity:1"
         id="path446" /><path
         d="m 29.445,49.984 h 3.789"
         style="fill:none;stroke:#666666;stroke-width:0.5;stroke-linecap:butt;stroke-linejoin:miter;stroke-miterlimit:3.25;stroke-dasharray:none;stroke-opacity:1"
         id="path448" /><text
         transform="translate(9.759766,55.185656)"
         style="font-variant:normal;font-weight:normal;font-size:15px;font-family:Arial;-inkscape-font-specification:ArialMT;writing-mode:lr-tb;fill:#666666;fill-opacity:1;fill-rule:nonzero;stroke:none"
         id="text452"><tspan
           x="0 8.3400002"
           y="0"
           sodipodi:role="line"
           id="tspan450">10</tspan></text><path
         d="m 29.445,43.387 h 2.274"
         style="fill:none;stroke:#666666;stroke-width:0.5;stroke-linecap:butt;stroke-linejoin:miter;stroke-miterlimit:3.25;stroke-dasharray:none;stroke-opacity:1"
         id="path454" /><path
         d="m 29.445,36.789 h 2.274"
         style="fill:none;stroke:#666666;stroke-width:0.5;stroke-linecap:butt;stroke-linejoin:miter;stroke-miterlimit:3.25;stroke-dasharray:none;stroke-opacity:1"
         id="path456" /><path
         d="m 29.445,30.191 h 2.274"
         style="fill:none;stroke:#666666;stroke-width:0.5;stroke-linecap:butt;stroke-linejoin:miter;stroke-miterlimit:3.25;stroke-dasharray:none;stroke-opacity:1"
         id="path458" /><path
         d="m 29.445,23.594 h 2.274"
         style="fill:none;stroke:#666666;stroke-width:0.5;stroke-linecap:butt;stroke-linejoin:miter;stroke-miterlimit:3.25;stroke-dasharray:none;stroke-opacity:1"
         id="path460" /><path
         d="m 29.445,16.996 h 3.789"
         style="fill:none;stroke:#666666;stroke-width:0.5;stroke-linecap:butt;stroke-linejoin:miter;stroke-miterlimit:3.25;stroke-dasharray:none;stroke-opacity:1"
         id="path462" /><text
         transform="translate(9.759766,22.195349)"
         style="font-variant:normal;font-weight:normal;font-size:15px;font-family:Arial;-inkscape-font-specification:ArialMT;writing-mode:lr-tb;fill:#666666;fill-opacity:1;fill-rule:nonzero;stroke:none"
         id="text466"><tspan
           x="0 8.3400002"
           y="0"
           sodipodi:role="line"
           id="tspan464">20</tspan></text><path
         d="m 29.445,10.398 h 2.274"
         style="fill:none;stroke:#666666;stroke-width:0.5;stroke-linecap:butt;stroke-linejoin:miter;stroke-miterlimit:3.25;stroke-dasharray:none;stroke-opacity:1"
         id="path468" /><path
         d="m 29.445,3.801 h 2.274"
         style="fill:none;stroke:#666666;stroke-width:0.5;stroke-linecap:butt;stroke-linejoin:miter;stroke-miterlimit:3.25;stroke-dasharray:none;stroke-opacity:1"
         id="path470" /><path
         d="M 35.852,0.5 V 4.293"
         style="fill:none;stroke:#666666;stroke-width:0.5;stroke-linecap:butt;stroke-linejoin:miter;stroke-miterlimit:3.25;stroke-dasharray:none;stroke-opacity:1"
         id="path472" /><path
         d="M 51.223,0.5 V 2.773"
         style="fill:none;stroke:#666666;stroke-width:0.5;stroke-linecap:butt;stroke-linejoin:miter;stroke-miterlimit:3.25;stroke-dasharray:none;stroke-opacity:1"
         id="path474" /><path
         d="M 66.598,0.5 V 2.773"
         style="fill:none;stroke:#666666;stroke-width:0.5;stroke-linecap:butt;stroke-linejoin:miter;stroke-miterlimit:3.25;stroke-dasharray:none;stroke-opacity:1"
         id="path476" /><path
         d="M 81.969,0.5 V 2.773"
         style="fill:none;stroke:#666666;stroke-width:0.5;stroke-linecap:butt;stroke-linejoin:miter;stroke-miterlimit:3.25;stroke-dasharray:none;stroke-opacity:1"
         id="path478" /><path
         d="M 97.344,0.5 V 2.773"
         style="fill:none;stroke:#666666;stroke-width:0.5;stroke-linecap:butt;stroke-linejoin:miter;stroke-miterlimit:3.25;stroke-dasharray:none;stroke-opacity:1"
         id="path480" /><path
         d="M 112.715,0.5 V 4.293"
         style="fill:none;stroke:#666666;stroke-width:0.5;stroke-linecap:butt;stroke-linejoin:miter;stroke-miterlimit:3.25;stroke-dasharray:none;stroke-opacity:1"
         id="path482" /><path
         d="M 128.09,0.5 V 2.773"
         style="fill:none;stroke:#666666;stroke-width:0.5;stroke-linecap:butt;stroke-linejoin:miter;stroke-miterlimit:3.25;stroke-dasharray:none;stroke-opacity:1"
         id="path484" /><path
         d="M 143.461,0.5 V 2.773"
         style="fill:none;stroke:#666666;stroke-width:0.5;stroke-linecap:butt;stroke-linejoin:miter;stroke-miterlimit:3.25;stroke-dasharray:none;stroke-opacity:1"
         id="path486" /><path
         d="M 158.836,0.5 V 2.773"
         style="fill:none;stroke:#666666;stroke-width:0.5;stroke-linecap:butt;stroke-linejoin:miter;stroke-miterlimit:3.25;stroke-dasharray:none;stroke-opacity:1"
         id="path488" /><path
         d="M 174.211,0.5 V 2.773"
         style="fill:none;stroke:#666666;stroke-width:0.5;stroke-linecap:butt;stroke-linejoin:miter;stroke-miterlimit:3.25;stroke-dasharray:none;stroke-opacity:1"
         id="path490" /><path
         d="M 189.582,0.5 V 4.293"
         style="fill:none;stroke:#666666;stroke-width:0.5;stroke-linecap:butt;stroke-linejoin:miter;stroke-miterlimit:3.25;stroke-dasharray:none;stroke-opacity:1"
         id="path492" /><path
         d="M 204.957,0.5 V 2.773"
         style="fill:none;stroke:#666666;stroke-width:0.5;stroke-linecap:butt;stroke-linejoin:miter;stroke-miterlimit:3.25;stroke-dasharray:none;stroke-opacity:1"
         id="path494" /><path
         d="M 220.328,0.5 V 2.773"
         style="fill:none;stroke:#666666;stroke-width:0.5;stroke-linecap:butt;stroke-linejoin:miter;stroke-miterlimit:3.25;stroke-dasharray:none;stroke-opacity:1"
         id="path496" /><path
         d="M 235.703,0.5 V 2.773"
         style="fill:none;stroke:#666666;stroke-width:0.5;stroke-linecap:butt;stroke-linejoin:miter;stroke-miterlimit:3.25;stroke-dasharray:none;stroke-opacity:1"
         id="path498" /><path
         d="M 251.074,0.5 V 2.773"
         style="fill:none;stroke:#666666;stroke-width:0.5;stroke-linecap:butt;stroke-linejoin:miter;stroke-miterlimit:3.25;stroke-dasharray:none;stroke-opacity:1"
         id="path500" /><path
         d="M 266.449,0.5 V 4.293"
         style="fill:none;stroke:#666666;stroke-width:0.5;stroke-linecap:butt;stroke-linejoin:miter;stroke-miterlimit:3.25;stroke-dasharray:none;stroke-opacity:1"
         id="path502" /><path
         d="M 281.824,0.5 V 2.773"
         style="fill:none;stroke:#666666;stroke-width:0.5;stroke-linecap:butt;stroke-linejoin:miter;stroke-miterlimit:3.25;stroke-dasharray:none;stroke-opacity:1"
         id="path504" /><path
         d="M 297.195,0.5 V 2.773"
         style="fill:none;stroke:#666666;stroke-width:0.5;stroke-linecap:butt;stroke-linejoin:miter;stroke-miterlimit:3.25;stroke-dasharray:none;stroke-opacity:1"
         id="path506" /><path
         d="M 312.57,0.5 V 2.773"
         style="fill:none;stroke:#666666;stroke-width:0.5;stroke-linecap:butt;stroke-linejoin:miter;stroke-miterlimit:3.25;stroke-dasharray:none;stroke-opacity:1"
         id="path508" /><path
         d="M 327.941,0.5 V 2.773"
         style="fill:none;stroke:#666666;stroke-width:0.5;stroke-linecap:butt;stroke-linejoin:miter;stroke-miterlimit:3.25;stroke-dasharray:none;stroke-opacity:1"
         id="path510" /><path
         d="M 343.316,0.5 V 4.293"
         style="fill:none;stroke:#666666;stroke-width:0.5;stroke-linecap:butt;stroke-linejoin:miter;stroke-miterlimit:3.25;stroke-dasharray:none;stroke-opacity:1"
         id="path512" /><path
         d="m 349.723,195.145 h -2.278"
         style="fill:none;stroke:#666666;stroke-width:0.5;stroke-linecap:butt;stroke-linejoin:miter;stroke-miterlimit:3.25;stroke-dasharray:none;stroke-opacity:1"
         id="path514" /><path
         d="m 349.723,188.543 h -2.278"
         style="fill:none;stroke:#666666;stroke-width:0.5;stroke-linecap:butt;stroke-linejoin:miter;stroke-miterlimit:3.25;stroke-dasharray:none;stroke-opacity:1"
         id="path516" /><path
         d="M 349.723,181.945 H 345.93"
         style="fill:none;stroke:#666666;stroke-width:0.5;stroke-linecap:butt;stroke-linejoin:miter;stroke-miterlimit:3.25;stroke-dasharray:none;stroke-opacity:1"
         id="path518" /><path
         d="m 349.723,175.348 h -2.278"
         style="fill:none;stroke:#666666;stroke-width:0.5;stroke-linecap:butt;stroke-linejoin:miter;stroke-miterlimit:3.25;stroke-dasharray:none;stroke-opacity:1"
         id="path520" /><path
         d="m 349.723,168.75 h -2.278"
         style="fill:none;stroke:#666666;stroke-width:0.5;stroke-linecap:butt;stroke-linejoin:miter;stroke-miterlimit:3.25;stroke-dasharray:none;stroke-opacity:1"
         id="path522" /><path
         d="m 349.723,162.152 h -2.278"
         style="fill:none;stroke:#666666;stroke-width:0.5;stroke-linecap:butt;stroke-linejoin:miter;stroke-miterlimit:3.25;stroke-dasharray:none;stroke-opacity:1"
         id="path524" /><path
         d="m 349.723,155.555 h -2.278"
         style="fill:none;stroke:#666666;stroke-width:0.5;stroke-linecap:butt;stroke-linejoin:miter;stroke-miterlimit:3.25;stroke-dasharray:none;stroke-opacity:1"
         id="path526" /><path
         d="M 349.723,148.957 H 345.93"
         style="fill:none;stroke:#666666;stroke-width:0.5;stroke-linecap:butt;stroke-linejoin:miter;stroke-miterlimit:3.25;stroke-dasharray:none;stroke-opacity:1"
         id="path528" /><path
         d="m 349.723,142.359 h -2.278"
         style="fill:none;stroke:#666666;stroke-width:0.5;stroke-linecap:butt;stroke-linejoin:miter;stroke-miterlimit:3.25;stroke-dasharray:none;stroke-opacity:1"
         id="path530" /><path
         d="m 349.723,135.762 h -2.278"
         style="fill:none;stroke:#666666;stroke-width:0.5;stroke-linecap:butt;stroke-linejoin:miter;stroke-miterlimit:3.25;stroke-dasharray:none;stroke-opacity:1"
         id="path532" /><path
         d="m 349.723,129.164 h -2.278"
         style="fill:none;stroke:#666666;stroke-width:0.5;stroke-linecap:butt;stroke-linejoin:miter;stroke-miterlimit:3.25;stroke-dasharray:none;stroke-opacity:1"
         id="path534" /><path
         d="m 349.723,122.563 h -2.278"
         style="fill:none;stroke:#666666;stroke-width:0.5;stroke-linecap:butt;stroke-linejoin:miter;stroke-miterlimit:3.25;stroke-dasharray:none;stroke-opacity:1"
         id="path536" /><path
         d="M 349.723,115.965 H 345.93"
         style="fill:none;stroke:#666666;stroke-width:0.5;stroke-linecap:butt;stroke-linejoin:miter;stroke-miterlimit:3.25;stroke-dasharray:none;stroke-opacity:1"
         id="path538" /><path
         d="m 349.723,109.367 h -2.278"
         style="fill:none;stroke:#666666;stroke-width:0.5;stroke-linecap:butt;stroke-linejoin:miter;stroke-miterlimit:3.25;stroke-dasharray:none;stroke-opacity:1"
         id="path540" /><path
         d="m 349.723,102.77 h -2.278"
         style="fill:none;stroke:#666666;stroke-width:0.5;stroke-linecap:butt;stroke-linejoin:miter;stroke-miterlimit:3.25;stroke-dasharray:none;stroke-opacity:1"
         id="path542" /><path
         d="m 349.723,96.172 h -2.278"
         style="fill:none;stroke:#666666;stroke-width:0.5;stroke-linecap:butt;stroke-linejoin:miter;stroke-miterlimit:3.25;stroke-dasharray:none;stroke-opacity:1"
         id="path544" /><path
         d="m 349.723,89.574 h -2.278"
         style="fill:none;stroke:#666666;stroke-width:0.5;stroke-linecap:butt;stroke-linejoin:miter;stroke-miterlimit:3.25;stroke-dasharray:none;stroke-opacity:1"
         id="path546" /><path
         d="M 349.723,82.977 H 345.93"
         style="fill:none;stroke:#666666;stroke-width:0.5;stroke-linecap:butt;stroke-linejoin:miter;stroke-miterlimit:3.25;stroke-dasharray:none;stroke-opacity:1"
         id="path548" /><path
         d="m 349.723,76.379 h -2.278"
         style="fill:none;stroke:#666666;stroke-width:0.5;stroke-linecap:butt;stroke-linejoin:miter;stroke-miterlimit:3.25;stroke-dasharray:none;stroke-opacity:1"
         id="path550" /><path
         d="m 349.723,69.781 h -2.278"
         style="fill:none;stroke:#666666;stroke-width:0.5;stroke-linecap:butt;stroke-linejoin:miter;stroke-miterlimit:3.25;stroke-dasharray:none;stroke-opacity:1"
         id="path552" /><path
         d="m 349.723,63.18 h -2.278"
         style="fill:none;stroke:#666666;stroke-width:0.5;stroke-linecap:butt;stroke-linejoin:miter;stroke-miterlimit:3.25;stroke-dasharray:none;stroke-opacity:1"
         id="path554" /><path
         d="m 349.723,56.582 h -2.278"
         style="fill:none;stroke:#666666;stroke-width:0.5;stroke-linecap:butt;stroke-linejoin:miter;stroke-miterlimit:3.25;stroke-dasharray:none;stroke-opacity:1"
         id="path556" /><path
         d="M 349.723,49.984 H 345.93"
         style="fill:none;stroke:#666666;stroke-width:0.5;stroke-linecap:butt;stroke-linejoin:miter;stroke-miterlimit:3.25;stroke-dasharray:none;stroke-opacity:1"
         id="path558" /><path
         d="m 349.723,43.387 h -2.278"
         style="fill:none;stroke:#666666;stroke-width:0.5;stroke-linecap:butt;stroke-linejoin:miter;stroke-miterlimit:3.25;stroke-dasharray:none;stroke-opacity:1"
         id="path560" /><path
         d="m 349.723,36.789 h -2.278"
         style="fill:none;stroke:#666666;stroke-width:0.5;stroke-linecap:butt;stroke-linejoin:miter;stroke-miterlimit:3.25;stroke-dasharray:none;stroke-opacity:1"
         id="path562" /><path
         d="m 349.723,30.191 h -2.278"
         style="fill:none;stroke:#666666;stroke-width:0.5;stroke-linecap:butt;stroke-linejoin:miter;stroke-miterlimit:3.25;stroke-dasharray:none;stroke-opacity:1"
         id="path564" /><path
         d="m 349.723,23.594 h -2.278"
         style="fill:none;stroke:#666666;stroke-width:0.5;stroke-linecap:butt;stroke-linejoin:miter;stroke-miterlimit:3.25;stroke-dasharray:none;stroke-opacity:1"
         id="path566" /><path
         d="M 349.723,16.996 H 345.93"
         style="fill:none;stroke:#666666;stroke-width:0.5;stroke-linecap:butt;stroke-linejoin:miter;stroke-miterlimit:3.25;stroke-dasharray:none;stroke-opacity:1"
         id="path568" /><path
         d="m 349.723,10.398 h -2.278"
         style="fill:none;stroke:#666666;stroke-width:0.5;stroke-linecap:butt;stroke-linejoin:miter;stroke-miterlimit:3.25;stroke-dasharray:none;stroke-opacity:1"
         id="path570" /><path
         d="m 349.723,3.801 h -2.278"
         style="fill:none;stroke:#666666;stroke-width:0.5;stroke-linecap:butt;stroke-linejoin:miter;stroke-miterlimit:3.25;stroke-dasharray:none;stroke-opacity:1"
         id="path572" /><path
         d="M 29.445,82.977 H 349.723"
         style="fill:none;stroke:#666666;stroke-width:0.2;stroke-linecap:butt;stroke-linejoin:miter;stroke-miterlimit:3.25;stroke-dasharray:none;stroke-opacity:1"
         id="path574" /><path
         d="m 87.316,52.582 c 0,-0.926 -0.371,-1.816 -1.027,-2.473 -0.656,-0.656 -1.547,-1.027 -2.473,-1.027 -0.929,0 -1.82,0.371 -2.476,1.027 -0.656,0.657 -1.024,1.547 -1.024,2.473 0,0.93 0.368,1.82 1.024,2.477 0.656,0.656 1.547,1.023 2.476,1.023 0.926,0 1.817,-0.367 2.473,-1.023 0.656,-0.657 1.027,-1.547 1.027,-2.477 z"
         style="fill:#000000;fill-opacity:1;fill-rule:evenodd;stroke:none"
         id="path576" /><path
         d="m 121.598,26.504 c 0,-0.926 -0.371,-1.816 -1.028,-2.473 -0.656,-0.656 -1.547,-1.027 -2.472,-1.027 -0.93,0 -1.821,0.371 -2.477,1.027 -0.656,0.657 -1.023,1.547 -1.023,2.473 0,0.93 0.367,1.82 1.023,2.476 0.656,0.657 1.547,1.024 2.477,1.024 0.925,0 1.816,-0.367 2.472,-1.024 0.657,-0.656 1.028,-1.546 1.028,-2.476 z"
         style="fill:#000000;fill-opacity:1;fill-rule:evenodd;stroke:none"
         id="path578" /><path
         d="m 154.648,17.18 c 0,-0.93 -0.367,-1.821 -1.023,-2.477 -0.656,-0.656 -1.547,-1.023 -2.477,-1.023 -0.925,0 -1.816,0.367 -2.472,1.023 -0.656,0.656 -1.028,1.547 -1.028,2.477 0,0.925 0.372,1.816 1.028,2.472 0.656,0.657 1.547,1.028 2.472,1.028 0.93,0 1.821,-0.371 2.477,-1.028 0.656,-0.656 1.023,-1.547 1.023,-2.472 z"
         style="fill:#000000;fill-opacity:1;fill-rule:evenodd;stroke:none"
         id="path580" /><path
         d="m 183.398,10.434 c 0,-0.93 -0.371,-1.821 -1.027,-2.477 -0.656,-0.656 -1.547,-1.023 -2.473,-1.023 -0.929,0 -1.82,0.367 -2.476,1.023 -0.656,0.656 -1.024,1.547 -1.024,2.477 0,0.925 0.368,1.816 1.024,2.472 0.656,0.657 1.547,1.028 2.476,1.028 0.926,0 1.817,-0.371 2.473,-1.028 0.656,-0.656 1.027,-1.547 1.027,-2.472 z"
         style="fill:#000000;fill-opacity:1;fill-rule:evenodd;stroke:none"
         id="path582" /><path
         d="m 193.082,8.328 c 0,-0.93 -0.367,-1.82 -1.023,-2.476 -0.657,-0.657 -1.547,-1.024 -2.477,-1.024 -0.926,0 -1.816,0.367 -2.473,1.024 -0.656,0.656 -1.027,1.546 -1.027,2.476 0,0.926 0.371,1.817 1.027,2.473 0.657,0.656 1.547,1.027 2.473,1.027 0.93,0 1.82,-0.371 2.477,-1.027 0.656,-0.656 1.023,-1.547 1.023,-2.473 z"
         style="fill:#000000;fill-opacity:1;fill-rule:evenodd;stroke:none"
         id="path584" /><path
         d="m 231.516,10.672 c 0,-0.93 -0.368,-1.82 -1.024,-2.477 -0.656,-0.656 -1.547,-1.023 -2.476,-1.023 -0.93,0 -1.817,0.367 -2.477,1.023 -0.656,0.657 -1.023,1.547 -1.023,2.477 0,0.926 0.367,1.816 1.023,2.473 0.66,0.656 1.547,1.027 2.477,1.027 0.929,0 1.82,-0.371 2.476,-1.027 0.656,-0.657 1.024,-1.547 1.024,-2.473 z"
         style="fill:#000000;fill-opacity:1;fill-rule:evenodd;stroke:none"
         id="path586" /><path
         d="m 269.949,14.441 c 0,-0.925 -0.367,-1.816 -1.023,-2.472 -0.66,-0.656 -1.547,-1.028 -2.477,-1.028 -0.929,0 -1.82,0.372 -2.476,1.028 -0.657,0.656 -1.024,1.547 -1.024,2.472 0,0.93 0.367,1.821 1.024,2.477 0.656,0.656 1.547,1.023 2.476,1.023 0.93,0 1.817,-0.367 2.477,-1.023 0.656,-0.656 1.023,-1.547 1.023,-2.477 z"
         style="fill:#000000;fill-opacity:1;fill-rule:evenodd;stroke:none"
         id="path588" /><path
         d="m 327.598,22.258 c 0,-0.93 -0.368,-1.817 -1.024,-2.477 -0.656,-0.656 -1.547,-1.023 -2.476,-1.023 -0.926,0 -1.817,0.367 -2.473,1.023 -0.656,0.66 -1.027,1.547 -1.027,2.477 0,0.93 0.371,1.82 1.027,2.476 0.656,0.657 1.547,1.024 2.473,1.024 0.929,0 1.82,-0.367 2.476,-1.024 0.656,-0.656 1.024,-1.546 1.024,-2.476 z"
         style="fill:#000000;fill-opacity:1;fill-rule:evenodd;stroke:none"
         id="path590" /></g><text
       xml:space="preserve"
       style="font-style:normal;font-weight:normal;font-size:16px;line-height:1.25;font-family:sans-serif;fill:#000000;fill-opacity:1;stroke:none;stroke-width:0.75"
       x="-16.118017"
       y="8.4144936"
       id="text42275"><tspan
         sodipodi:role="line"
         id="tspan42273"
         style="font-size:16px;stroke-width:0.75"
         x="-16.118017"
         y="8.4144936">$P_\text{net}$</tspan></text><text
       xml:space="preserve"
       style="font-style:normal;font-weight:normal;font-size:16px;line-height:1.25;font-family:sans-serif;fill:#000000;fill-opacity:1;stroke:none;stroke-width:0.75"
       x="336.10342"
       y="231.96594"
       id="text7791"><tspan
         sodipodi:role="line"
         id="tspan7789"
         style="font-size:16px;text-align:end;text-anchor:end;stroke-width:0.75"
         x="336.10342"
         y="231.96594">$\lambda_x^{+0}$</tspan></text></g></svg>
