<?xml version="1.0" encoding="UTF-8" standalone="no"?>
<!-- Created with Inkscape (http://www.inkscape.org/) -->

<svg
   version="1.1"
   id="svg40733"
   xml:space="preserve"
   width="480"
   height="297.33334"
   viewBox="0 0 480 297.33334"
   sodipodi:docname="preqsl.svg"
   inkscape:version="1.1 (c68e22c387, 2021-05-23)"
   xmlns:inkscape="http://www.inkscape.org/namespaces/inkscape"
   xmlns:sodipodi="http://sodipodi.sourceforge.net/DTD/sodipodi-0.dtd"
   xmlns="http://www.w3.org/2000/svg"
   xmlns:svg="http://www.w3.org/2000/svg"><defs
     id="defs40737"><clipPath
       clipPathUnits="userSpaceOnUse"
       id="clipPath40759"><path
         d="m 29,153 h 314.922 v 1 H 29 Z"
         id="path40757" /></clipPath><clipPath
       clipPathUnits="userSpaceOnUse"
       id="clipPath40769"><path
         d="m 29,105 h 314.922 v 1 H 29 Z"
         id="path40767" /></clipPath><clipPath
       clipPathUnits="userSpaceOnUse"
       id="clipPath40779"><path
         d="m 29,56 h 314.922 v 1 H 29 Z"
         id="path40777" /></clipPath><clipPath
       clipPathUnits="userSpaceOnUse"
       id="clipPath40793"><path
         d="M 28.801,28 H 343.922 V 203.039 H 28.801 Z"
         id="path40791" /></clipPath><clipPath
       clipPathUnits="userSpaceOnUse"
       id="clipPath41085"><path
         d="m 339,24 h 5 v 8 h -5 z"
         id="path41083" /></clipPath><clipPath
       clipPathUnits="userSpaceOnUse"
       id="clipPath41125"><path
         d="m 340,81 h 4 v 8 h -4 z"
         id="path41123" /></clipPath></defs><sodipodi:namedview
     id="namedview40735"
     pagecolor="#ffffff"
     bordercolor="#666666"
     borderopacity="1.0"
     inkscape:pageshadow="2"
     inkscape:pageopacity="0.0"
     inkscape:pagecheckerboard="0"
     showgrid="false"
     inkscape:zoom="2.3791667"
     inkscape:cx="5.8844133"
     inkscape:cy="121.68126"
     inkscape:window-width="1311"
     inkscape:window-height="1003"
     inkscape:window-x="-319"
     inkscape:window-y="69"
     inkscape:window-maximized="0"
     inkscape:current-layer="g40797" /><g
     id="g40739"
     inkscape:groupmode="layer"
     inkscape:label="preqsloriginal"
     transform="matrix(1.3333333,0,0,1.3333333,0,4.1e-6)"><g
       id="g40741"><path
         d="M 81.758,202.367 V 8.379"
         style="fill:none;stroke:#808080;stroke-width:0.2;stroke-linecap:butt;stroke-linejoin:miter;stroke-miterlimit:3.25;stroke-dasharray:none;stroke-opacity:1"
         id="path40743" /><path
         d="M 134.066,202.367 V 8.379"
         style="fill:none;stroke:#808080;stroke-width:0.2;stroke-linecap:butt;stroke-linejoin:miter;stroke-miterlimit:3.25;stroke-dasharray:none;stroke-opacity:1"
         id="path40745" /><path
         d="M 186.379,202.367 V 8.379"
         style="fill:none;stroke:#808080;stroke-width:0.2;stroke-linecap:butt;stroke-linejoin:miter;stroke-miterlimit:3.25;stroke-dasharray:none;stroke-opacity:1"
         id="path40747" /><path
         d="M 238.691,202.367 V 8.379"
         style="fill:none;stroke:#808080;stroke-width:0.2;stroke-linecap:butt;stroke-linejoin:miter;stroke-miterlimit:3.25;stroke-dasharray:none;stroke-opacity:1"
         id="path40749" /><path
         d="M 291.004,202.367 V 8.379"
         style="fill:none;stroke:#808080;stroke-width:0.2;stroke-linecap:butt;stroke-linejoin:miter;stroke-miterlimit:3.25;stroke-dasharray:none;stroke-opacity:1"
         id="path40751" /></g><g
       id="g40753"><g
         id="g40755"
         clip-path="url(#clipPath40759)"><path
           d="M 29.445,153.871 H 343.324"
           style="fill:none;stroke:#808080;stroke-width:0.2;stroke-linecap:butt;stroke-linejoin:miter;stroke-miterlimit:3.25;stroke-dasharray:none;stroke-opacity:1"
           id="path40761" /></g></g><g
       id="g40763"><g
         id="g40765"
         clip-path="url(#clipPath40769)"><path
           d="M 29.445,105.375 H 343.324"
           style="fill:none;stroke:#808080;stroke-width:0.2;stroke-linecap:butt;stroke-linejoin:miter;stroke-miterlimit:3.25;stroke-dasharray:none;stroke-opacity:1"
           id="path40771" /></g></g><g
       id="g40773"><g
         id="g40775"
         clip-path="url(#clipPath40779)"><path
           d="M 29.445,56.875 H 343.324"
           style="fill:none;stroke:#808080;stroke-width:0.2;stroke-linecap:butt;stroke-linejoin:miter;stroke-miterlimit:3.25;stroke-dasharray:none;stroke-opacity:1"
           id="path40781" /></g></g><g
       id="g40783"><path
         d="m 49.191,202.367 0.094,-0.336 0.766,-2.625 1.527,-4.886 0.094,-0.293 0.098,-0.289 0.191,-0.575 0.383,-1.125 0.761,-2.187 1.532,-4.106 0.101,-0.265 0.106,-0.266 0.207,-0.523 0.414,-1.036 0.828,-2.007 1.656,-3.782 0.211,-0.453 0.207,-0.449 0.414,-0.883 0.828,-1.718 1.657,-3.262 0.195,-0.367 0.191,-0.364 0.387,-0.715 0.777,-1.402 1.547,-2.68 3.094,-4.914 0.211,-0.312 0.207,-0.313 0.422,-0.613 0.836,-1.207 1.68,-2.312 3.351,-4.266 0.106,-0.125 0.101,-0.125 0.207,-0.246 0.41,-0.488 0.825,-0.957 1.644,-1.852 3.293,-3.449 6.145,-5.692 6.66,-5.281 6.218,-4.266 6.098,-3.675 6.613,-3.528 6.172,-2.922 6.692,-2.828 6.566,-2.48 6.125,-2.094 6.645,-2.055 6.199,-1.742 6.719,-1.718 6.597,-1.543 6.153,-1.317 6.671,-1.316 6.231,-1.133 6.109,-1.031 6.625,-1.035 6.184,-0.903 6.699,-0.91 6.578,-0.832 6.137,-0.727 6.656,-0.746 6.211,-0.652 6.09,-0.605 6.605,-0.625 6.168,-0.551 6.684,-0.571 6.238,-0.507 6.121,-0.473 6.637,-0.496 6.192,-0.442 6.71,-0.46 6.59,-0.434 6.149,-0.395 6.668,-0.41 6.222,-0.371 6.098,-0.351 6.621,-0.372 6.176,-0.335 0.105,-0.008 0.11,-0.004 0.644,-0.035 0.864,-0.047 1.722,-0.09 0.11,-0.008 0.105,-0.004 0.219,-0.011 0.429,-0.024 0.864,-0.043 0.105,-0.008 0.11,-0.004 0.644,-0.035 0.11,-0.004 0.105,-0.007 0.215,-0.012 0.109,-0.004 0.11,-0.008 0.105,-0.004 0.109,-0.004"
         style="fill:none;stroke:#000000;stroke-width:2;stroke-linecap:butt;stroke-linejoin:miter;stroke-miterlimit:3.25;stroke-dasharray:4, 4;stroke-dashoffset:0;stroke-opacity:1"
         id="path40785" /></g><g
       id="g40787"><g
         id="g40789"
         clip-path="url(#clipPath40793)"><path
           d="m 29.844,202.367 0.082,-12.195 0.097,-10.75 0.094,-8.594 0.098,-7.098 0.098,-6.007 0.093,-5.18 0.098,-4.531 0.094,-4.016 0.097,-3.594 0.098,-3.246 0.094,-2.949 0.097,-2.699 0.098,-2.485 0.094,-2.296 0.097,-2.133 0.098,-1.992 0.094,-1.86 0.098,-1.75 0.191,-3.199 0.098,-1.469 0.093,-1.394 0.196,-2.586 0.093,-1.203 0.098,-1.149 0.191,-2.152 0.098,-1.012 0.098,-0.973 0.191,-1.832 0.098,-0.867 0.094,-0.836 0.191,-1.59 0.098,-0.757 0.097,-0.731 0.192,-1.398 0.386,-2.555 0.094,-0.598 0.098,-0.578 0.191,-1.117 0.387,-2.066 0.094,-0.489 0.097,-0.476 0.192,-0.922 0.386,-1.723 0.106,-0.445 0.102,-0.434 0.21,-0.839 0.418,-1.579 0.102,-0.375 0.105,-0.367 0.211,-0.715 0.414,-1.355 0.106,-0.324 0.105,-0.321 0.207,-0.621 0.418,-1.183 0.836,-2.157 0.106,-0.25 0.101,-0.25 0.211,-0.484 0.418,-0.933 0.832,-1.727 0.106,-0.207 0.105,-0.199 0.207,-0.399 0.418,-0.761 0.836,-1.434 0.098,-0.156 0.097,-0.16 0.196,-0.309 0.387,-0.602 0.781,-1.14 0.195,-0.274 0.195,-0.269 0.387,-0.52 0.781,-0.996 0.098,-0.117 0.098,-0.121 0.195,-0.234 0.391,-0.461 0.777,-0.875 1.559,-1.61 0.097,-0.094 0.094,-0.093 0.191,-0.184 0.383,-0.359 0.766,-0.692 1.527,-1.289 0.094,-0.074 0.098,-0.078 0.574,-0.445 0.761,-0.579 1.532,-1.078 0.101,-0.07 0.106,-0.07 0.207,-0.141 0.414,-0.269 0.828,-0.532 1.656,-0.992 0.106,-0.058 0.105,-0.063 0.207,-0.117 0.414,-0.231 0.828,-0.453 1.657,-0.855 0.195,-0.094 0.191,-0.098 0.387,-0.187 0.777,-0.367 1.547,-0.703 3.094,-1.286 0.106,-0.039 0.105,-0.043 0.207,-0.082 0.422,-0.16 0.836,-0.312 1.68,-0.606 3.351,-1.113 0.106,-0.031 0.101,-0.032 0.207,-0.062 0.41,-0.129 0.825,-0.25 1.644,-0.48 3.293,-0.895 0.098,-0.023 0.093,-0.028 0.192,-0.047 0.387,-0.097 0.765,-0.196 1.535,-0.375 3.075,-0.703 6.66,-1.359 6.218,-1.094 6.098,-0.937 6.613,-0.895 6.172,-0.738 6.692,-0.715 6.566,-0.625 6.125,-0.523 6.645,-0.516 6.199,-0.438 6.719,-0.433 6.597,-0.391 6.153,-0.332 6.671,-0.336 6.231,-0.289 6.109,-0.265 6.625,-0.27 6.184,-0.238 6.699,-0.242 6.578,-0.223 6.137,-0.195 6.656,-0.204 6.211,-0.183 6.09,-0.168 6.605,-0.176 6.168,-0.16 6.684,-0.164 6.238,-0.149 6.121,-0.14 6.637,-0.149 6.192,-0.132 6.71,-0.141 6.59,-0.133 6.149,-0.121 6.668,-0.129 6.222,-0.113 6.098,-0.109 6.621,-0.118 6.176,-0.105 0.105,-0.004 h 0.11 l 0.644,-0.012 0.864,-0.015 1.722,-0.028 0.11,-0.004 h 0.105 l 0.219,-0.004 0.429,-0.007 0.864,-0.016 h 0.105 l 0.11,-0.004 h 0.214 l 0.43,-0.008 0.11,-0.004 h 0.105 l 0.215,-0.004 0.109,-0.003 h 0.215 l 0.109,-0.004"
           style="fill:none;stroke:#000000;stroke-width:2;stroke-linecap:square;stroke-linejoin:miter;stroke-miterlimit:3.25;stroke-dasharray:none;stroke-opacity:1"
           id="path40795" /></g></g><g
       id="g40797"><path
         d="M 343.324,202.367 H 29.445"
         style="fill:none;stroke:#666666;stroke-width:0.5;stroke-linecap:square;stroke-linejoin:miter;stroke-miterlimit:3.25;stroke-dasharray:none;stroke-opacity:1"
         id="path40799" /><path
         d="M 29.445,202.367 V 8.379"
         style="fill:none;stroke:#666666;stroke-width:0.5;stroke-linecap:square;stroke-linejoin:miter;stroke-miterlimit:3.25;stroke-dasharray:none;stroke-opacity:1"
         id="path40801" /><path
         d="M 29.445,8.379 H 343.324"
         style="fill:none;stroke:#666666;stroke-width:0.5;stroke-linecap:square;stroke-linejoin:miter;stroke-miterlimit:3.25;stroke-dasharray:none;stroke-opacity:1"
         id="path40803" /><path
         d="M 343.324,8.379 V 202.367"
         style="fill:none;stroke:#666666;stroke-width:0.5;stroke-linecap:square;stroke-linejoin:miter;stroke-miterlimit:3.25;stroke-dasharray:none;stroke-opacity:1"
         id="path40805" /><path
         d="m 29.445,202.367 v -3.715"
         style="fill:none;stroke:#666666;stroke-width:0.5;stroke-linecap:butt;stroke-linejoin:miter;stroke-miterlimit:3.25;stroke-dasharray:none;stroke-opacity:1"
         id="path40807" /><text
         transform="translate(25.273193,218.94748)"
         style="font-variant:normal;font-weight:normal;font-size:15px;font-family:Arial;-inkscape-font-specification:ArialMT;writing-mode:lr-tb;fill:#666666;fill-opacity:1;fill-rule:nonzero;stroke:none"
         id="text40811"><tspan
           x="0"
           y="0"
           id="tspan40809">0</tspan></text><path
         d="m 39.906,202.367 v -2.23"
         style="fill:none;stroke:#666666;stroke-width:0.5;stroke-linecap:butt;stroke-linejoin:miter;stroke-miterlimit:3.25;stroke-dasharray:none;stroke-opacity:1"
         id="path40813" /><path
         d="m 50.367,202.367 v -2.23"
         style="fill:none;stroke:#666666;stroke-width:0.5;stroke-linecap:butt;stroke-linejoin:miter;stroke-miterlimit:3.25;stroke-dasharray:none;stroke-opacity:1"
         id="path40815" /><path
         d="m 60.832,202.367 v -2.23"
         style="fill:none;stroke:#666666;stroke-width:0.5;stroke-linecap:butt;stroke-linejoin:miter;stroke-miterlimit:3.25;stroke-dasharray:none;stroke-opacity:1"
         id="path40817" /><path
         d="m 71.293,202.367 v -2.23"
         style="fill:none;stroke:#666666;stroke-width:0.5;stroke-linecap:butt;stroke-linejoin:miter;stroke-miterlimit:3.25;stroke-dasharray:none;stroke-opacity:1"
         id="path40819" /><path
         d="m 81.758,202.367 v -3.715"
         style="fill:none;stroke:#666666;stroke-width:0.5;stroke-linecap:butt;stroke-linejoin:miter;stroke-miterlimit:3.25;stroke-dasharray:none;stroke-opacity:1"
         id="path40821" /><text
         transform="translate(69.242757,218.94748)"
         style="font-variant:normal;font-weight:normal;font-size:15px;font-family:Arial;-inkscape-font-specification:ArialMT;writing-mode:lr-tb;fill:#666666;fill-opacity:1;fill-rule:nonzero;stroke:none"
         id="text40825"><tspan
           x="0 8.3400002 16.68"
           y="0"
           sodipodi:role="line"
           id="tspan40823">500</tspan></text><path
         d="m 92.219,202.367 v -2.23"
         style="fill:none;stroke:#666666;stroke-width:0.5;stroke-linecap:butt;stroke-linejoin:miter;stroke-miterlimit:3.25;stroke-dasharray:none;stroke-opacity:1"
         id="path40827" /><path
         d="m 102.68,202.367 v -2.23"
         style="fill:none;stroke:#666666;stroke-width:0.5;stroke-linecap:butt;stroke-linejoin:miter;stroke-miterlimit:3.25;stroke-dasharray:none;stroke-opacity:1"
         id="path40829" /><path
         d="m 113.145,202.367 v -2.23"
         style="fill:none;stroke:#666666;stroke-width:0.5;stroke-linecap:butt;stroke-linejoin:miter;stroke-miterlimit:3.25;stroke-dasharray:none;stroke-opacity:1"
         id="path40831" /><path
         d="m 123.605,202.367 v -2.23"
         style="fill:none;stroke:#666666;stroke-width:0.5;stroke-linecap:butt;stroke-linejoin:miter;stroke-miterlimit:3.25;stroke-dasharray:none;stroke-opacity:1"
         id="path40833" /><path
         d="m 134.066,202.367 v -3.715"
         style="fill:none;stroke:#666666;stroke-width:0.5;stroke-linecap:butt;stroke-linejoin:miter;stroke-miterlimit:3.25;stroke-dasharray:none;stroke-opacity:1"
         id="path40835" /><text
         transform="translate(117.38346,218.94748)"
         style="font-variant:normal;font-weight:normal;font-size:15px;font-family:Arial;-inkscape-font-specification:ArialMT;writing-mode:lr-tb;fill:#666666;fill-opacity:1;fill-rule:nonzero;stroke:none"
         id="text40839"><tspan
           x="0 8.3400002 16.68 25.02"
           y="0"
           sodipodi:role="line"
           id="tspan40837">1000</tspan></text><path
         d="m 144.531,202.367 v -2.23"
         style="fill:none;stroke:#666666;stroke-width:0.5;stroke-linecap:butt;stroke-linejoin:miter;stroke-miterlimit:3.25;stroke-dasharray:none;stroke-opacity:1"
         id="path40841" /><path
         d="m 154.992,202.367 v -2.23"
         style="fill:none;stroke:#666666;stroke-width:0.5;stroke-linecap:butt;stroke-linejoin:miter;stroke-miterlimit:3.25;stroke-dasharray:none;stroke-opacity:1"
         id="path40843" /><path
         d="m 165.457,202.367 v -2.23"
         style="fill:none;stroke:#666666;stroke-width:0.5;stroke-linecap:butt;stroke-linejoin:miter;stroke-miterlimit:3.25;stroke-dasharray:none;stroke-opacity:1"
         id="path40845" /><path
         d="m 175.918,202.367 v -2.23"
         style="fill:none;stroke:#666666;stroke-width:0.5;stroke-linecap:butt;stroke-linejoin:miter;stroke-miterlimit:3.25;stroke-dasharray:none;stroke-opacity:1"
         id="path40847" /><path
         d="m 186.379,202.367 v -3.715"
         style="fill:none;stroke:#666666;stroke-width:0.5;stroke-linecap:butt;stroke-linejoin:miter;stroke-miterlimit:3.25;stroke-dasharray:none;stroke-opacity:1"
         id="path40849" /><text
         transform="translate(169.69531,218.94748)"
         style="font-variant:normal;font-weight:normal;font-size:15px;font-family:Arial;-inkscape-font-specification:ArialMT;writing-mode:lr-tb;fill:#666666;fill-opacity:1;fill-rule:nonzero;stroke:none"
         id="text40853"><tspan
           x="0 8.3400002 16.68 25.02"
           y="0"
           sodipodi:role="line"
           id="tspan40851">1500</tspan></text><path
         d="m 196.844,202.367 v -2.23"
         style="fill:none;stroke:#666666;stroke-width:0.5;stroke-linecap:butt;stroke-linejoin:miter;stroke-miterlimit:3.25;stroke-dasharray:none;stroke-opacity:1"
         id="path40855" /><path
         d="m 207.305,202.367 v -2.23"
         style="fill:none;stroke:#666666;stroke-width:0.5;stroke-linecap:butt;stroke-linejoin:miter;stroke-miterlimit:3.25;stroke-dasharray:none;stroke-opacity:1"
         id="path40857" /><path
         d="m 217.766,202.367 v -2.23"
         style="fill:none;stroke:#666666;stroke-width:0.5;stroke-linecap:butt;stroke-linejoin:miter;stroke-miterlimit:3.25;stroke-dasharray:none;stroke-opacity:1"
         id="path40859" /><path
         d="m 228.23,202.367 v -2.23"
         style="fill:none;stroke:#666666;stroke-width:0.5;stroke-linecap:butt;stroke-linejoin:miter;stroke-miterlimit:3.25;stroke-dasharray:none;stroke-opacity:1"
         id="path40861" /><path
         d="m 238.691,202.367 v -3.715"
         style="fill:none;stroke:#666666;stroke-width:0.5;stroke-linecap:butt;stroke-linejoin:miter;stroke-miterlimit:3.25;stroke-dasharray:none;stroke-opacity:1"
         id="path40863" /><text
         transform="translate(222.00716,218.94748)"
         style="font-variant:normal;font-weight:normal;font-size:15px;font-family:Arial;-inkscape-font-specification:ArialMT;writing-mode:lr-tb;fill:#666666;fill-opacity:1;fill-rule:nonzero;stroke:none"
         id="text40867"><tspan
           x="0 8.3400002 16.68 25.02"
           y="0"
           sodipodi:role="line"
           id="tspan40865">2000</tspan></text><path
         d="m 249.152,202.367 v -2.23"
         style="fill:none;stroke:#666666;stroke-width:0.5;stroke-linecap:butt;stroke-linejoin:miter;stroke-miterlimit:3.25;stroke-dasharray:none;stroke-opacity:1"
         id="path40869" /><path
         d="m 259.617,202.367 v -2.23"
         style="fill:none;stroke:#666666;stroke-width:0.5;stroke-linecap:butt;stroke-linejoin:miter;stroke-miterlimit:3.25;stroke-dasharray:none;stroke-opacity:1"
         id="path40871" /><path
         d="m 270.078,202.367 v -2.23"
         style="fill:none;stroke:#666666;stroke-width:0.5;stroke-linecap:butt;stroke-linejoin:miter;stroke-miterlimit:3.25;stroke-dasharray:none;stroke-opacity:1"
         id="path40873" /><path
         d="m 280.543,202.367 v -2.23"
         style="fill:none;stroke:#666666;stroke-width:0.5;stroke-linecap:butt;stroke-linejoin:miter;stroke-miterlimit:3.25;stroke-dasharray:none;stroke-opacity:1"
         id="path40875" /><path
         d="m 291.004,202.367 v -3.715"
         style="fill:none;stroke:#666666;stroke-width:0.5;stroke-linecap:butt;stroke-linejoin:miter;stroke-miterlimit:3.25;stroke-dasharray:none;stroke-opacity:1"
         id="path40877" /><text
         transform="translate(274.31901,218.94748)"
         style="font-variant:normal;font-weight:normal;font-size:15px;font-family:Arial;-inkscape-font-specification:ArialMT;writing-mode:lr-tb;fill:#666666;fill-opacity:1;fill-rule:nonzero;stroke:none"
         id="text40881"><tspan
           x="0 8.3400002 16.68 25.02"
           y="0"
           sodipodi:role="line"
           id="tspan40879">2500</tspan></text><path
         d="m 301.465,202.367 v -2.23"
         style="fill:none;stroke:#666666;stroke-width:0.5;stroke-linecap:butt;stroke-linejoin:miter;stroke-miterlimit:3.25;stroke-dasharray:none;stroke-opacity:1"
         id="path40883" /><path
         d="m 311.93,202.367 v -2.23"
         style="fill:none;stroke:#666666;stroke-width:0.5;stroke-linecap:butt;stroke-linejoin:miter;stroke-miterlimit:3.25;stroke-dasharray:none;stroke-opacity:1"
         id="path40885" /><path
         d="m 322.391,202.367 v -2.23"
         style="fill:none;stroke:#666666;stroke-width:0.5;stroke-linecap:butt;stroke-linejoin:miter;stroke-miterlimit:3.25;stroke-dasharray:none;stroke-opacity:1"
         id="path40887" /><path
         d="m 332.852,202.367 v -2.23"
         style="fill:none;stroke:#666666;stroke-width:0.5;stroke-linecap:butt;stroke-linejoin:miter;stroke-miterlimit:3.25;stroke-dasharray:none;stroke-opacity:1"
         id="path40889" /><path
         d="m 343.316,202.367 v -3.715"
         style="fill:none;stroke:#666666;stroke-width:0.5;stroke-linecap:butt;stroke-linejoin:miter;stroke-miterlimit:3.25;stroke-dasharray:none;stroke-opacity:1"
         id="path40891" /><text
         transform="translate(326.63086,218.94748)"
         style="font-variant:normal;font-weight:normal;font-size:15px;font-family:Arial;-inkscape-font-specification:ArialMT;writing-mode:lr-tb;fill:#666666;fill-opacity:1;fill-rule:nonzero;stroke:none"
         id="text40895"><tspan
           x="0 8.3400002 16.68 25.02"
           y="0"
           sodipodi:role="line"
           id="tspan40893">3000</tspan></text><path
         d="M 29.445,202.367 H 33.16"
         style="fill:none;stroke:#666666;stroke-width:0.5;stroke-linecap:butt;stroke-linejoin:miter;stroke-miterlimit:3.25;stroke-dasharray:none;stroke-opacity:1"
         id="path40897" /><text
         style="font-variant:normal;font-weight:normal;font-size:15px;font-family:MathematicaSans;-inkscape-font-specification:MathematicaSans;writing-mode:lr-tb;fill:#666666;fill-opacity:1;fill-rule:nonzero;stroke:none"
         id="text40901"
         x="1.5"
         y="204.56857"><tspan
           x="1.5"
           y="204.56857"
           id="tspan40899">-</tspan></text><text
         transform="translate(9.75,207.56857)"
         style="font-variant:normal;font-weight:normal;font-size:15px;font-family:Arial;-inkscape-font-specification:ArialMT;writing-mode:lr-tb;fill:#666666;fill-opacity:1;fill-rule:nonzero;stroke:none"
         id="text40905"><tspan
           x="0 8.3400002"
           y="0"
           sodipodi:role="line"
           id="tspan40903">80</tspan></text><path
         d="m 29.445,190.242 h 2.231"
         style="fill:none;stroke:#666666;stroke-width:0.5;stroke-linecap:butt;stroke-linejoin:miter;stroke-miterlimit:3.25;stroke-dasharray:none;stroke-opacity:1"
         id="path40907" /><path
         d="m 29.445,178.121 h 2.231"
         style="fill:none;stroke:#666666;stroke-width:0.5;stroke-linecap:butt;stroke-linejoin:miter;stroke-miterlimit:3.25;stroke-dasharray:none;stroke-opacity:1"
         id="path40909" /><path
         d="m 29.445,165.996 h 2.231"
         style="fill:none;stroke:#666666;stroke-width:0.5;stroke-linecap:butt;stroke-linejoin:miter;stroke-miterlimit:3.25;stroke-dasharray:none;stroke-opacity:1"
         id="path40911" /><path
         d="M 29.445,153.871 H 33.16"
         style="fill:none;stroke:#666666;stroke-width:0.5;stroke-linecap:butt;stroke-linejoin:miter;stroke-miterlimit:3.25;stroke-dasharray:none;stroke-opacity:1"
         id="path40913" /><text
         style="font-variant:normal;font-weight:normal;font-size:15px;font-family:MathematicaSans;-inkscape-font-specification:MathematicaSans;writing-mode:lr-tb;fill:#666666;fill-opacity:1;fill-rule:nonzero;stroke:none"
         id="text40917"
         x="1.5"
         y="156.0712"><tspan
           x="1.5"
           y="156.0712"
           id="tspan40915">-</tspan></text><text
         transform="translate(9.75,159.0712)"
         style="font-variant:normal;font-weight:normal;font-size:15px;font-family:Arial;-inkscape-font-specification:ArialMT;writing-mode:lr-tb;fill:#666666;fill-opacity:1;fill-rule:nonzero;stroke:none"
         id="text40921"><tspan
           x="0 8.3400002"
           y="0"
           sodipodi:role="line"
           id="tspan40919">60</tspan></text><path
         d="m 29.445,141.746 h 2.231"
         style="fill:none;stroke:#666666;stroke-width:0.5;stroke-linecap:butt;stroke-linejoin:miter;stroke-miterlimit:3.25;stroke-dasharray:none;stroke-opacity:1"
         id="path40923" /><path
         d="m 29.445,129.621 h 2.231"
         style="fill:none;stroke:#666666;stroke-width:0.5;stroke-linecap:butt;stroke-linejoin:miter;stroke-miterlimit:3.25;stroke-dasharray:none;stroke-opacity:1"
         id="path40925" /><path
         d="m 29.445,117.496 h 2.231"
         style="fill:none;stroke:#666666;stroke-width:0.5;stroke-linecap:butt;stroke-linejoin:miter;stroke-miterlimit:3.25;stroke-dasharray:none;stroke-opacity:1"
         id="path40927" /><path
         d="M 29.445,105.375 H 33.16"
         style="fill:none;stroke:#666666;stroke-width:0.5;stroke-linecap:butt;stroke-linejoin:miter;stroke-miterlimit:3.25;stroke-dasharray:none;stroke-opacity:1"
         id="path40929" /><text
         style="font-variant:normal;font-weight:normal;font-size:15px;font-family:MathematicaSans;-inkscape-font-specification:MathematicaSans;writing-mode:lr-tb;fill:#666666;fill-opacity:1;fill-rule:nonzero;stroke:none"
         id="text40933"
         x="1.5"
         y="107.57384"><tspan
           x="1.5"
           y="107.57384"
           id="tspan40931">-</tspan></text><text
         transform="translate(9.75,110.57384)"
         style="font-variant:normal;font-weight:normal;font-size:15px;font-family:Arial;-inkscape-font-specification:ArialMT;writing-mode:lr-tb;fill:#666666;fill-opacity:1;fill-rule:nonzero;stroke:none"
         id="text40937"><tspan
           x="0 8.3400002"
           y="0"
           sodipodi:role="line"
           id="tspan40935">40</tspan></text><path
         d="m 29.445,93.25 h 2.231"
         style="fill:none;stroke:#666666;stroke-width:0.5;stroke-linecap:butt;stroke-linejoin:miter;stroke-miterlimit:3.25;stroke-dasharray:none;stroke-opacity:1"
         id="path40939" /><path
         d="m 29.445,81.125 h 2.231"
         style="fill:none;stroke:#666666;stroke-width:0.5;stroke-linecap:butt;stroke-linejoin:miter;stroke-miterlimit:3.25;stroke-dasharray:none;stroke-opacity:1"
         id="path40941" /><path
         d="m 29.445,69 h 2.231"
         style="fill:none;stroke:#666666;stroke-width:0.5;stroke-linecap:butt;stroke-linejoin:miter;stroke-miterlimit:3.25;stroke-dasharray:none;stroke-opacity:1"
         id="path40943" /><path
         d="M 29.445,56.875 H 33.16"
         style="fill:none;stroke:#666666;stroke-width:0.5;stroke-linecap:butt;stroke-linejoin:miter;stroke-miterlimit:3.25;stroke-dasharray:none;stroke-opacity:1"
         id="path40945" /><text
         style="font-variant:normal;font-weight:normal;font-size:15px;font-family:MathematicaSans;-inkscape-font-specification:MathematicaSans;writing-mode:lr-tb;fill:#666666;fill-opacity:1;fill-rule:nonzero;stroke:none"
         id="text40949"
         x="1.5"
         y="59.076469"><tspan
           x="1.5"
           y="59.076469"
           id="tspan40947">-</tspan></text><text
         transform="translate(9.75,62.076469)"
         style="font-variant:normal;font-weight:normal;font-size:15px;font-family:Arial;-inkscape-font-specification:ArialMT;writing-mode:lr-tb;fill:#666666;fill-opacity:1;fill-rule:nonzero;stroke:none"
         id="text40953"><tspan
           x="0 8.3400002"
           y="0"
           sodipodi:role="line"
           id="tspan40951">20</tspan></text><path
         d="m 29.445,44.75 h 2.231"
         style="fill:none;stroke:#666666;stroke-width:0.5;stroke-linecap:butt;stroke-linejoin:miter;stroke-miterlimit:3.25;stroke-dasharray:none;stroke-opacity:1"
         id="path40955" /><path
         d="m 29.445,32.629 h 2.231"
         style="fill:none;stroke:#666666;stroke-width:0.5;stroke-linecap:butt;stroke-linejoin:miter;stroke-miterlimit:3.25;stroke-dasharray:none;stroke-opacity:1"
         id="path40957" /><path
         d="m 29.445,20.504 h 2.231"
         style="fill:none;stroke:#666666;stroke-width:0.5;stroke-linecap:butt;stroke-linejoin:miter;stroke-miterlimit:3.25;stroke-dasharray:none;stroke-opacity:1"
         id="path40959" /><path
         d="M 29.445,8.379 H 33.16"
         style="fill:none;stroke:#666666;stroke-width:0.5;stroke-linecap:butt;stroke-linejoin:miter;stroke-miterlimit:3.25;stroke-dasharray:none;stroke-opacity:1"
         id="path40961" /><text
         transform="translate(18.102051,13.579102)"
         style="font-variant:normal;font-weight:normal;font-size:15px;font-family:Arial;-inkscape-font-specification:ArialMT;writing-mode:lr-tb;fill:#666666;fill-opacity:1;fill-rule:nonzero;stroke:none"
         id="text40965"><tspan
           x="0"
           y="0"
           id="tspan40963">0</tspan></text><path
         d="m 29.445,8.379 v 3.719"
         style="fill:none;stroke:#666666;stroke-width:0.5;stroke-linecap:butt;stroke-linejoin:miter;stroke-miterlimit:3.25;stroke-dasharray:none;stroke-opacity:1"
         id="path40967" /><path
         d="m 39.906,8.379 v 2.23"
         style="fill:none;stroke:#666666;stroke-width:0.5;stroke-linecap:butt;stroke-linejoin:miter;stroke-miterlimit:3.25;stroke-dasharray:none;stroke-opacity:1"
         id="path40969" /><path
         d="m 50.367,8.379 v 2.23"
         style="fill:none;stroke:#666666;stroke-width:0.5;stroke-linecap:butt;stroke-linejoin:miter;stroke-miterlimit:3.25;stroke-dasharray:none;stroke-opacity:1"
         id="path40971" /><path
         d="m 60.832,8.379 v 2.23"
         style="fill:none;stroke:#666666;stroke-width:0.5;stroke-linecap:butt;stroke-linejoin:miter;stroke-miterlimit:3.25;stroke-dasharray:none;stroke-opacity:1"
         id="path40973" /><path
         d="m 71.293,8.379 v 2.23"
         style="fill:none;stroke:#666666;stroke-width:0.5;stroke-linecap:butt;stroke-linejoin:miter;stroke-miterlimit:3.25;stroke-dasharray:none;stroke-opacity:1"
         id="path40975" /><path
         d="m 81.758,8.379 v 3.719"
         style="fill:none;stroke:#666666;stroke-width:0.5;stroke-linecap:butt;stroke-linejoin:miter;stroke-miterlimit:3.25;stroke-dasharray:none;stroke-opacity:1"
         id="path40977" /><path
         d="m 92.219,8.379 v 2.23"
         style="fill:none;stroke:#666666;stroke-width:0.5;stroke-linecap:butt;stroke-linejoin:miter;stroke-miterlimit:3.25;stroke-dasharray:none;stroke-opacity:1"
         id="path40979" /><path
         d="m 102.68,8.379 v 2.23"
         style="fill:none;stroke:#666666;stroke-width:0.5;stroke-linecap:butt;stroke-linejoin:miter;stroke-miterlimit:3.25;stroke-dasharray:none;stroke-opacity:1"
         id="path40981" /><path
         d="m 113.145,8.379 v 2.23"
         style="fill:none;stroke:#666666;stroke-width:0.5;stroke-linecap:butt;stroke-linejoin:miter;stroke-miterlimit:3.25;stroke-dasharray:none;stroke-opacity:1"
         id="path40983" /><path
         d="m 123.605,8.379 v 2.23"
         style="fill:none;stroke:#666666;stroke-width:0.5;stroke-linecap:butt;stroke-linejoin:miter;stroke-miterlimit:3.25;stroke-dasharray:none;stroke-opacity:1"
         id="path40985" /><path
         d="m 134.066,8.379 v 3.719"
         style="fill:none;stroke:#666666;stroke-width:0.5;stroke-linecap:butt;stroke-linejoin:miter;stroke-miterlimit:3.25;stroke-dasharray:none;stroke-opacity:1"
         id="path40987" /><path
         d="m 144.531,8.379 v 2.23"
         style="fill:none;stroke:#666666;stroke-width:0.5;stroke-linecap:butt;stroke-linejoin:miter;stroke-miterlimit:3.25;stroke-dasharray:none;stroke-opacity:1"
         id="path40989" /><path
         d="m 154.992,8.379 v 2.23"
         style="fill:none;stroke:#666666;stroke-width:0.5;stroke-linecap:butt;stroke-linejoin:miter;stroke-miterlimit:3.25;stroke-dasharray:none;stroke-opacity:1"
         id="path40991" /><path
         d="m 165.457,8.379 v 2.23"
         style="fill:none;stroke:#666666;stroke-width:0.5;stroke-linecap:butt;stroke-linejoin:miter;stroke-miterlimit:3.25;stroke-dasharray:none;stroke-opacity:1"
         id="path40993" /><path
         d="m 175.918,8.379 v 2.23"
         style="fill:none;stroke:#666666;stroke-width:0.5;stroke-linecap:butt;stroke-linejoin:miter;stroke-miterlimit:3.25;stroke-dasharray:none;stroke-opacity:1"
         id="path40995" /><path
         d="m 186.379,8.379 v 3.719"
         style="fill:none;stroke:#666666;stroke-width:0.5;stroke-linecap:butt;stroke-linejoin:miter;stroke-miterlimit:3.25;stroke-dasharray:none;stroke-opacity:1"
         id="path40997" /><path
         d="m 196.844,8.379 v 2.23"
         style="fill:none;stroke:#666666;stroke-width:0.5;stroke-linecap:butt;stroke-linejoin:miter;stroke-miterlimit:3.25;stroke-dasharray:none;stroke-opacity:1"
         id="path40999" /><path
         d="m 207.305,8.379 v 2.23"
         style="fill:none;stroke:#666666;stroke-width:0.5;stroke-linecap:butt;stroke-linejoin:miter;stroke-miterlimit:3.25;stroke-dasharray:none;stroke-opacity:1"
         id="path41001" /><path
         d="m 217.766,8.379 v 2.23"
         style="fill:none;stroke:#666666;stroke-width:0.5;stroke-linecap:butt;stroke-linejoin:miter;stroke-miterlimit:3.25;stroke-dasharray:none;stroke-opacity:1"
         id="path41003" /><path
         d="m 228.23,8.379 v 2.23"
         style="fill:none;stroke:#666666;stroke-width:0.5;stroke-linecap:butt;stroke-linejoin:miter;stroke-miterlimit:3.25;stroke-dasharray:none;stroke-opacity:1"
         id="path41005" /><path
         d="m 238.691,8.379 v 3.719"
         style="fill:none;stroke:#666666;stroke-width:0.5;stroke-linecap:butt;stroke-linejoin:miter;stroke-miterlimit:3.25;stroke-dasharray:none;stroke-opacity:1"
         id="path41007" /><path
         d="m 249.152,8.379 v 2.23"
         style="fill:none;stroke:#666666;stroke-width:0.5;stroke-linecap:butt;stroke-linejoin:miter;stroke-miterlimit:3.25;stroke-dasharray:none;stroke-opacity:1"
         id="path41009" /><path
         d="m 259.617,8.379 v 2.23"
         style="fill:none;stroke:#666666;stroke-width:0.5;stroke-linecap:butt;stroke-linejoin:miter;stroke-miterlimit:3.25;stroke-dasharray:none;stroke-opacity:1"
         id="path41011" /><path
         d="m 270.078,8.379 v 2.23"
         style="fill:none;stroke:#666666;stroke-width:0.5;stroke-linecap:butt;stroke-linejoin:miter;stroke-miterlimit:3.25;stroke-dasharray:none;stroke-opacity:1"
         id="path41013" /><path
         d="m 280.543,8.379 v 2.23"
         style="fill:none;stroke:#666666;stroke-width:0.5;stroke-linecap:butt;stroke-linejoin:miter;stroke-miterlimit:3.25;stroke-dasharray:none;stroke-opacity:1"
         id="path41015" /><path
         d="m 291.004,8.379 v 3.719"
         style="fill:none;stroke:#666666;stroke-width:0.5;stroke-linecap:butt;stroke-linejoin:miter;stroke-miterlimit:3.25;stroke-dasharray:none;stroke-opacity:1"
         id="path41017" /><path
         d="m 301.465,8.379 v 2.23"
         style="fill:none;stroke:#666666;stroke-width:0.5;stroke-linecap:butt;stroke-linejoin:miter;stroke-miterlimit:3.25;stroke-dasharray:none;stroke-opacity:1"
         id="path41019" /><path
         d="m 311.93,8.379 v 2.23"
         style="fill:none;stroke:#666666;stroke-width:0.5;stroke-linecap:butt;stroke-linejoin:miter;stroke-miterlimit:3.25;stroke-dasharray:none;stroke-opacity:1"
         id="path41021" /><path
         d="m 322.391,8.379 v 2.23"
         style="fill:none;stroke:#666666;stroke-width:0.5;stroke-linecap:butt;stroke-linejoin:miter;stroke-miterlimit:3.25;stroke-dasharray:none;stroke-opacity:1"
         id="path41023" /><path
         d="m 332.852,8.379 v 2.23"
         style="fill:none;stroke:#666666;stroke-width:0.5;stroke-linecap:butt;stroke-linejoin:miter;stroke-miterlimit:3.25;stroke-dasharray:none;stroke-opacity:1"
         id="path41025" /><path
         d="m 343.316,8.379 v 3.719"
         style="fill:none;stroke:#666666;stroke-width:0.5;stroke-linecap:butt;stroke-linejoin:miter;stroke-miterlimit:3.25;stroke-dasharray:none;stroke-opacity:1"
         id="path41027" /><path
         d="m 343.324,202.367 h -3.715"
         style="fill:none;stroke:#666666;stroke-width:0.5;stroke-linecap:butt;stroke-linejoin:miter;stroke-miterlimit:3.25;stroke-dasharray:none;stroke-opacity:1"
         id="path41029" /><path
         d="m 343.324,190.242 h -2.23"
         style="fill:none;stroke:#666666;stroke-width:0.5;stroke-linecap:butt;stroke-linejoin:miter;stroke-miterlimit:3.25;stroke-dasharray:none;stroke-opacity:1"
         id="path41031" /><path
         d="m 343.324,178.121 h -2.23"
         style="fill:none;stroke:#666666;stroke-width:0.5;stroke-linecap:butt;stroke-linejoin:miter;stroke-miterlimit:3.25;stroke-dasharray:none;stroke-opacity:1"
         id="path41033" /><path
         d="m 343.324,165.996 h -2.23"
         style="fill:none;stroke:#666666;stroke-width:0.5;stroke-linecap:butt;stroke-linejoin:miter;stroke-miterlimit:3.25;stroke-dasharray:none;stroke-opacity:1"
         id="path41035" /><path
         d="m 343.324,153.871 h -3.715"
         style="fill:none;stroke:#666666;stroke-width:0.5;stroke-linecap:butt;stroke-linejoin:miter;stroke-miterlimit:3.25;stroke-dasharray:none;stroke-opacity:1"
         id="path41037" /><path
         d="m 343.324,141.746 h -2.23"
         style="fill:none;stroke:#666666;stroke-width:0.5;stroke-linecap:butt;stroke-linejoin:miter;stroke-miterlimit:3.25;stroke-dasharray:none;stroke-opacity:1"
         id="path41039" /><path
         d="m 343.324,129.621 h -2.23"
         style="fill:none;stroke:#666666;stroke-width:0.5;stroke-linecap:butt;stroke-linejoin:miter;stroke-miterlimit:3.25;stroke-dasharray:none;stroke-opacity:1"
         id="path41041" /><path
         d="m 343.324,117.496 h -2.23"
         style="fill:none;stroke:#666666;stroke-width:0.5;stroke-linecap:butt;stroke-linejoin:miter;stroke-miterlimit:3.25;stroke-dasharray:none;stroke-opacity:1"
         id="path41043" /><path
         d="m 343.324,105.375 h -3.715"
         style="fill:none;stroke:#666666;stroke-width:0.5;stroke-linecap:butt;stroke-linejoin:miter;stroke-miterlimit:3.25;stroke-dasharray:none;stroke-opacity:1"
         id="path41045" /><path
         d="m 343.324,93.25 h -2.23"
         style="fill:none;stroke:#666666;stroke-width:0.5;stroke-linecap:butt;stroke-linejoin:miter;stroke-miterlimit:3.25;stroke-dasharray:none;stroke-opacity:1"
         id="path41047" /><path
         d="m 343.324,81.125 h -2.23"
         style="fill:none;stroke:#666666;stroke-width:0.5;stroke-linecap:butt;stroke-linejoin:miter;stroke-miterlimit:3.25;stroke-dasharray:none;stroke-opacity:1"
         id="path41049" /><path
         d="m 343.324,69 h -2.23"
         style="fill:none;stroke:#666666;stroke-width:0.5;stroke-linecap:butt;stroke-linejoin:miter;stroke-miterlimit:3.25;stroke-dasharray:none;stroke-opacity:1"
         id="path41051" /><path
         d="m 343.324,56.875 h -3.715"
         style="fill:none;stroke:#666666;stroke-width:0.5;stroke-linecap:butt;stroke-linejoin:miter;stroke-miterlimit:3.25;stroke-dasharray:none;stroke-opacity:1"
         id="path41053" /><path
         d="m 343.324,44.75 h -2.23"
         style="fill:none;stroke:#666666;stroke-width:0.5;stroke-linecap:butt;stroke-linejoin:miter;stroke-miterlimit:3.25;stroke-dasharray:none;stroke-opacity:1"
         id="path41055" /><path
         d="m 343.324,32.629 h -2.23"
         style="fill:none;stroke:#666666;stroke-width:0.5;stroke-linecap:butt;stroke-linejoin:miter;stroke-miterlimit:3.25;stroke-dasharray:none;stroke-opacity:1"
         id="path41057" /><path
         d="m 343.324,20.504 h -2.23"
         style="fill:none;stroke:#666666;stroke-width:0.5;stroke-linecap:butt;stroke-linejoin:miter;stroke-miterlimit:3.25;stroke-dasharray:none;stroke-opacity:1"
         id="path41059" /><path
         d="m 343.324,8.379 h -3.715"
         style="fill:none;stroke:#666666;stroke-width:0.5;stroke-linecap:butt;stroke-linejoin:miter;stroke-miterlimit:3.25;stroke-dasharray:none;stroke-opacity:1"
         id="path41061" /><path
         d="m 65.461,50.535 c 0,-0.93 -0.371,-1.82 -1.027,-2.476 -0.657,-0.657 -1.547,-1.024 -2.473,-1.024 -0.93,0 -1.82,0.367 -2.477,1.024 -0.656,0.656 -1.023,1.546 -1.023,2.476 0,0.93 0.367,1.817 1.023,2.473 0.657,0.66 1.547,1.027 2.477,1.027 0.926,0 1.816,-0.367 2.473,-1.027 0.656,-0.656 1.027,-1.543 1.027,-2.473 z"
         style="fill:#000000;fill-opacity:1;fill-rule:evenodd;stroke:none"
         id="path41063" /><path
         d="m 89.016,42.609 c 0,-0.929 -0.368,-1.82 -1.024,-2.476 -0.656,-0.656 -1.547,-1.024 -2.476,-1.024 -0.926,0 -1.817,0.368 -2.473,1.024 -0.656,0.656 -1.027,1.547 -1.027,2.476 0,0.926 0.371,1.817 1.027,2.473 0.656,0.656 1.547,1.027 2.473,1.027 0.929,0 1.82,-0.371 2.476,-1.027 0.656,-0.656 1.024,-1.547 1.024,-2.473 z"
         style="fill:#000000;fill-opacity:1;fill-rule:evenodd;stroke:none"
         id="path41065" /><path
         d="m 111.578,38.645 c 0,-0.93 -0.367,-1.817 -1.023,-2.477 -0.657,-0.656 -1.547,-1.023 -2.477,-1.023 -0.93,0 -1.82,0.367 -2.476,1.023 -0.657,0.66 -1.024,1.547 -1.024,2.477 0,0.929 0.367,1.82 1.024,2.476 0.656,0.656 1.546,1.024 2.476,1.024 0.93,0 1.82,-0.368 2.477,-1.024 0.656,-0.656 1.023,-1.547 1.023,-2.476 z"
         style="fill:#000000;fill-opacity:1;fill-rule:evenodd;stroke:none"
         id="path41067" /><path
         d="m 131.152,36.121 c 0,-0.926 -0.367,-1.816 -1.023,-2.473 -0.656,-0.656 -1.547,-1.027 -2.477,-1.027 -0.925,0 -1.816,0.371 -2.472,1.027 -0.657,0.657 -1.028,1.547 -1.028,2.473 0,0.93 0.371,1.82 1.028,2.477 0.656,0.656 1.547,1.023 2.472,1.023 0.93,0 1.821,-0.367 2.477,-1.023 0.656,-0.657 1.023,-1.547 1.023,-2.477 z"
         style="fill:#000000;fill-opacity:1;fill-rule:evenodd;stroke:none"
         id="path41069" /><path
         d="m 137.789,35.402 c 0,-0.929 -0.367,-1.82 -1.023,-2.476 -0.657,-0.656 -1.547,-1.024 -2.477,-1.024 -0.93,0 -1.816,0.368 -2.476,1.024 -0.657,0.656 -1.024,1.547 -1.024,2.476 0,0.93 0.367,1.817 1.024,2.473 0.66,0.66 1.546,1.027 2.476,1.027 0.93,0 1.82,-0.367 2.477,-1.027 0.656,-0.656 1.023,-1.543 1.023,-2.473 z"
         style="fill:#000000;fill-opacity:1;fill-rule:evenodd;stroke:none"
         id="path41071" /><path
         d="m 163.668,33.602 c 0,-0.93 -0.367,-1.821 -1.023,-2.477 -0.657,-0.656 -1.547,-1.023 -2.477,-1.023 -0.926,0 -1.816,0.367 -2.473,1.023 -0.656,0.656 -1.027,1.547 -1.027,2.477 0,0.925 0.371,1.816 1.027,2.472 0.657,0.656 1.547,1.028 2.473,1.028 0.93,0 1.82,-0.372 2.477,-1.028 0.656,-0.656 1.023,-1.547 1.023,-2.472 z"
         style="fill:#000000;fill-opacity:1;fill-rule:evenodd;stroke:none"
         id="path41073" /><path
         d="m 189.879,32.16 c 0,-0.93 -0.367,-1.82 -1.024,-2.476 -0.656,-0.657 -1.546,-1.024 -2.476,-1.024 -0.926,0 -1.816,0.367 -2.473,1.024 -0.656,0.656 -1.027,1.546 -1.027,2.476 0,0.926 0.371,1.817 1.027,2.473 0.657,0.656 1.547,1.027 2.473,1.027 0.93,0 1.82,-0.371 2.476,-1.027 0.657,-0.656 1.024,-1.547 1.024,-2.473 z"
         style="fill:#000000;fill-opacity:1;fill-rule:evenodd;stroke:none"
         id="path41075" /><path
         d="m 229.363,30.359 c 0,-0.929 -0.371,-1.82 -1.027,-2.476 -0.656,-0.656 -1.547,-1.024 -2.473,-1.024 -0.929,0 -1.82,0.368 -2.476,1.024 -0.657,0.656 -1.024,1.547 -1.024,2.476 0,0.926 0.367,1.817 1.024,2.473 0.656,0.656 1.547,1.027 2.476,1.027 0.926,0 1.817,-0.371 2.473,-1.027 0.656,-0.656 1.027,-1.547 1.027,-2.473 z"
         style="fill:#000000;fill-opacity:1;fill-rule:evenodd;stroke:none"
         id="path41077" /></g><g
       id="g41079"><g
         id="g41081"
         clip-path="url(#clipPath41085)"><path
           d="m 346.816,28.195 c 0,-0.929 -0.371,-1.816 -1.027,-2.472 -0.656,-0.657 -1.547,-1.028 -2.473,-1.028 -0.929,0 -1.82,0.371 -2.476,1.028 -0.656,0.656 -1.024,1.543 -1.024,2.472 0,0.93 0.368,1.821 1.024,2.477 0.656,0.656 1.547,1.023 2.476,1.023 0.926,0 1.817,-0.367 2.473,-1.023 0.656,-0.656 1.027,-1.547 1.027,-2.477 z"
           style="fill:#000000;fill-opacity:1;fill-rule:evenodd;stroke:none"
           id="path41087" /></g></g><g
       id="g41089"><path
         d="m 58.941,184.57 c 0,-0.929 -0.367,-1.82 -1.023,-2.476 -0.656,-0.656 -1.547,-1.024 -2.477,-1.024 -0.925,0 -1.816,0.368 -2.472,1.024 -0.656,0.656 -1.028,1.547 -1.028,2.476 0,0.926 0.372,1.817 1.028,2.473 0.656,0.656 1.547,1.027 2.472,1.027 0.93,0 1.821,-0.371 2.477,-1.027 0.656,-0.656 1.023,-1.547 1.023,-2.473 z"
         style="fill:#000000;fill-opacity:1;fill-rule:evenodd;stroke:none"
         id="path41091" /><path
         d="m 60.277,179.887 c 0,-0.93 -0.371,-1.821 -1.027,-2.477 -0.656,-0.656 -1.543,-1.023 -2.473,-1.023 -0.929,0 -1.82,0.367 -2.476,1.023 -0.656,0.656 -1.024,1.547 -1.024,2.477 0,0.926 0.368,1.816 1.024,2.472 0.656,0.657 1.547,1.028 2.476,1.028 0.93,0 1.817,-0.371 2.473,-1.028 0.656,-0.656 1.027,-1.546 1.027,-2.472 z"
         style="fill:#000000;fill-opacity:1;fill-rule:evenodd;stroke:none"
         id="path41093" /><path
         d="m 65.273,169.797 c 0,-0.93 -0.371,-1.82 -1.027,-2.477 -0.656,-0.656 -1.547,-1.023 -2.473,-1.023 -0.929,0 -1.82,0.367 -2.476,1.023 -0.656,0.657 -1.024,1.547 -1.024,2.477 0,0.93 0.368,1.816 1.024,2.473 0.656,0.66 1.547,1.027 2.476,1.027 0.926,0 1.817,-0.367 2.473,-1.027 0.656,-0.657 1.027,-1.543 1.027,-2.473 z"
         style="fill:#000000;fill-opacity:1;fill-rule:evenodd;stroke:none"
         id="path41095" /><path
         d="m 68.602,164.754 c 0,-0.93 -0.372,-1.82 -1.028,-2.477 -0.656,-0.656 -1.543,-1.023 -2.472,-1.023 -0.93,0 -1.821,0.367 -2.477,1.023 -0.656,0.657 -1.023,1.547 -1.023,2.477 0,0.926 0.367,1.816 1.023,2.473 0.656,0.656 1.547,1.027 2.477,1.027 0.929,0 1.816,-0.371 2.472,-1.027 0.656,-0.657 1.028,-1.547 1.028,-2.473 z"
         style="fill:#000000;fill-opacity:1;fill-rule:evenodd;stroke:none"
         id="path41097" /><path
         d="m 76.258,152.863 c 0,-0.929 -0.371,-1.82 -1.028,-2.476 -0.656,-0.657 -1.546,-1.024 -2.472,-1.024 -0.93,0 -1.82,0.367 -2.477,1.024 -0.656,0.656 -1.023,1.547 -1.023,2.476 0,0.926 0.367,1.817 1.023,2.473 0.657,0.656 1.547,1.027 2.477,1.027 0.926,0 1.816,-0.371 2.472,-1.027 0.657,-0.656 1.028,-1.547 1.028,-2.473 z"
         style="fill:#000000;fill-opacity:1;fill-rule:evenodd;stroke:none"
         id="path41099" /><path
         d="m 85.238,142.773 c 0,-0.929 -0.367,-1.82 -1.023,-2.476 -0.656,-0.656 -1.547,-1.024 -2.477,-1.024 -0.929,0 -1.82,0.368 -2.476,1.024 -0.657,0.656 -1.024,1.547 -1.024,2.476 0,0.93 0.367,1.821 1.024,2.477 0.656,0.656 1.547,1.023 2.476,1.023 0.93,0 1.821,-0.367 2.477,-1.023 0.656,-0.656 1.023,-1.547 1.023,-2.477 z"
         style="fill:#000000;fill-opacity:1;fill-rule:evenodd;stroke:none"
         id="path41101" /><path
         d="m 98.207,131.965 c 0,-0.93 -0.371,-1.82 -1.027,-2.477 -0.657,-0.656 -1.547,-1.023 -2.473,-1.023 -0.93,0 -1.82,0.367 -2.477,1.023 -0.656,0.657 -1.023,1.547 -1.023,2.477 0,0.93 0.367,1.816 1.023,2.473 0.657,0.656 1.547,1.027 2.477,1.027 0.926,0 1.816,-0.371 2.473,-1.027 0.656,-0.657 1.027,-1.543 1.027,-2.473 z"
         style="fill:#000000;fill-opacity:1;fill-rule:evenodd;stroke:none"
         id="path41103" /><path
         d="m 111.172,124.039 c 0,-0.93 -0.371,-1.82 -1.027,-2.476 -0.657,-0.657 -1.547,-1.024 -2.473,-1.024 -0.93,0 -1.82,0.367 -2.477,1.024 -0.656,0.656 -1.023,1.546 -1.023,2.476 0,0.926 0.367,1.816 1.023,2.473 0.657,0.656 1.547,1.027 2.477,1.027 0.926,0 1.816,-0.371 2.473,-1.027 0.656,-0.657 1.027,-1.547 1.027,-2.473 z"
         style="fill:#000000;fill-opacity:1;fill-rule:evenodd;stroke:none"
         id="path41105" /><path
         d="m 130.781,114.668 c 0,-0.926 -0.371,-1.816 -1.027,-2.473 -0.656,-0.656 -1.547,-1.027 -2.473,-1.027 -0.929,0 -1.82,0.371 -2.476,1.027 -0.657,0.657 -1.024,1.547 -1.024,2.473 0,0.93 0.367,1.82 1.024,2.477 0.656,0.656 1.547,1.023 2.476,1.023 0.926,0 1.817,-0.367 2.473,-1.023 0.656,-0.657 1.027,-1.547 1.027,-2.477 z"
         style="fill:#000000;fill-opacity:1;fill-rule:evenodd;stroke:none"
         id="path41107" /><path
         d="m 137.426,112.148 c 0,-0.929 -0.367,-1.82 -1.024,-2.476 -0.656,-0.656 -1.547,-1.024 -2.476,-1.024 -0.93,0 -1.821,0.368 -2.477,1.024 -0.656,0.656 -1.023,1.547 -1.023,2.476 0,0.926 0.367,1.817 1.023,2.473 0.656,0.656 1.547,1.027 2.477,1.027 0.929,0 1.82,-0.371 2.476,-1.027 0.657,-0.656 1.024,-1.547 1.024,-2.473 z"
         style="fill:#000000;fill-opacity:1;fill-rule:evenodd;stroke:none"
         id="path41109" /><path
         d="m 163.676,104.219 c 0,-0.926 -0.367,-1.817 -1.024,-2.473 -0.656,-0.656 -1.547,-1.027 -2.476,-1.027 -0.93,0 -1.821,0.371 -2.477,1.027 -0.656,0.656 -1.023,1.547 -1.023,2.473 0,0.929 0.367,1.82 1.023,2.476 0.656,0.657 1.547,1.024 2.477,1.024 0.929,0 1.82,-0.367 2.476,-1.024 0.657,-0.656 1.024,-1.547 1.024,-2.476 z"
         style="fill:#000000;fill-opacity:1;fill-rule:evenodd;stroke:none"
         id="path41111" /><path
         d="m 189.922,98.816 c 0,-0.929 -0.367,-1.82 -1.024,-2.476 -0.656,-0.656 -1.546,-1.024 -2.476,-1.024 -0.93,0 -1.817,0.368 -2.477,1.024 -0.656,0.656 -1.023,1.547 -1.023,2.476 0,0.93 0.367,1.817 1.023,2.473 0.66,0.66 1.547,1.027 2.477,1.027 0.93,0 1.82,-0.367 2.476,-1.027 0.657,-0.656 1.024,-1.543 1.024,-2.473 z"
         style="fill:#000000;fill-opacity:1;fill-rule:evenodd;stroke:none"
         id="path41113" /><path
         d="m 229.121,93.051 c 0,-0.93 -0.367,-1.817 -1.023,-2.473 -0.657,-0.66 -1.547,-1.027 -2.477,-1.027 -0.926,0 -1.816,0.367 -2.473,1.027 -0.656,0.656 -1.027,1.543 -1.027,2.473 0,0.929 0.371,1.82 1.027,2.476 0.657,0.657 1.547,1.024 2.473,1.024 0.93,0 1.82,-0.367 2.477,-1.024 0.656,-0.656 1.023,-1.547 1.023,-2.476 z"
         style="fill:#000000;fill-opacity:1;fill-rule:evenodd;stroke:none"
         id="path41115" /><path
         d="m 242.41,91.609 c 0,-0.925 -0.367,-1.816 -1.027,-2.472 -0.656,-0.657 -1.543,-1.028 -2.473,-1.028 -0.93,0 -1.82,0.371 -2.476,1.028 -0.657,0.656 -1.024,1.547 -1.024,2.472 0,0.93 0.367,1.821 1.024,2.477 0.656,0.656 1.546,1.023 2.476,1.023 0.93,0 1.817,-0.367 2.473,-1.023 0.66,-0.656 1.027,-1.547 1.027,-2.477 z"
         style="fill:#000000;fill-opacity:1;fill-rule:evenodd;stroke:none"
         id="path41117" /></g><g
       id="g41119"><g
         id="g41121"
         clip-path="url(#clipPath41125)"><path
           d="m 347.043,85.125 c 0,-0.93 -0.371,-1.82 -1.027,-2.477 -0.657,-0.656 -1.543,-1.023 -2.473,-1.023 -0.93,0 -1.82,0.367 -2.477,1.023 -0.656,0.657 -1.023,1.547 -1.023,2.477 0,0.926 0.367,1.816 1.023,2.473 0.657,0.656 1.547,1.027 2.477,1.027 0.93,0 1.816,-0.371 2.473,-1.027 0.656,-0.657 1.027,-1.547 1.027,-2.473 z"
           style="fill:#000000;fill-opacity:1;fill-rule:evenodd;stroke:none"
           id="path41127" /></g></g><text
       xml:space="preserve"
       style="font-style:normal;font-weight:normal;font-size:16px;line-height:1.25;font-family:sans-serif;fill:#000000;fill-opacity:1;stroke:none;stroke-width:0.75"
       x="-24.816988"
       y="11.81611"
       id="text42275"><tspan
         sodipodi:role="line"
         id="tspan42273"
         style="font-size:16px;stroke-width:0.75"
         x="-24.816988"
         y="11.81611">$P_\text{req,s}$</tspan></text><text
       xml:space="preserve"
       style="font-style:normal;font-weight:normal;font-size:16px;line-height:1.25;font-family:sans-serif;fill:#000000;fill-opacity:1;stroke:none;stroke-width:0.75"
       x="336.40445"
       y="235.36755"
       id="text7791"><tspan
         sodipodi:role="line"
         id="tspan7789"
         style="font-size:16px;text-align:end;text-anchor:end;stroke-width:0.75"
         x="336.40445"
         y="235.36755">$\lambda_x^{+0}$</tspan></text></g></svg>
