<?xml version="1.0" encoding="UTF-8" standalone="no"?>
<!-- Created with Inkscape (http://www.inkscape.org/) -->

<svg
   version="1.1"
   id="svg22354"
   xml:space="preserve"
   width="342.66666"
   height="576"
   viewBox="0 0 342.66666 576"
   sodipodi:docname="spanvelmatch.svg"
   inkscape:version="1.1 (c68e22c387, 2021-05-23)"
   xmlns:inkscape="http://www.inkscape.org/namespaces/inkscape"
   xmlns:sodipodi="http://sodipodi.sourceforge.net/DTD/sodipodi-0.dtd"
   xmlns="http://www.w3.org/2000/svg"
   xmlns:svg="http://www.w3.org/2000/svg"><defs
     id="defs22358"><clipPath
       clipPathUnits="userSpaceOnUse"
       id="clipPath22370"><path
         d="M 121,0 H 257 V 395.762 H 121 Z"
         id="path22368" /></clipPath><clipPath
       clipPathUnits="userSpaceOnUse"
       id="clipPath22380"><path
         d="m 63,2 h 67 V 395.762 H 63 Z"
         id="path22378" /></clipPath><clipPath
       clipPathUnits="userSpaceOnUse"
       id="clipPath22442"><path
         d="m 83,0 h 49 V 396 H 83 Z"
         id="path22440" /></clipPath><clipPath
       clipPathUnits="userSpaceOnUse"
       id="clipPath22452"><path
         d="M 90,3 H 197 V 396 H 90 Z"
         id="path22450" /></clipPath><clipPath
       clipPathUnits="userSpaceOnUse"
       id="clipPath22627"><path
         d="m 125,0 h 69 v 395.762 h -69 z"
         id="path22625" /></clipPath><clipPath
       clipPathUnits="userSpaceOnUse"
       id="clipPath22637"><path
         d="m 102,4 h 43 v 391.762 h -43 z"
         id="path22635" /></clipPath><clipPath
       clipPathUnits="userSpaceOnUse"
       id="clipPath22837"><path
         d="m 63,0 h 85 V 395.762 H 63 Z"
         id="path22835" /></clipPath><clipPath
       clipPathUnits="userSpaceOnUse"
       id="clipPath22847"><path
         d="m 127,4 h 64 v 391.762 h -64 z"
         id="path22845" /></clipPath><clipPath
       clipPathUnits="userSpaceOnUse"
       id="clipPath22942"><path
         d="M 0,0 H 136 V 395.762 H 0 Z"
         id="path22940" /></clipPath><clipPath
       clipPathUnits="userSpaceOnUse"
       id="clipPath22952"><path
         d="m 127,2 h 66 v 393.762 h -66 z"
         id="path22950" /></clipPath><clipPath
       clipPathUnits="userSpaceOnUse"
       id="clipPath23047"><path
         d="m 63,0 h 69 V 395.762 H 63 Z"
         id="path23045" /></clipPath><clipPath
       clipPathUnits="userSpaceOnUse"
       id="clipPath23057"><path
         d="m 112,4 h 42 v 391.762 h -42 z"
         id="path23055" /></clipPath><clipPath
       clipPathUnits="userSpaceOnUse"
       id="clipPath23152"><path
         d="m 109,0 h 85 v 395.762 h -85 z"
         id="path23150" /></clipPath><clipPath
       clipPathUnits="userSpaceOnUse"
       id="clipPath23162"><path
         d="m 66,4 h 63 V 395.762 H 66 Z"
         id="path23160" /></clipPath></defs><sodipodi:namedview
     id="namedview22356"
     pagecolor="#ffffff"
     bordercolor="#666666"
     borderopacity="1.0"
     inkscape:pageshadow="2"
     inkscape:pageopacity="0.0"
     inkscape:pagecheckerboard="0"
     showgrid="false"
     inkscape:zoom="0.65364583"
     inkscape:cx="1281.2749"
     inkscape:cy="88.733068"
     inkscape:window-width="1620"
     inkscape:window-height="1018"
     inkscape:window-x="-6"
     inkscape:window-y="-6"
     inkscape:window-maximized="1"
     inkscape:current-layer="g22360" /><g
     id="g22360"
     inkscape:groupmode="layer"
     inkscape:label="0"
     transform="matrix(1.3333333,0,0,1.3333333,0,1.44e-5)"><g
       id="g22362" /><g
       id="g22364"><g
         id="g22366"
         clip-path="url(#clipPath22370)"><path
           d="m 256.141,395.484 -0.176,-0.121 -0.172,-0.121 -0.348,-0.242 -0.691,-0.484 -4.16,-2.907 -5.543,-3.879 -11.996,-8.402 -11.125,-7.851 -10.758,-7.692 -11.399,-8.347 -10.253,-7.79 -10.567,-8.441 -9.683,-8.289 -8.305,-7.73 -8.125,-8.383 -6.692,-7.825 -5.683,-7.671 -0.09,-0.129 -0.09,-0.133 -0.176,-0.258 -0.351,-0.519 -0.688,-1.043 -1.328,-2.079 -2.465,-4.164 -0.07,-0.121 -0.066,-0.121 -0.137,-0.242 -0.266,-0.484 -0.527,-0.973 -1.012,-1.941 -0.062,-0.122 -0.059,-0.121 -0.121,-0.242 -0.242,-0.488 -0.473,-0.969 -0.906,-1.941 -0.117,-0.266 -0.117,-0.262 -0.235,-0.527 -0.453,-1.051 -0.859,-2.105 -0.055,-0.133 -0.051,-0.129 -0.101,-0.266 -0.203,-0.523 -0.395,-1.055 -0.746,-2.105 -0.047,-0.129 -0.301,-0.902 -0.332,-1.036 -0.625,-2.062 -0.039,-0.133 -0.035,-0.129 -0.074,-0.258 -0.145,-0.515 -0.281,-1.031 -0.527,-2.067 -0.028,-0.121 -0.031,-0.121 -0.055,-0.242 -0.113,-0.481 -0.219,-0.965 -0.406,-1.925 -0.023,-0.121 -0.028,-0.121 -0.047,-0.239 -0.089,-0.484 -0.18,-0.961 -0.332,-1.93 -0.02,-0.129 -0.019,-0.132 -0.043,-0.258 -0.082,-0.524 -0.153,-1.047 -0.015,-0.129 -0.02,-0.132 -0.035,-0.258 -0.07,-0.524 -0.133,-1.046 -0.016,-0.129 -0.015,-0.133 -0.031,-0.262 -0.063,-0.519 -0.113,-1.047 -0.012,-0.129 -0.016,-0.133 -0.027,-0.262 -0.051,-0.519 -0.093,-1.047 -0.024,-0.242 -0.019,-0.246 -0.039,-0.489 -0.075,-0.972 -0.008,-0.125 -0.023,-0.364 -0.035,-0.488 -0.059,-0.976 -0.008,-0.122 -0.003,-0.121 -0.016,-0.246 -0.023,-0.484 -0.008,-0.125 -0.004,-0.121 -0.012,-0.242 -0.023,-0.489 -0.004,-0.121 -0.008,-0.125 -0.008,-0.242 -0.019,-0.488 -0.008,-0.242 -0.008,-0.247 -0.016,-0.488 -0.004,-0.129 -0.015,-0.531 -0.004,-0.129 -0.008,-0.266 v -0.132 l -0.004,-0.133 -0.008,-0.262 v -0.133 l -0.004,-0.132 -0.003,-0.266 -0.004,-0.129 v -0.133 l -0.004,-0.265 -0.004,-0.133 v -0.133 l -0.004,-0.262 v -0.133 l -0.004,-0.132 v -0.266 l -0.004,-0.129 v -0.66 l -0.004,-0.133 v -0.926 l 0.004,-0.133 v -0.66 l 0.004,-0.132 v -0.395 l 0.004,-0.133 v -0.133 l 0.004,-0.265 v -0.129 l 0.004,-0.133 0.004,-0.266 v -0.132 l 0.004,-0.129 0.003,-0.266 v -0.129 l 0.004,-0.129 0.004,-0.261 0.012,-0.52 0.008,-0.258 0.004,-0.262 0.015,-0.515 V 232 l 0.012,-0.387 0.016,-0.519 0.035,-1.039 0.008,-0.258 0.011,-0.258 0.02,-0.519 0.043,-1.04 0.008,-0.128 0.004,-0.129 0.011,-0.262 0.024,-0.52 0.051,-1.035 0.007,-0.121 0.004,-0.121 0.016,-0.242 0.023,-0.484 0.055,-0.969 0.113,-1.938 0.262,-3.871 0.008,-0.129 0.012,-0.133 0.015,-0.261 0.039,-0.528 0.078,-1.046 0.164,-2.102 0.34,-4.195 0.68,-7.84 0.672,-7.688 0.695,-8.336 0.586,-7.781 0.016,-0.266 0.019,-0.261 0.035,-0.528 0.075,-1.054 0.14,-2.11 0.262,-4.214 0.031,-0.516 0.028,-0.52 0.062,-1.035 0.113,-2.07 0.004,-0.129 0.024,-0.387 0.027,-0.519 0.051,-1.035 0.101,-2.067 0.008,-0.121 0.004,-0.121 0.012,-0.242 0.023,-0.481 0.043,-0.968 0.082,-1.93 0.008,-0.121 0.004,-0.121 0.012,-0.239 0.019,-0.484 0.039,-0.965 0.071,-1.929 0.007,-0.133 0.004,-0.129 0.008,-0.262 0.02,-0.523 0.105,-3.141 0.004,-0.133 0.004,-0.129 0.055,-1.832 0.058,-2.093 0.004,-0.122 0.004,-0.125 0.004,-0.242 0.016,-0.488 0.023,-0.977 0.043,-1.957 0.008,-0.242 0.004,-0.246 0.011,-0.488 0.02,-0.977 0.035,-1.953 0.004,-0.121 v -0.117 l 0.008,-0.242 0.008,-0.477 0.015,-0.961 v -0.117 l 0.004,-0.121 0.004,-0.238 0.008,-0.481 0.012,-0.957 0.003,-0.121 v -0.117 l 0.004,-0.242 0.008,-0.477 0.012,-0.957 0.023,-1.918 v -0.129 l 0.004,-0.129 v -0.261 l 0.008,-0.52 0.008,-1.039 0.004,-0.129 v -0.133 l 0.004,-0.258 0.011,-1.558 v -0.133 l 0.004,-0.129 v -0.258 l 0.012,-1.558 v -0.262 l 0.004,-0.262 0.004,-0.519 0.004,-1.039 v -0.243 l 0.004,-0.242 v -0.484 l 0.004,-0.121 v -0.363 l 0.003,-0.485 v -0.484 l 0.004,-0.485 v -1.093 l 0.004,-0.121 v -1.211 l 0.004,-0.485 v -1.457 l 0.004,-0.484 v -7.621 l -0.004,-0.262 v -1.508 l -0.004,-0.98 v -0.985 l -0.004,-0.98 v -0.981 l -0.004,-0.984 -0.007,-1.961 v -0.965 l -0.004,-0.961 -0.008,-1.925 -0.016,-3.848 -0.035,-8.352 -0.031,-7.797 v -0.527 l -0.004,-0.527 -0.004,-1.055 -0.008,-2.113 -0.015,-4.223 v -0.519 l -0.004,-0.52 -0.004,-1.035 -0.004,-2.074 v -0.129 l -0.004,-0.129 V 60.02 l -0.004,-1.036 -0.004,-2.074 v -0.121 l -0.004,-0.121 v -0.727 l -0.004,-0.964 -0.004,-1.934 v -0.484 l -0.003,-0.485 v -0.965 l -0.004,-1.937 v -0.524 l -0.004,-0.523 V 47.078 L 128.34,44.98 v -0.523 l -0.004,-0.527 v -1.047 l -0.004,-2.098 v -2.078 l -0.004,-0.125 v -2.691 l -0.004,-0.977 v -4.359 l -0.004,-0.481 v -7.922 l -0.004,-1.039 V 4.297 L 128.32,3.754 V 0.5"
           style="fill:none;stroke:#000000;stroke-width:2;stroke-linecap:square;stroke-linejoin:miter;stroke-miterlimit:3.25;stroke-dasharray:none;stroke-opacity:1"
           id="path22372" /></g></g><g
       id="g22374"><g
         id="g22376"
         clip-path="url(#clipPath22380)"><path
           d="m 128.32,395.484 -0.117,-0.121 -0.113,-0.121 -0.235,-0.242 -0.46,-0.484 -2.778,-2.907 -3.699,-3.879 -7.98,-8.402 -7.329,-7.851 -6.945,-7.692 -7.121,-8.347 -6.109,-7.79 -5.891,-8.441 -0.164,-0.258 -0.168,-0.261 -0.328,-0.516 -0.653,-1.035 -1.253,-2.074 -2.34,-4.145 -0.067,-0.121 -0.062,-0.121 -0.129,-0.238 -0.254,-0.485 -0.5,-0.965 -0.957,-1.933 -0.055,-0.121 -0.175,-0.364 -0.227,-0.484 -0.441,-0.965 -0.848,-1.933 -0.059,-0.129 -0.054,-0.133 -0.11,-0.262 -0.215,-0.523 -0.421,-1.047 -0.79,-2.098 -0.046,-0.129 -0.047,-0.133 -0.094,-0.261 -0.184,-0.524 -0.355,-1.047 -0.656,-2.097 -0.039,-0.121 -0.036,-0.121 -0.07,-0.247 -0.141,-0.488 -0.273,-0.98 -0.031,-0.121 -0.035,-0.122 -0.063,-0.246 -0.125,-0.488 -0.242,-0.976 -0.031,-0.125 -0.028,-0.122 -0.058,-0.246 -0.114,-0.488 -0.21,-0.976 -0.387,-1.958 -0.02,-0.121 -0.023,-0.117 -0.043,-0.242 -0.082,-0.48 -0.152,-0.957 -0.02,-0.122 -0.02,-0.117 -0.035,-0.242 -0.066,-0.48 -0.129,-0.957 -0.016,-0.122 -0.015,-0.117 -0.028,-0.242 -0.054,-0.48 -0.016,-0.118 -0.012,-0.121 -0.027,-0.238 -0.047,-0.48 -0.012,-0.122 -0.011,-0.117 -0.024,-0.242 -0.043,-0.48 -0.011,-0.118 -0.008,-0.121 -0.02,-0.238 -0.035,-0.48 -0.012,-0.129 -0.007,-0.133 -0.02,-0.258 -0.008,-0.133 -0.023,-0.386 -0.008,-0.133 -0.008,-0.129 -0.012,-0.262 -0.023,-0.519 -0.008,-0.129 -0.004,-0.129 -0.011,-0.262 -0.004,-0.129 -0.004,-0.133 -0.012,-0.386 -0.004,-0.133 -0.008,-0.258 v -0.133 l -0.008,-0.258 v -0.129 l -0.003,-0.132 v -0.258 l -0.004,-0.133 v -1.43 l 0.004,-0.129 v -0.132 l 0.003,-0.129 v -0.129 l 0.004,-0.129 v -0.133 l 0.004,-0.129 0.008,-0.262 0.004,-0.128 v -0.129 l 0.008,-0.262 0.004,-0.129 0.008,-0.129 0.007,-0.262 0.008,-0.242 0.035,-0.726 0.008,-0.125 0.004,-0.121 0.016,-0.243 0.027,-0.484 0.031,-0.484 0.035,-0.489 0.075,-0.968 0.023,-0.243 0.02,-0.242 0.046,-0.488 0.098,-0.969 0.016,-0.121 0.011,-0.121 0.028,-0.242 0.058,-0.488 0.118,-0.969 0.019,-0.133 0.016,-0.133 0.035,-0.262 0.074,-0.527 0.152,-1.051 0.344,-2.105 0.024,-0.133 0.023,-0.129 0.043,-0.266 0.098,-0.523 0.199,-1.055 0.426,-2.105 0.027,-0.129 0.031,-0.129 0.055,-0.258 0.113,-0.515 0.235,-1.036 0.496,-2.062 1.09,-4.133 0.035,-0.121 0.031,-0.121 0.07,-0.242 0.137,-0.481 0.277,-0.965 0.575,-1.925 1.211,-3.856 2.863,-8.359 2.859,-7.805 3.188,-8.453 3.105,-8.301 2.797,-7.746 2.859,-8.394 2.465,-7.84 2.203,-7.688 2.133,-8.336 1.754,-7.781 1.656,-8.433 1.399,-8.278 1.125,-7.722 1.054,-8.375 0.852,-7.817 0.738,-7.664 0.707,-8.316 0.594,-7.758 0.594,-8.41 0.512,-7.852 0.476,-7.699 0.496,-8.352 0.449,-7.797 0.469,-8.445 0.453,-8.293 0.418,-7.738 0.446,-8.387 0.418,-7.832 0.414,-7.676 0.449,-8.328 0.426,-7.773 0.007,-0.137 0.008,-0.133 0.016,-0.273 0.031,-0.543 0.059,-1.082 0.121,-2.168 0.015,-0.274 0.016,-0.269 0.031,-0.543 0.059,-1.086 0.008,-0.133 0.023,-0.41 0.031,-0.539 0.004,-0.137 0.008,-0.136 0.016,-0.27 0.015,-0.273 0.008,-0.133 0.008,-0.137"
           style="fill:none;stroke:#000000;stroke-width:2;stroke-linecap:butt;stroke-linejoin:miter;stroke-miterlimit:3.25;stroke-dasharray:4, 4;stroke-dashoffset:0;stroke-opacity:1"
           id="path22382" /></g></g><g
       id="g22384"><path
         d="m 64.41,395.484 v -4"
         style="fill:none;stroke:#666666;stroke-width:0.2;stroke-linecap:butt;stroke-linejoin:miter;stroke-miterlimit:3.25;stroke-dasharray:none;stroke-opacity:1"
         id="path22386" /><text
         transform="translate(34.297998,425.64258)"
         style="font-variant:normal;font-weight:normal;font-size:30px;font-family:MathematicaSans;-inkscape-font-specification:MathematicaSans;writing-mode:lr-tb;fill:#000000;fill-opacity:1;fill-rule:nonzero;stroke:none"
         id="text22390"><tspan
           x="0"
           y="0"
           id="tspan22388">-</tspan></text><text
         transform="translate(52.777998,425.64258)"
         style="font-variant:normal;font-weight:normal;font-size:30px;font-family:Arial;-inkscape-font-specification:ArialMT;writing-mode:lr-tb;fill:#000000;fill-opacity:1;fill-rule:nonzero;stroke:none"
         id="text22394"><tspan
           x="0 16.68 24.99"
           y="0"
           sodipodi:role="line"
           id="tspan22392">0.5</tspan></text><path
         d="m 192.23,395.484 v -4"
         style="fill:none;stroke:#666666;stroke-width:0.2;stroke-linecap:butt;stroke-linejoin:miter;stroke-miterlimit:3.25;stroke-dasharray:none;stroke-opacity:1"
         id="path22396" /><text
         transform="translate(171.37739,425.64258)"
         style="font-variant:normal;font-weight:normal;font-size:30px;font-family:Arial;-inkscape-font-specification:ArialMT;writing-mode:lr-tb;fill:#000000;fill-opacity:1;fill-rule:nonzero;stroke:none"
         id="text22400"><tspan
           x="0 16.68 24.99"
           y="0"
           sodipodi:role="line"
           id="tspan22398">0.5</tspan></text><path
         d="M 0.5,395.484 H 256.141"
         style="fill:none;stroke:#666666;stroke-width:0.2;stroke-linecap:butt;stroke-linejoin:miter;stroke-miterlimit:3.25;stroke-dasharray:none;stroke-opacity:1"
         id="path22402" /><path
         d="m 128.32,395.484 h 4"
         style="fill:none;stroke:#666666;stroke-width:0.2;stroke-linecap:butt;stroke-linejoin:miter;stroke-miterlimit:3.25;stroke-dasharray:none;stroke-opacity:1"
         id="path22404" /><path
         d="m 128.32,282.633 h 4"
         style="fill:none;stroke:#666666;stroke-width:0.2;stroke-linecap:butt;stroke-linejoin:miter;stroke-miterlimit:3.25;stroke-dasharray:none;stroke-opacity:1"
         id="path22406" /><text
         transform="translate(108.63506,293.03209)"
         style="font-variant:normal;font-weight:normal;font-size:30px;font-family:Arial;-inkscape-font-specification:ArialMT;writing-mode:lr-tb;fill:#000000;fill-opacity:1;fill-rule:nonzero;stroke:none"
         id="text22410"><tspan
           x="0"
           y="0"
           id="tspan22408">2</tspan></text><path
         d="m 128.32,169.777 h 4"
         style="fill:none;stroke:#666666;stroke-width:0.2;stroke-linecap:butt;stroke-linejoin:miter;stroke-miterlimit:3.25;stroke-dasharray:none;stroke-opacity:1"
         id="path22412" /><text
         transform="translate(108.63506,180.17941)"
         style="font-variant:normal;font-weight:normal;font-size:30px;font-family:Arial;-inkscape-font-specification:ArialMT;writing-mode:lr-tb;fill:#000000;fill-opacity:1;fill-rule:nonzero;stroke:none"
         id="text22416"><tspan
           x="0"
           y="0"
           id="tspan22414">4</tspan></text><path
         d="m 128.32,56.926 h 4"
         style="fill:none;stroke:#666666;stroke-width:0.2;stroke-linecap:butt;stroke-linejoin:miter;stroke-miterlimit:3.25;stroke-dasharray:none;stroke-opacity:1"
         id="path22418" /><text
         transform="translate(108.63506,67.32673)"
         style="font-variant:normal;font-weight:normal;font-size:30px;font-family:Arial;-inkscape-font-specification:ArialMT;writing-mode:lr-tb;fill:#000000;fill-opacity:1;fill-rule:nonzero;stroke:none"
         id="text22422"><tspan
           x="0"
           y="0"
           id="tspan22420">6</tspan></text><path
         d="M 128.32,395.484 V 0.5"
         style="fill:none;stroke:#666666;stroke-width:0.2;stroke-linecap:butt;stroke-linejoin:miter;stroke-miterlimit:3.25;stroke-dasharray:none;stroke-opacity:1"
         id="path22424" /></g><g
       id="g22617"
       inkscape:label="1"
       transform="translate(269.90261,-0.29125354)"><g
         id="g22619" /><g
         id="g22621"><g
           id="g22623"
           clip-path="url(#clipPath22627)"><path
             d="m 192.23,395.484 v -2.058 l -0.003,-0.121 v -1.453 l -0.004,-0.243 v -0.484 l -0.004,-0.121 v -0.484 l -0.004,-0.125 v -0.364 l -0.004,-0.121 v -0.242 l -0.004,-0.121 v -0.121 l -0.004,-0.242 v -0.243 l -0.004,-0.242 v -0.121 l -0.004,-0.121 -0.011,-0.727 v -0.128 l -0.004,-0.133 -0.004,-0.262 -0.012,-0.527 -0.004,-0.129 -0.004,-0.133 -0.004,-0.262 -0.015,-0.527 V 385.5 l -0.004,-0.133 -0.008,-0.262 -0.02,-0.527 -0.003,-0.129 -0.004,-0.133 -0.008,-0.261 -0.02,-0.528 -0.007,-0.129 -0.004,-0.132 -0.012,-0.262 -0.024,-0.527 -0.003,-0.129 -0.008,-0.133 -0.012,-0.262 -0.027,-0.527 -0.004,-0.129 -0.008,-0.133 -0.016,-0.262 -0.031,-0.527 -0.066,-1.047 -0.008,-0.125 -0.008,-0.121 -0.019,-0.246 -0.036,-0.492 -0.078,-0.981 -0.008,-0.121 -0.011,-0.125 -0.02,-0.242 -0.047,-0.492 -0.09,-0.981 -0.015,-0.121 -0.012,-0.125 -0.023,-0.246 -0.055,-0.488 -0.109,-0.981 -0.246,-1.964 -0.02,-0.118 -0.047,-0.363 -0.07,-0.48 -0.145,-0.961 -0.316,-1.922 -0.039,-0.242 -0.043,-0.243 -0.27,-1.441 -0.394,-1.922 -0.028,-0.133 -0.027,-0.129 -0.059,-0.261 -0.113,-0.52 -0.242,-1.043 -0.516,-2.09 -0.07,-0.257 -0.066,-0.262 -0.141,-0.524 -0.285,-1.043 -0.613,-2.085 -0.036,-0.122 -0.039,-0.121 -0.074,-0.246 -0.152,-0.484 -0.313,-0.977 -0.652,-1.945 -1.422,-3.895 -0.055,-0.132 -0.05,-0.133 -0.102,-0.262 -0.207,-0.527 -0.426,-1.055 -0.879,-2.113 -1.886,-4.219 -4.141,-8.289 -4.289,-7.73 -4.973,-8.383 -4.8,-7.825 -4.723,-7.671 -5.004,-8.325 -4.441,-7.765 -4.457,-8.422 -3.93,-8.262 -3.219,-7.711 -0.047,-0.129 -0.051,-0.132 -0.101,-0.258 -0.199,-0.524 -0.395,-1.047 -0.762,-2.089 -1.418,-4.18 -0.078,-0.242 -0.078,-0.246 -0.156,-0.489 -0.305,-0.972 -0.586,-1.953 -0.07,-0.243 -0.074,-0.246 -0.141,-0.484 -0.273,-0.977 -0.528,-1.953 -0.035,-0.129 -0.105,-0.398 -0.137,-0.528 -0.266,-1.058 -0.507,-2.113 -0.032,-0.133 -0.031,-0.129 -0.059,-0.266 -0.121,-0.527 -0.234,-1.059 -0.445,-2.113 -0.028,-0.129 -0.023,-0.129 -0.055,-0.261 -0.101,-0.52 -0.2,-1.035 -0.378,-2.078 -0.024,-0.129 -0.019,-0.129 -0.047,-0.258 -0.258,-1.559 -0.324,-2.074 -0.016,-0.121 -0.019,-0.121 -0.106,-0.726 -0.133,-0.969 -0.254,-1.938 -0.015,-0.121 -0.016,-0.117 -0.031,-0.242 -0.059,-0.485 -0.113,-0.968 -0.211,-1.938 -0.016,-0.129 -0.011,-0.133 -0.028,-0.261 -0.05,-0.528 -0.102,-1.046 -0.012,-0.133 -0.011,-0.129 -0.024,-0.266 -0.047,-0.523 -0.09,-1.051 -0.011,-0.129 -0.012,-0.133 -0.02,-0.261 -0.043,-0.524 -0.078,-1.051 -0.144,-2.097 -0.008,-0.125 -0.008,-0.121 -0.012,-0.247 -0.031,-0.488 -0.054,-0.98 -0.008,-0.121 -0.008,-0.125 -0.012,-0.246 -0.027,-0.489 -0.047,-0.98 -0.004,-0.121 -0.008,-0.125 -0.011,-0.243 -0.02,-0.492 -0.043,-0.98 -0.008,-0.242 -0.008,-0.246 -0.019,-0.489 -0.035,-0.98 -0.008,-0.242 -0.004,-0.239 -0.016,-0.48 -0.007,-0.242 -0.008,-0.239 -0.012,-0.48 -0.004,-0.121 v -0.121 l -0.008,-0.239 -0.011,-0.48 -0.02,-0.961 -0.004,-0.121 v -0.121 l -0.008,-0.238 -0.007,-0.481 V 197 l -0.004,-0.117 -0.004,-0.242 -0.004,-0.481 -0.004,-0.121 v -0.117 l -0.004,-0.242 -0.004,-0.121 v -0.118 l -0.004,-0.242 v -0.238 l -0.004,-0.242 -0.004,-0.481 v -0.129 l -0.004,-0.129 v -0.394 l -0.003,-0.129 v -0.519 l -0.004,-0.133 v -0.649 l -0.004,-0.133 v -2.605 l 0.004,-0.129 v -0.914 l 0.004,-0.129 v -0.519 l 0.003,-0.262 v -0.262 l 0.004,-0.258 v -0.261 l 0.004,-0.262 0.004,-0.52 0.004,-0.121 v -0.125 l 0.004,-0.242 0.004,-0.484 0.012,-0.973 v -0.121 l 0.004,-0.121 0.003,-0.246 0.008,-0.485 0.012,-0.972 0.008,-0.242 0.004,-0.247 0.007,-0.484 0.016,-0.973 0.043,-1.945 v -0.133 l 0.004,-0.133 0.004,-0.261 0.016,-0.528 0.023,-1.054 0.051,-2.11 0.117,-4.214 0.016,-0.516 0.015,-0.52 0.094,-3.105 0.129,-4.137 0.25,-7.722 0.258,-8.375 0.214,-7.817 0.004,-0.121 0.004,-0.117 0.004,-0.242 0.016,-0.477 0.023,-0.961 0.047,-1.914 0.086,-3.832 0.004,-0.129 v -0.129 l 0.008,-0.261 0.012,-0.52 0.019,-1.039 0.043,-2.078 v -0.133 l 0.004,-0.129 0.004,-0.258 0.012,-0.519 0.019,-1.039 0.035,-2.082 0.004,-0.121 v -0.122 l 0.027,-1.695 0.032,-1.941 0.004,-0.121 v -0.121 l 0.011,-0.727 0.012,-0.969 0.027,-1.941 v -0.129 l 0.004,-0.133 0.004,-0.262 0.004,-0.527 0.012,-1.051 0.027,-2.101 v -0.266 l 0.004,-0.262 0.004,-0.523 0.012,-1.055 0.019,-2.101 v -0.121 l 0.004,-0.125 v -0.247 l 0.004,-0.488 0.008,-0.98 0.016,-1.965 v -0.125 l 0.003,-0.121 v -0.246 l 0.004,-0.489 0.008,-0.984 0.012,-1.961 v -0.484 l 0.004,-0.481 0.004,-0.961 0.004,-0.121 V 95.09 l 0.003,-0.481 0.004,-0.964 v -0.481 l 0.004,-0.48 0.004,-0.965 0.004,-1.922 0.004,-0.133 V 88.75 l 0.004,-1.043 v -0.523 l 0.004,-0.52 v -1.305 l 0.004,-0.261 V 83.27 l 0.004,-0.262 v -2.66 l 0.004,-0.121 V 66.785 l -0.004,-0.527 v -3.129 l -0.004,-2.074 v -2.071 l -0.004,-2.074 v -0.484 l -0.004,-0.485 v -0.964 l -0.004,-1.934 -0.004,-3.871 -0.012,-8.387 -0.011,-7.832 v -1.918 l -0.004,-1.918 -0.004,-3.84 v -1.039 l -0.004,-1.043 v -2.082 l -0.004,-4.164 v -0.972 l -0.004,-0.973 V 13.063 L 128.324,9.176 V 7.008 L 128.32,4.84 V 0.5"
             style="fill:none;stroke:#000000;stroke-width:2;stroke-linecap:square;stroke-linejoin:miter;stroke-miterlimit:3.25;stroke-dasharray:none;stroke-opacity:1"
             id="path22629" /></g></g><g
         id="g22631"><g
           id="g22633"
           clip-path="url(#clipPath22637)"><path
             d="m 128.32,395.484 0.114,-0.121 0.117,-0.121 0.679,-0.726 0.883,-0.969 1.672,-1.938 0.203,-0.242 0.2,-0.242 0.394,-0.484 0.762,-0.973 1.445,-1.938 0.094,-0.128 0.09,-0.133 0.187,-0.262 0.36,-0.527 0.703,-1.051 1.297,-2.102 0.078,-0.129 0.074,-0.132 0.152,-0.262 0.297,-0.527 0.567,-1.051 1.035,-2.098 0.058,-0.125 0.055,-0.121 0.328,-0.738 0.41,-0.981 0.051,-0.121 0.051,-0.125 0.097,-0.242 0.188,-0.492 0.355,-0.981 0.043,-0.121 0.043,-0.125 0.086,-0.246 0.16,-0.488 0.305,-0.981 0.035,-0.125 0.035,-0.121 0.071,-0.246 0.136,-0.488 0.254,-0.984 0.028,-0.118 0.027,-0.121 0.059,-0.242 0.105,-0.48 0.027,-0.121 0.028,-0.118 0.051,-0.242 0.093,-0.48 0.047,-0.242 0.043,-0.239 0.086,-0.48 0.149,-0.961 0.015,-0.121 0.02,-0.121 0.031,-0.243 0.062,-0.48 0.012,-0.117 0.016,-0.121 0.027,-0.242 0.047,-0.481 0.012,-0.121 0.011,-0.117 0.02,-0.242 0.012,-0.122 0.008,-0.121 0.019,-0.238 0.016,-0.242 0.015,-0.238 0.016,-0.243 0.012,-0.238 0.007,-0.133 0.004,-0.129 0.008,-0.128 0.004,-0.133 0.004,-0.129 0.004,-0.133 0.008,-0.258 0.004,-0.133 0.004,-0.129 v -0.132 l 0.003,-0.129 v -0.262 l 0.004,-0.129 v -0.523 l -0.004,-0.129 v -0.129 l -0.003,-0.133 v -0.129 l -0.004,-0.133 -0.008,-0.257 -0.004,-0.133 -0.004,-0.129 -0.004,-0.133 -0.004,-0.129 -0.012,-0.262 -0.003,-0.129 -0.008,-0.128 -0.016,-0.262 -0.004,-0.133 -0.008,-0.129 -0.019,-0.262 -0.008,-0.128 -0.008,-0.133 -0.023,-0.258 -0.043,-0.524 -0.012,-0.128 -0.012,-0.133 -0.023,-0.258 -0.055,-0.524 -0.015,-0.128 -0.016,-0.133 -0.031,-0.258 -0.067,-0.523 -0.031,-0.243 -0.035,-0.246 -0.07,-0.484 -0.157,-0.977 -0.019,-0.121 -0.024,-0.121 -0.043,-0.242 -0.085,-0.488 -0.192,-0.973 -0.027,-0.121 -0.024,-0.121 -0.05,-0.246 -0.11,-0.485 -0.222,-0.976 -0.497,-1.946 -0.039,-0.132 -0.035,-0.133 -0.074,-0.262 -0.148,-0.527 -0.313,-1.055 -0.672,-2.113 -0.047,-0.129 -0.043,-0.133 -0.089,-0.266 -0.184,-0.527 -0.375,-1.055 -0.793,-2.109 -0.047,-0.129 -0.051,-0.129 -0.101,-0.261 -0.207,-0.516 -0.422,-1.035 -0.871,-2.074 -1.867,-4.145 -3.801,-7.73 -4.375,-8.383 -4.102,-7.825 -3.867,-7.671 -3.855,-8.325 -0.055,-0.121 -0.051,-0.121 -0.316,-0.726 -0.414,-0.973 -0.805,-1.941 -1.527,-3.883 -0.051,-0.133 -0.047,-0.133 -0.102,-0.262 -0.195,-0.527 -0.383,-1.051 -0.738,-2.105 -0.043,-0.133 -0.047,-0.129 -0.086,-0.266 -0.18,-0.523 -0.343,-1.055 -0.66,-2.105 -0.313,-1.031 -0.301,-1.036 -0.57,-2.062 -0.035,-0.133 -0.035,-0.129 -0.465,-1.804 -0.492,-2.067 -0.11,-0.484 -0.109,-0.481 -0.207,-0.965 -0.395,-1.925 -0.047,-0.242 -0.046,-0.239 -0.09,-0.484 -0.176,-0.961 -0.328,-1.93 -0.02,-0.129 -0.019,-0.132 -0.043,-0.258 -0.235,-1.571 -0.019,-0.129 -0.016,-0.132 -0.039,-0.258 -0.07,-0.524 -0.137,-1.046 -0.015,-0.129 -0.016,-0.133 -0.031,-0.262 -0.063,-0.519 -0.117,-1.047 -0.012,-0.129 -0.015,-0.133 -0.028,-0.262 -0.05,-0.519 -0.102,-1.047 -0.012,-0.121 -0.008,-0.121 -0.023,-0.246 -0.039,-0.489 -0.078,-0.972 -0.008,-0.125 -0.012,-0.121 -0.015,-0.243 -0.036,-0.488 -0.062,-0.976 -0.008,-0.122 -0.004,-0.121 -0.015,-0.246 -0.028,-0.484 -0.004,-0.125 -0.007,-0.121 -0.012,-0.242 -0.024,-0.489 -0.003,-0.121 -0.008,-0.125 -0.008,-0.242 -0.02,-0.488 -0.007,-0.121 -0.004,-0.121 -0.008,-0.247 -0.016,-0.488 -0.004,-0.129 -0.015,-0.531 -0.004,-0.129 -0.008,-0.266 v -0.132 l -0.004,-0.133 -0.008,-0.262 v -0.133 l -0.004,-0.132 -0.004,-0.266 -0.003,-0.129 v -0.133 l -0.004,-0.133 v -0.265 l -0.004,-0.133 v -0.262 l -0.004,-0.133 v -0.265 l -0.004,-0.133 v -1.715 l 0.004,-0.133 v -0.394 l 0.004,-0.133 v -0.266 l 0.004,-0.132 v -0.133 l 0.004,-0.262 0.003,-0.133 v -0.133 l 0.004,-0.265 0.004,-0.129 0.004,-0.133 0.004,-0.266 0.012,-0.527 0.008,-0.258 0.003,-0.261 0.016,-0.52 0.008,-0.258 0.008,-0.262 0.019,-0.515 0.004,-0.133 0.004,-0.129 0.012,-0.258 0.019,-0.519 0.047,-1.039 0.008,-0.129 0.004,-0.129 0.016,-0.258 0.023,-0.519 0.059,-1.04 0.015,-0.257 0.016,-0.262 0.031,-0.52 0.07,-1.035 0.032,-0.484 0.035,-0.484 0.074,-0.969 0.156,-1.938 0.012,-0.121 0.008,-0.117 0.023,-0.242 0.039,-0.485 0.09,-0.968 0.188,-1.938 0.011,-0.129 0.012,-0.133 0.027,-0.261 0.055,-0.528 0.109,-1.046 0.231,-2.102 0.5,-4.195 1.031,-7.84 1.086,-7.688 1.207,-8.336 1.11,-7.781 1.144,-8.433 1.039,-8.278 0.875,-7.722 0.848,-8.375 0.695,-7.817 0.594,-7.664 0.555,-8.316 0.449,-7.758 0.418,-8.41 0.343,-7.852 0.301,-7.699 0.293,-8.352 0.254,-7.797 0.262,-8.445 0.25,-8.293 0.226,-7.738 0.247,-8.387 0.226,-7.832 0.223,-7.676 0.234,-8.328 0.207,-7.773 0.004,-0.137 0.004,-0.133 0.008,-0.273 0.011,-0.543 0.028,-1.082 0.055,-2.168 0.003,-0.137 V 4.566 l 0.008,-0.269 0.012,-0.543 0.027,-1.086 V 2.535 l 0.012,-0.41 0.012,-0.539 0.004,-0.137 V 1.313 l 0.007,-0.27 0.004,-0.137 V 0.77 l 0.004,-0.133 0.004,-0.137"
             style="fill:none;stroke:#000000;stroke-width:2;stroke-linecap:butt;stroke-linejoin:miter;stroke-miterlimit:3.25;stroke-dasharray:4, 4;stroke-dashoffset:0;stroke-opacity:1"
             id="path22639" /></g></g><g
         id="g22641"><path
           d="m 64.41,395.484 v -4"
           style="fill:none;stroke:#666666;stroke-width:0.2;stroke-linecap:butt;stroke-linejoin:miter;stroke-miterlimit:3.25;stroke-dasharray:none;stroke-opacity:1"
           id="path22643" /><text
           transform="translate(34.297998,425.64258)"
           style="font-variant:normal;font-weight:normal;font-size:30px;font-family:MathematicaSans;-inkscape-font-specification:MathematicaSans;writing-mode:lr-tb;fill:#000000;fill-opacity:1;fill-rule:nonzero;stroke:none"
           id="text22647"><tspan
             x="0"
             y="0"
             id="tspan22645">-</tspan></text><text
           transform="translate(52.777998,425.64258)"
           style="font-variant:normal;font-weight:normal;font-size:30px;font-family:Arial;-inkscape-font-specification:ArialMT;writing-mode:lr-tb;fill:#000000;fill-opacity:1;fill-rule:nonzero;stroke:none"
           id="text22651"><tspan
             x="0 16.68 24.99"
             y="0"
             sodipodi:role="line"
             id="tspan22649">0.5</tspan></text><path
           d="m 192.23,395.484 v -4"
           style="fill:none;stroke:#666666;stroke-width:0.2;stroke-linecap:butt;stroke-linejoin:miter;stroke-miterlimit:3.25;stroke-dasharray:none;stroke-opacity:1"
           id="path22653" /><text
           transform="translate(171.37739,425.64258)"
           style="font-variant:normal;font-weight:normal;font-size:30px;font-family:Arial;-inkscape-font-specification:ArialMT;writing-mode:lr-tb;fill:#000000;fill-opacity:1;fill-rule:nonzero;stroke:none"
           id="text22657"><tspan
             x="0 16.68 24.99"
             y="0"
             sodipodi:role="line"
             id="tspan22655">0.5</tspan></text><path
           d="M 0.5,395.484 H 256.141"
           style="fill:none;stroke:#666666;stroke-width:0.2;stroke-linecap:butt;stroke-linejoin:miter;stroke-miterlimit:3.25;stroke-dasharray:none;stroke-opacity:1"
           id="path22659" /><path
           d="m 128.32,395.484 h 4"
           style="fill:none;stroke:#666666;stroke-width:0.2;stroke-linecap:butt;stroke-linejoin:miter;stroke-miterlimit:3.25;stroke-dasharray:none;stroke-opacity:1"
           id="path22661" /><path
           d="m 128.32,282.633 h 4"
           style="fill:none;stroke:#666666;stroke-width:0.2;stroke-linecap:butt;stroke-linejoin:miter;stroke-miterlimit:3.25;stroke-dasharray:none;stroke-opacity:1"
           id="path22663" /><text
           transform="translate(108.63506,293.03209)"
           style="font-variant:normal;font-weight:normal;font-size:30px;font-family:Arial;-inkscape-font-specification:ArialMT;writing-mode:lr-tb;fill:#000000;fill-opacity:1;fill-rule:nonzero;stroke:none"
           id="text22667"><tspan
             x="0"
             y="0"
             id="tspan22665">2</tspan></text><path
           d="m 128.32,169.777 h 4"
           style="fill:none;stroke:#666666;stroke-width:0.2;stroke-linecap:butt;stroke-linejoin:miter;stroke-miterlimit:3.25;stroke-dasharray:none;stroke-opacity:1"
           id="path22669" /><text
           transform="translate(108.63506,180.17941)"
           style="font-variant:normal;font-weight:normal;font-size:30px;font-family:Arial;-inkscape-font-specification:ArialMT;writing-mode:lr-tb;fill:#000000;fill-opacity:1;fill-rule:nonzero;stroke:none"
           id="text22673"><tspan
             x="0"
             y="0"
             id="tspan22671">4</tspan></text><path
           d="m 128.32,56.926 h 4"
           style="fill:none;stroke:#666666;stroke-width:0.2;stroke-linecap:butt;stroke-linejoin:miter;stroke-miterlimit:3.25;stroke-dasharray:none;stroke-opacity:1"
           id="path22675" /><text
           transform="translate(108.63506,67.32673)"
           style="font-variant:normal;font-weight:normal;font-size:30px;font-family:Arial;-inkscape-font-specification:ArialMT;writing-mode:lr-tb;fill:#000000;fill-opacity:1;fill-rule:nonzero;stroke:none"
           id="text22679"><tspan
             x="0"
             y="0"
             id="tspan22677">6</tspan></text><path
           d="M 128.32,395.484 V 0.5"
           style="fill:none;stroke:#666666;stroke-width:0.2;stroke-linecap:butt;stroke-linejoin:miter;stroke-miterlimit:3.25;stroke-dasharray:none;stroke-opacity:1"
           id="path22681" /></g></g><g
       id="g22827"
       inkscape:label="2"
       transform="translate(539.90261,-0.29125354)"><g
         id="g22829" /><g
         id="g22831"><g
           id="g22833"
           clip-path="url(#clipPath22837)"><path
             d="m 64.41,395.484 0.172,-0.121 0.176,-0.121 0.344,-0.242 0.695,-0.484 1.383,-0.969 2.769,-1.938 5.504,-3.879 11.66,-8.402 10.336,-7.851 9.422,-7.692 9.234,-8.347 7.567,-7.79 0.234,-0.265 0.239,-0.262 0.468,-0.527 0.922,-1.055 1.781,-2.113 3.317,-4.219 0.097,-0.129 0.094,-0.129 0.192,-0.261 0.379,-0.516 0.746,-1.035 1.425,-2.074 0.344,-0.516 0.336,-0.52 0.664,-1.035 1.266,-2.074 0.14,-0.242 0.141,-0.238 0.281,-0.485 0.543,-0.965 1.039,-1.933 0.25,-0.485 0.243,-0.484 0.476,-0.965 0.902,-1.933 0.059,-0.129 0.059,-0.133 0.117,-0.262 0.226,-0.523 0.442,-1.047 0.828,-2.098 0.047,-0.129 0.051,-0.133 0.093,-0.261 0.192,-0.524 0.363,-1.047 0.676,-2.097 0.039,-0.121 0.035,-0.121 0.074,-0.247 0.141,-0.488 0.273,-0.98 0.035,-0.121 0.032,-0.122 0.066,-0.246 0.129,-0.488 0.242,-0.976 0.028,-0.125 0.031,-0.122 0.058,-0.246 0.11,-0.488 0.215,-0.976 0.382,-1.958 0.02,-0.121 0.023,-0.117 0.039,-0.242 0.082,-0.48 0.153,-0.957 0.019,-0.122 0.02,-0.117 0.035,-0.242 0.066,-0.48 0.125,-0.957 0.016,-0.122 0.016,-0.117 0.027,-0.242 0.055,-0.48 0.015,-0.118 0.012,-0.121 0.027,-0.238 0.047,-0.48 0.012,-0.122 0.012,-0.117 0.023,-0.242 0.043,-0.48 0.008,-0.118 0.012,-0.121 0.019,-0.238 0.035,-0.48 0.012,-0.129 0.008,-0.133 0.019,-0.258 0.032,-0.519 0.007,-0.133 0.008,-0.129 0.016,-0.262 0.023,-0.519 0.008,-0.129 0.004,-0.129 0.012,-0.262 0.004,-0.129 0.004,-0.133 0.011,-0.257 0.004,-0.129 0.004,-0.133 0.008,-0.258 0.004,-0.133 0.004,-0.129 0.004,-0.258 0.004,-0.132 v -0.129 l 0.003,-0.129 0.004,-0.133 v -0.258 l 0.004,-0.133 v -0.257 l 0.004,-0.129 v -1.043 l -0.004,-0.129 v -0.262 l -0.004,-0.129 v -0.262 l -0.007,-0.257 v -0.129 l -0.004,-0.133 v -0.129 l -0.004,-0.129 -0.008,-0.262 -0.008,-0.242 -0.004,-0.242 -0.008,-0.242 -0.011,-0.242 -0.004,-0.125 -0.012,-0.364 -0.023,-0.484 -0.004,-0.121 -0.008,-0.121 -0.012,-0.242 -0.027,-0.489 -0.059,-0.968 -0.031,-0.485 -0.035,-0.488 -0.078,-0.969 -0.008,-0.121 -0.012,-0.121 -0.019,-0.242 -0.047,-0.488 -0.094,-0.969 -0.012,-0.133 -0.015,-0.133 -0.028,-0.262 -0.054,-0.527 -0.121,-1.051 -0.266,-2.105 -0.016,-0.133 -0.019,-0.129 -0.035,-0.266 -0.075,-0.523 -0.152,-1.055 -0.328,-2.105 -0.039,-0.258 -0.129,-0.773 -0.18,-1.036 -0.371,-2.062 -0.805,-4.133 -1.667,-7.711 -1.946,-8.359 -1.84,-7.805 -1.925,-8.453 -1.747,-8.301 -1.453,-7.746 -0.023,-0.129 -0.024,-0.133 -0.046,-0.261 -0.09,-0.528 -0.18,-1.046 -0.344,-2.102 -0.648,-4.195 -0.02,-0.125 -0.019,-0.121 -0.035,-0.247 -0.071,-0.488 -0.136,-0.98 -0.27,-1.961 -0.5,-3.918 -0.012,-0.121 -0.015,-0.121 -0.028,-0.239 -0.058,-0.48 -0.11,-0.961 -0.214,-1.922 -0.024,-0.242 -0.027,-0.238 -0.051,-0.481 -0.098,-0.961 -0.187,-1.922 -0.012,-0.129 -0.015,-0.129 -0.071,-0.785 -0.094,-1.039 -0.179,-2.086 -0.008,-0.129 -0.012,-0.132 -0.023,-0.258 -0.039,-0.524 -0.082,-1.043 -0.153,-2.082 -0.007,-0.121 -0.008,-0.125 -0.016,-0.242 -0.035,-0.484 -0.063,-0.973 -0.121,-1.945 -0.004,-0.121 -0.007,-0.121 -0.016,-0.247 -0.027,-0.484 -0.055,-0.973 -0.098,-1.945 -0.015,-0.266 -0.012,-0.261 -0.07,-1.582 -0.008,-0.133 -0.004,-0.129 -0.012,-0.266 -0.023,-0.527 -0.043,-1.055 -0.004,-0.129 -0.004,-0.132 -0.012,-0.262 -0.058,-1.582 -0.067,-2.109 -0.015,-0.516 -0.016,-0.52 -0.027,-1.035 -0.008,-0.258 -0.004,-0.257 -0.016,-0.52 -0.023,-1.035 -0.004,-0.129 v -0.129 l -0.008,-0.258 -0.008,-0.519 -0.023,-1.035 v -0.129 l -0.004,-0.129 -0.012,-0.774 -0.019,-1.035 v -0.121 l -0.004,-0.121 -0.004,-0.242 -0.004,-0.481 -0.016,-0.968 v -0.239 l -0.011,-0.726 -0.008,-0.965 -0.004,-0.121 v -0.36 l -0.008,-0.484 v -0.242 l -0.004,-0.238 -0.004,-0.485 v -0.484 l -0.003,-0.481 v -0.121 l -0.004,-0.121 v -0.242 l -0.004,-0.48 v -0.657 l -0.004,-0.129 v -0.918 l -0.004,-0.129 v -1.703 l -0.004,-0.129 v -2.617 l 0.004,-0.133 v -1.437 l 0.004,-0.523 v -0.977 l 0.004,-0.121 v -0.856 l 0.004,-0.125 v -0.363 l 0.004,-0.488 0.003,-0.981 v -0.242 l 0.004,-0.246 v -0.488 l 0.024,-2.93 v -0.238 l 0.004,-0.242 0.004,-0.477 0.007,-0.961 0.016,-1.914 0.039,-3.832 v -0.129 l 0.004,-0.129 v -0.261 l 0.008,-0.52 0.035,-3.117 0.047,-4.16 0.09,-7.758 0.093,-8.41 v -0.246 l 0.004,-0.247 0.004,-0.488 0.012,-0.98 0.019,-1.965 0.036,-3.926 v -0.121 l 0.004,-0.121 v -0.242 l 0.011,-1.442 0.02,-1.925 v -0.239 l 0.004,-0.242 0.004,-0.48 0.004,-0.965 0.015,-1.922 v -0.133 l 0.004,-0.129 v -0.262 l 0.004,-0.523 0.008,-1.043 0.011,-2.086 0.004,-0.133 v -0.39 l 0.004,-0.524 0.008,-1.043 0.012,-2.086 v -0.488 l 0.004,-0.488 0.004,-0.973 0.011,-1.949 v -0.488 l 0.004,-0.489 0.004,-0.972 0.008,-1.95 v -0.261 l 0.004,-0.266 v -0.527 l 0.004,-1.055 0.008,-2.113 v -0.528 l 0.004,-0.527 0.003,-1.058 0.004,-2.11 v -0.519 l 0.004,-0.52 v -1.293 l 0.004,-0.262 v -1.812 l 0.004,-0.258 v -1.555 l 0.004,-2.074 v -0.969 l 0.004,-0.964 v -3.145 l 0.004,-0.242 v -8.313 l 0.004,-0.132 v -3.582 l -0.004,-0.247 V 28.637 l -0.004,-0.481 v -4.961 l -0.004,-2.082 -0.004,-4.164 -0.004,-7.773 V 8.09 L 128.324,7.008 V 3.754 L 128.32,2.668 V 0.5"
             style="fill:none;stroke:#000000;stroke-width:2;stroke-linecap:square;stroke-linejoin:miter;stroke-miterlimit:3.25;stroke-dasharray:none;stroke-opacity:1"
             id="path22839" /></g></g><g
         id="g22841"><g
           id="g22843"
           clip-path="url(#clipPath22847)"><path
             d="m 128.32,395.484 0.922,-0.484 0.914,-0.484 1.805,-0.969 3.527,-1.938 6.7,-3.879 0.218,-0.128 0.219,-0.133 0.438,-0.262 0.863,-0.527 1.699,-1.051 3.297,-2.102 6.183,-4.199 0.176,-0.125 0.168,-0.121 0.344,-0.246 0.68,-0.492 1.336,-0.981 2.578,-1.961 4.804,-3.925 0.141,-0.118 0.141,-0.121 0.277,-0.242 0.547,-0.48 1.078,-0.961 2.07,-1.922 0.129,-0.121 0.125,-0.121 0.246,-0.243 0.496,-0.48 0.965,-0.961 1.848,-1.922 0.121,-0.133 0.121,-0.129 0.242,-0.261 0.473,-0.52 0.922,-1.043 1.754,-2.09 0.211,-0.257 0.207,-0.262 0.41,-0.524 0.797,-1.043 1.5,-2.085 0.082,-0.122 0.086,-0.121 0.164,-0.246 0.324,-0.484 0.633,-0.977 1.179,-1.945 0.141,-0.242 0.141,-0.246 0.273,-0.485 0.524,-0.976 0.976,-1.946 0.063,-0.132 0.058,-0.133 0.125,-0.262 0.239,-0.527 0.457,-1.055 0.109,-0.266 0.105,-0.261 0.211,-0.528 0.399,-1.058 0.047,-0.129 0.14,-0.399 0.184,-0.527 0.34,-1.055 0.043,-0.132 0.039,-0.129 0.078,-0.266 0.156,-0.527 0.285,-1.055 0.032,-0.129 0.035,-0.129 0.062,-0.261 0.156,-0.645 0.028,-0.133 0.058,-0.258 0.114,-0.515 0.027,-0.133 0.027,-0.129 0.051,-0.258 0.098,-0.519 0.179,-1.035 0.079,-0.516 0.074,-0.52 0.019,-0.129 0.016,-0.128 0.035,-0.262 0.063,-0.516 0.011,-0.129 0.016,-0.133 0.027,-0.257 0.012,-0.129 0.016,-0.129 0.023,-0.258 0.012,-0.133 0.012,-0.129 0.019,-0.257 0.039,-0.52 0.016,-0.242 0.015,-0.238 0.008,-0.122 0.004,-0.121 0.012,-0.242 0.008,-0.121 0.007,-0.242 0.008,-0.121 0.012,-0.364 0.004,-0.117 v -0.121 l 0.008,-0.242 v -0.121 l 0.004,-0.121 v -0.121 l 0.004,-0.121 v -1.086 l -0.004,-0.121 v -0.121 l -0.008,-0.243 v -0.121 l -0.016,-0.484 -0.004,-0.117 -0.008,-0.243 -0.007,-0.121 -0.004,-0.121 -0.012,-0.242 -0.004,-0.121 -0.031,-0.484 -0.004,-0.118 -0.02,-0.242 -0.015,-0.242 -0.059,-0.726 -0.012,-0.129 -0.011,-0.133 -0.024,-0.262 -0.054,-0.523 -0.012,-0.129 -0.016,-0.133 -0.093,-0.785 -0.016,-0.133 -0.016,-0.129 -0.035,-0.262 -0.074,-0.523 -0.16,-1.051 -0.02,-0.129 -0.023,-0.133 -0.043,-0.261 -0.09,-0.524 -0.195,-1.047 -0.45,-2.097 -0.054,-0.242 -0.059,-0.247 -0.117,-0.488 -0.242,-0.98 -0.531,-1.953 -0.036,-0.125 -0.035,-0.122 -0.074,-0.246 -0.145,-0.488 -0.296,-0.976 -0.633,-1.958 -0.039,-0.121 -0.039,-0.117 -0.082,-0.242 -0.168,-0.48 -0.336,-0.957 -0.707,-1.918 -1.524,-3.836 -3.718,-8.325 -3.829,-7.765 -4.328,-8.422 -4.254,-8.262 -3.843,-7.711 -3.911,-8.359 -3.332,-7.805 -3.207,-8.453 -2.714,-8.301 -0.04,-0.121 -0.105,-0.363 -0.145,-0.484 -0.281,-0.969 -0.547,-1.938 -1.027,-3.871 -0.031,-0.129 -0.035,-0.133 -0.067,-0.261 -0.129,-0.528 -0.254,-1.046 -0.492,-2.102 -0.906,-4.195 -0.023,-0.125 -0.028,-0.121 -0.047,-0.247 -0.097,-0.488 -0.192,-0.98 -0.371,-1.961 -0.676,-3.918 -0.039,-0.242 -0.039,-0.239 -0.074,-0.48 -0.152,-0.961 -0.285,-1.922 -0.016,-0.121 -0.02,-0.121 -0.035,-0.238 -0.199,-1.442 -0.254,-1.922 -0.031,-0.258 -0.035,-0.261 -0.063,-0.524 -0.125,-1.039 -0.242,-2.086 -0.012,-0.129 -0.015,-0.132 -0.028,-0.258 -0.058,-0.524 -0.11,-1.043 -0.203,-2.082 -0.012,-0.121 -0.011,-0.125 -0.071,-0.726 -0.085,-0.973 -0.168,-1.945 -0.012,-0.121 -0.008,-0.121 -0.02,-0.247 -0.039,-0.484 -0.078,-0.973 -0.144,-1.945 -0.016,-0.266 -0.019,-0.261 -0.106,-1.582 -0.137,-2.11 -0.007,-0.129 -0.008,-0.132 -0.016,-0.262 -0.031,-0.527 -0.059,-1.055 -0.113,-2.109 -0.004,-0.129 -0.008,-0.129 -0.011,-0.258 -0.028,-0.52 -0.051,-1.035 -0.093,-2.07 -0.004,-0.129 -0.008,-0.129 -0.008,-0.258 -0.023,-0.519 -0.043,-1.035 -0.078,-2.067 -0.004,-0.121 -0.008,-0.121 -0.008,-0.242 -0.015,-0.481 -0.036,-0.968 -0.062,-1.93 -0.008,-0.242 -0.008,-0.239 -0.015,-0.484 -0.032,-0.965 -0.054,-1.929 -0.004,-0.133 -0.004,-0.129 -0.008,-0.262 -0.012,-0.523 -0.082,-3.141 -0.097,-4.187 -0.004,-0.122 v -0.125 l -0.008,-0.242 -0.008,-0.488 -0.023,-0.977 -0.039,-1.957 -0.079,-3.906 -0.14,-7.664 -0.152,-8.316 -0.149,-7.758 -0.168,-8.41 -0.172,-7.852 -0.179,-7.699 -0.2,-8.352 -0.191,-7.797 -0.211,-8.445 -0.207,-8.293 -0.188,-7.738 -0.203,-8.387 -0.191,-7.832 -0.188,-7.676 -0.214,-8.328 L 136.633,9.176 136.629,9.039 136.625,8.906 136.613,8.633 136.598,8.09 136.566,7.008 136.496,4.84 136.488,4.566 136.48,4.297 136.465,3.754 136.426,2.668 136.422,2.535 136.41,2.125 136.391,1.586 136.383,1.313 136.371,1.043 136.363,0.77 136.359,0.637 136.355,0.5"
             style="fill:none;stroke:#000000;stroke-width:2;stroke-linecap:butt;stroke-linejoin:miter;stroke-miterlimit:3.25;stroke-dasharray:4, 4;stroke-dashoffset:0;stroke-opacity:1"
             id="path22849" /></g></g><g
         id="g22851"><path
           d="m 64.41,395.484 v -4"
           style="fill:none;stroke:#666666;stroke-width:0.2;stroke-linecap:butt;stroke-linejoin:miter;stroke-miterlimit:3.25;stroke-dasharray:none;stroke-opacity:1"
           id="path22853" /><text
           transform="translate(34.297998,425.64258)"
           style="font-variant:normal;font-weight:normal;font-size:30px;font-family:MathematicaSans;-inkscape-font-specification:MathematicaSans;writing-mode:lr-tb;fill:#000000;fill-opacity:1;fill-rule:nonzero;stroke:none"
           id="text22857"><tspan
             x="0"
             y="0"
             id="tspan22855">-</tspan></text><text
           transform="translate(52.777998,425.64258)"
           style="font-variant:normal;font-weight:normal;font-size:30px;font-family:Arial;-inkscape-font-specification:ArialMT;writing-mode:lr-tb;fill:#000000;fill-opacity:1;fill-rule:nonzero;stroke:none"
           id="text22861"><tspan
             x="0 16.68 24.99"
             y="0"
             sodipodi:role="line"
             id="tspan22859">0.5</tspan></text><path
           d="m 192.23,395.484 v -4"
           style="fill:none;stroke:#666666;stroke-width:0.2;stroke-linecap:butt;stroke-linejoin:miter;stroke-miterlimit:3.25;stroke-dasharray:none;stroke-opacity:1"
           id="path22863" /><text
           transform="translate(171.37739,425.64258)"
           style="font-variant:normal;font-weight:normal;font-size:30px;font-family:Arial;-inkscape-font-specification:ArialMT;writing-mode:lr-tb;fill:#000000;fill-opacity:1;fill-rule:nonzero;stroke:none"
           id="text22867"><tspan
             x="0 16.68 24.99"
             y="0"
             sodipodi:role="line"
             id="tspan22865">0.5</tspan></text><path
           d="M 0.5,395.484 H 256.141"
           style="fill:none;stroke:#666666;stroke-width:0.2;stroke-linecap:butt;stroke-linejoin:miter;stroke-miterlimit:3.25;stroke-dasharray:none;stroke-opacity:1"
           id="path22869" /><path
           d="m 128.32,395.484 h 4"
           style="fill:none;stroke:#666666;stroke-width:0.2;stroke-linecap:butt;stroke-linejoin:miter;stroke-miterlimit:3.25;stroke-dasharray:none;stroke-opacity:1"
           id="path22871" /><path
           d="m 128.32,282.633 h 4"
           style="fill:none;stroke:#666666;stroke-width:0.2;stroke-linecap:butt;stroke-linejoin:miter;stroke-miterlimit:3.25;stroke-dasharray:none;stroke-opacity:1"
           id="path22873" /><text
           transform="translate(108.63506,293.03209)"
           style="font-variant:normal;font-weight:normal;font-size:30px;font-family:Arial;-inkscape-font-specification:ArialMT;writing-mode:lr-tb;fill:#000000;fill-opacity:1;fill-rule:nonzero;stroke:none"
           id="text22877"><tspan
             x="0"
             y="0"
             id="tspan22875">2</tspan></text><path
           d="m 128.32,169.777 h 4"
           style="fill:none;stroke:#666666;stroke-width:0.2;stroke-linecap:butt;stroke-linejoin:miter;stroke-miterlimit:3.25;stroke-dasharray:none;stroke-opacity:1"
           id="path22879" /><text
           transform="translate(108.63506,180.17941)"
           style="font-variant:normal;font-weight:normal;font-size:30px;font-family:Arial;-inkscape-font-specification:ArialMT;writing-mode:lr-tb;fill:#000000;fill-opacity:1;fill-rule:nonzero;stroke:none"
           id="text22883"><tspan
             x="0"
             y="0"
             id="tspan22881">4</tspan></text><path
           d="m 128.32,56.926 h 4"
           style="fill:none;stroke:#666666;stroke-width:0.2;stroke-linecap:butt;stroke-linejoin:miter;stroke-miterlimit:3.25;stroke-dasharray:none;stroke-opacity:1"
           id="path22885" /><text
           transform="translate(108.63506,67.32673)"
           style="font-variant:normal;font-weight:normal;font-size:30px;font-family:Arial;-inkscape-font-specification:ArialMT;writing-mode:lr-tb;fill:#000000;fill-opacity:1;fill-rule:nonzero;stroke:none"
           id="text22889"><tspan
             x="0"
             y="0"
             id="tspan22887">6</tspan></text><path
           d="M 128.32,395.484 V 0.5"
           style="fill:none;stroke:#666666;stroke-width:0.2;stroke-linecap:butt;stroke-linejoin:miter;stroke-miterlimit:3.25;stroke-dasharray:none;stroke-opacity:1"
           id="path22891" /></g></g><g
       id="g22932"
       inkscape:label="3"
       transform="translate(809.5)"><g
         id="g22934" /><g
         id="g22936"><g
           id="g22938"
           clip-path="url(#clipPath22942)"><path
             d="m 0.5,395.484 0.172,-0.121 0.176,-0.121 0.343,-0.242 0.696,-0.484 1.386,-0.969 2.77,-1.938 5.543,-3.879 11.996,-8.402 11.129,-7.851 10.758,-7.692 11.394,-8.347 10.258,-7.79 10.567,-8.441 9.679,-8.289 8.309,-7.73 8.125,-8.383 6.687,-7.825 5.688,-7.671 0.09,-0.129 0.089,-0.133 0.176,-0.258 0.348,-0.519 0.691,-1.043 1.328,-2.079 2.465,-4.164 0.071,-0.121 0.066,-0.121 0.137,-0.242 0.265,-0.484 0.528,-0.973 1.008,-1.941 0.125,-0.243 0.121,-0.242 0.242,-0.488 0.472,-0.969 0.903,-1.941 0.058,-0.133 0.063,-0.133 0.117,-0.262 0.231,-0.527 0.453,-1.051 0.863,-2.105 0.051,-0.133 0.054,-0.129 0.102,-0.266 0.203,-0.523 0.395,-1.055 0.746,-2.105 0.086,-0.258 0.09,-0.258 0.167,-0.515 0.336,-1.036 0.625,-2.062 0.036,-0.133 0.039,-0.129 0.074,-0.258 0.144,-0.515 0.282,-1.031 0.523,-2.067 0.031,-0.121 0.028,-0.121 0.058,-0.242 0.114,-0.481 0.218,-0.965 0.407,-1.925 0.046,-0.242 0.047,-0.239 0.094,-0.484 0.18,-0.961 0.328,-1.93 0.023,-0.129 0.02,-0.132 0.043,-0.258 0.078,-0.524 0.152,-1.047 0.02,-0.129 0.019,-0.132 0.035,-0.258 0.071,-0.524 0.133,-1.046 0.015,-0.129 0.016,-0.133 0.031,-0.262 0.063,-0.519 0.113,-1.047 0.012,-0.129 0.015,-0.133 0.024,-0.262 0.05,-0.519 0.098,-1.047 0.008,-0.121 0.012,-0.121 0.019,-0.246 0.043,-0.489 0.07,-0.972 0.012,-0.125 0.024,-0.364 0.093,-1.464 0.004,-0.122 0.008,-0.121 0.012,-0.246 0.027,-0.484 0.004,-0.125 0.008,-0.121 0.012,-0.242 0.023,-0.489 0.004,-0.121 0.004,-0.125 0.012,-0.242 0.019,-0.488 0.008,-0.242 0.008,-0.247 0.015,-0.488 0.004,-0.129 0.016,-0.531 0.004,-0.129 0.004,-0.266 0.007,-0.265 0.004,-0.262 0.008,-0.265 0.004,-0.266 v -0.129 l 0.004,-0.133 0.004,-0.265 v -0.133 l 0.004,-0.133 0.004,-0.262 v -0.265 l 0.004,-0.133 v -0.395 l 0.004,-0.133 v -1.98 l -0.004,-0.133 v -0.398 l -0.004,-0.129 v -0.399 l -0.004,-0.265 -0.004,-0.129 V 235 l -0.004,-0.266 -0.004,-0.132 v -0.129 l -0.004,-0.266 -0.004,-0.129 v -0.129 l -0.008,-0.261 -0.007,-0.52 -0.008,-0.258 -0.004,-0.262 -0.016,-0.515 -0.004,-0.133 -0.011,-0.387 -0.047,-1.558 -0.008,-0.129 -0.012,-0.387 -0.019,-0.519 -0.043,-1.04 -0.008,-0.128 -0.004,-0.129 -0.012,-0.262 -0.027,-0.52 -0.051,-1.035 -0.004,-0.121 -0.007,-0.121 -0.036,-0.726 -0.054,-0.969 -0.118,-1.938 -0.257,-3.871 -0.012,-0.129 -0.008,-0.133 -0.019,-0.261 -0.039,-0.528 -0.079,-1.046 -0.16,-2.102 -0.343,-4.195 -0.676,-7.84 -0.672,-7.688 -0.695,-8.336 -0.586,-7.781 -0.008,-0.133 -0.012,-0.133 -0.016,-0.261 -0.039,-0.528 -0.211,-3.164 -0.261,-4.214 -0.032,-0.516 -0.031,-0.52 -0.058,-1.035 -0.114,-2.07 -0.015,-0.258 -0.012,-0.258 -0.027,-0.519 -0.051,-1.035 -0.102,-2.067 -0.007,-0.121 -0.004,-0.121 -0.012,-0.242 -0.024,-0.481 -0.043,-0.968 -0.085,-1.93 -0.008,-0.242 -0.012,-0.239 -0.02,-0.484 -0.039,-0.965 -0.074,-1.929 -0.004,-0.133 -0.004,-0.129 -0.011,-0.262 -0.016,-0.523 -0.039,-1.047 -0.066,-2.094 -0.004,-0.133 -0.004,-0.129 -0.012,-0.261 -0.047,-1.571 -0.055,-2.093 -0.003,-0.122 -0.004,-0.125 -0.008,-0.242 -0.035,-1.465 -0.047,-1.957 v -0.121 l -0.004,-0.121 -0.004,-0.246 -0.012,-0.488 -0.058,-2.93 v -0.121 l -0.004,-0.117 -0.004,-0.242 -0.008,-0.477 -0.016,-0.961 -0.003,-0.117 v -0.121 l -0.004,-0.238 -0.008,-0.481 -0.016,-0.957 v -0.238 l -0.004,-0.242 -0.008,-0.477 -0.011,-0.957 -0.024,-1.918 -0.004,-0.129 v -0.129 l -0.003,-0.261 -0.004,-0.52 -0.012,-1.039 v -0.262 l -0.004,-0.258 -0.012,-1.558 -0.004,-0.133 v -0.387 l -0.011,-1.558 -0.004,-0.133 v -0.391 l -0.004,-0.519 -0.004,-1.039 -0.004,-0.121 v -0.364 l -0.004,-0.484 v -0.484 l -0.004,-0.485 v -0.484 l -0.004,-0.485 -0.004,-0.972 v -0.969 l -0.004,-0.121 v -1.574 l -0.003,-0.246 v -2.809 l -0.004,-0.129 v -3.023 l 0.004,-0.262 v -3.402 l 0.003,-0.247 v -1.714 l 0.004,-0.246 v -1.473 l 0.004,-0.125 v -0.856 l 0.004,-0.984 0.004,-1.961 v -0.121 l 0.004,-0.121 v -0.723 l 0.004,-0.961 0.008,-1.925 0.015,-3.848 0.032,-8.352 0.035,-7.797 v -0.527 l 0.004,-0.527 0.004,-1.055 0.007,-2.113 0.016,-4.223 v -1.039 l 0.004,-1.035 0.008,-2.074 v -0.516 l 0.004,-0.519 0.004,-1.036 0.003,-2.074 v -0.484 l 0.004,-0.485 v -0.964 l 0.008,-1.934 v -0.969 l 0.004,-0.965 0.004,-1.937 v -1.047 l 0.004,-1.047 0.004,-2.098 v -1.05 l 0.004,-1.047 v -2.219 l 0.004,-0.125 v -2.691 l 0.004,-0.977 v -1.957 l 0.003,-1.961 v -4.797 l 0.004,-0.961 V 0.5"
             style="fill:none;stroke:#000000;stroke-width:2;stroke-linecap:square;stroke-linejoin:miter;stroke-miterlimit:3.25;stroke-dasharray:none;stroke-opacity:1"
             id="path22944" /></g></g><g
         id="g22946"><g
           id="g22948"
           clip-path="url(#clipPath22952)"><path
             d="m 128.32,395.484 0.114,-0.121 0.117,-0.121 0.23,-0.242 0.465,-0.484 0.926,-0.969 1.848,-1.938 3.703,-3.879 7.98,-8.402 7.328,-7.851 6.946,-7.692 7.121,-8.347 6.109,-7.79 5.887,-8.441 0.086,-0.129 0.082,-0.129 0.168,-0.261 0.328,-0.516 0.648,-1.035 1.258,-2.074 2.34,-4.145 0.062,-0.121 0.067,-0.121 0.129,-0.238 0.254,-0.485 0.496,-0.965 0.957,-1.933 0.117,-0.242 0.34,-0.727 0.445,-0.965 0.848,-1.933 0.054,-0.129 0.055,-0.133 0.328,-0.785 0.418,-1.047 0.793,-2.098 0.047,-0.129 0.047,-0.133 0.094,-0.261 0.183,-0.524 0.352,-1.047 0.66,-2.097 0.035,-0.121 0.039,-0.121 0.071,-0.247 0.14,-0.488 0.27,-0.98 0.035,-0.121 0.031,-0.122 0.067,-0.246 0.125,-0.488 0.242,-0.976 0.027,-0.125 0.031,-0.122 0.059,-0.246 0.109,-0.488 0.215,-0.976 0.383,-1.958 0.023,-0.121 0.02,-0.117 0.043,-0.242 0.082,-0.48 0.156,-0.957 0.02,-0.122 0.015,-0.117 0.035,-0.242 0.071,-0.48 0.129,-0.957 0.015,-0.122 0.012,-0.117 0.031,-0.242 0.055,-0.48 0.012,-0.118 0.015,-0.121 0.024,-0.238 0.051,-0.48 0.011,-0.122 0.012,-0.117 0.023,-0.242 0.043,-0.48 0.008,-0.118 0.012,-0.121 0.019,-0.238 0.036,-0.48 0.007,-0.129 0.012,-0.133 0.016,-0.258 0.008,-0.133 0.023,-0.386 0.008,-0.133 0.008,-0.129 0.015,-0.262 0.024,-0.519 0.004,-0.129 0.007,-0.129 0.008,-0.262 0.004,-0.129 0.008,-0.133 0.012,-0.386 0.004,-0.133 v -0.129 l 0.003,-0.129 0.004,-0.133 0.004,-0.129 v -0.129 l 0.004,-0.129 v -0.132 l 0.004,-0.129 v -0.262 l 0.004,-0.129 v -1.039 l -0.004,-0.133 v -0.258 l -0.004,-0.132 v -0.129 l -0.004,-0.129 v -0.129 l -0.004,-0.133 v -0.129 l -0.007,-0.262 -0.008,-0.257 -0.008,-0.262 -0.008,-0.258 -0.008,-0.262 -0.008,-0.121 -0.011,-0.363 -0.024,-0.484 -0.007,-0.125 -0.008,-0.121 -0.012,-0.243 -0.027,-0.484 -0.032,-0.484 -0.035,-0.489 -0.078,-0.968 -0.008,-0.122 -0.035,-0.363 -0.043,-0.488 -0.101,-0.969 -0.012,-0.121 -0.016,-0.121 -0.023,-0.242 -0.059,-0.488 -0.121,-0.969 -0.031,-0.266 -0.035,-0.262 -0.074,-0.527 -0.153,-1.051 -0.344,-2.105 -0.023,-0.133 -0.023,-0.129 -0.047,-0.266 -0.094,-0.523 -0.199,-1.055 -0.43,-2.105 -0.109,-0.516 -0.114,-0.515 -0.234,-1.036 -0.496,-2.062 -1.09,-4.133 -0.07,-0.242 -0.067,-0.242 -0.136,-0.481 -0.278,-0.965 -0.574,-1.925 -1.211,-3.856 -2.863,-8.359 -2.863,-7.805 -3.184,-8.453 -3.106,-8.301 -2.8,-7.746 -2.86,-8.394 -2.465,-7.84 -2.199,-7.688 -2.133,-8.336 -1.753,-7.781 -1.657,-8.433 -1.398,-8.278 -1.129,-7.722 -1.051,-8.375 -0.855,-7.817 -0.735,-7.664 -0.707,-8.316 -0.597,-7.758 -0.59,-8.41 -0.516,-7.852 -0.476,-7.699 -0.496,-8.352 -0.446,-7.797 -0.472,-8.445 -0.454,-8.293 -0.414,-7.738 -0.449,-8.387 -0.418,-7.832 -0.41,-7.676 -0.449,-8.328 -0.43,-7.773 L 144.863,9.039 144.855,8.906 144.84,8.633 144.813,8.09 144.75,7.008 144.633,4.84 144.617,4.566 144.602,4.297 144.57,3.754 144.512,2.668 144.504,2.535 144.48,2.125 144.449,1.586 144.434,1.313 144.418,1.043 144.402,0.77 144.398,0.637 144.391,0.5"
             style="fill:none;stroke:#000000;stroke-width:2;stroke-linecap:butt;stroke-linejoin:miter;stroke-miterlimit:3.25;stroke-dasharray:4, 4;stroke-dashoffset:0;stroke-opacity:1"
             id="path22954" /></g></g><g
         id="g22956"><path
           d="m 64.41,395.484 v -4"
           style="fill:none;stroke:#666666;stroke-width:0.2;stroke-linecap:butt;stroke-linejoin:miter;stroke-miterlimit:3.25;stroke-dasharray:none;stroke-opacity:1"
           id="path22958" /><text
           transform="translate(34.297998,425.64258)"
           style="font-variant:normal;font-weight:normal;font-size:30px;font-family:MathematicaSans;-inkscape-font-specification:MathematicaSans;writing-mode:lr-tb;fill:#000000;fill-opacity:1;fill-rule:nonzero;stroke:none"
           id="text22962"><tspan
             x="0"
             y="0"
             id="tspan22960">-</tspan></text><text
           transform="translate(52.777998,425.64258)"
           style="font-variant:normal;font-weight:normal;font-size:30px;font-family:Arial;-inkscape-font-specification:ArialMT;writing-mode:lr-tb;fill:#000000;fill-opacity:1;fill-rule:nonzero;stroke:none"
           id="text22966"><tspan
             x="0 16.68 24.99"
             y="0"
             sodipodi:role="line"
             id="tspan22964">0.5</tspan></text><path
           d="m 192.23,395.484 v -4"
           style="fill:none;stroke:#666666;stroke-width:0.2;stroke-linecap:butt;stroke-linejoin:miter;stroke-miterlimit:3.25;stroke-dasharray:none;stroke-opacity:1"
           id="path22968" /><text
           transform="translate(171.37739,425.64258)"
           style="font-variant:normal;font-weight:normal;font-size:30px;font-family:Arial;-inkscape-font-specification:ArialMT;writing-mode:lr-tb;fill:#000000;fill-opacity:1;fill-rule:nonzero;stroke:none"
           id="text22972"><tspan
             x="0 16.68 24.99"
             y="0"
             sodipodi:role="line"
             id="tspan22970">0.5</tspan></text><path
           d="M 0.5,395.484 H 256.141"
           style="fill:none;stroke:#666666;stroke-width:0.2;stroke-linecap:butt;stroke-linejoin:miter;stroke-miterlimit:3.25;stroke-dasharray:none;stroke-opacity:1"
           id="path22974" /><path
           d="m 128.32,395.484 h 4"
           style="fill:none;stroke:#666666;stroke-width:0.2;stroke-linecap:butt;stroke-linejoin:miter;stroke-miterlimit:3.25;stroke-dasharray:none;stroke-opacity:1"
           id="path22976" /><path
           d="m 128.32,282.633 h 4"
           style="fill:none;stroke:#666666;stroke-width:0.2;stroke-linecap:butt;stroke-linejoin:miter;stroke-miterlimit:3.25;stroke-dasharray:none;stroke-opacity:1"
           id="path22978" /><text
           transform="translate(108.63506,293.03209)"
           style="font-variant:normal;font-weight:normal;font-size:30px;font-family:Arial;-inkscape-font-specification:ArialMT;writing-mode:lr-tb;fill:#000000;fill-opacity:1;fill-rule:nonzero;stroke:none"
           id="text22982"><tspan
             x="0"
             y="0"
             id="tspan22980">2</tspan></text><path
           d="m 128.32,169.777 h 4"
           style="fill:none;stroke:#666666;stroke-width:0.2;stroke-linecap:butt;stroke-linejoin:miter;stroke-miterlimit:3.25;stroke-dasharray:none;stroke-opacity:1"
           id="path22984" /><text
           transform="translate(108.63506,180.17941)"
           style="font-variant:normal;font-weight:normal;font-size:30px;font-family:Arial;-inkscape-font-specification:ArialMT;writing-mode:lr-tb;fill:#000000;fill-opacity:1;fill-rule:nonzero;stroke:none"
           id="text22988"><tspan
             x="0"
             y="0"
             id="tspan22986">4</tspan></text><path
           d="m 128.32,56.926 h 4"
           style="fill:none;stroke:#666666;stroke-width:0.2;stroke-linecap:butt;stroke-linejoin:miter;stroke-miterlimit:3.25;stroke-dasharray:none;stroke-opacity:1"
           id="path22990" /><text
           transform="translate(108.63506,67.32673)"
           style="font-variant:normal;font-weight:normal;font-size:30px;font-family:Arial;-inkscape-font-specification:ArialMT;writing-mode:lr-tb;fill:#000000;fill-opacity:1;fill-rule:nonzero;stroke:none"
           id="text22994"><tspan
             x="0"
             y="0"
             id="tspan22992">6</tspan></text><path
           d="M 128.32,395.484 V 0.5"
           style="fill:none;stroke:#666666;stroke-width:0.2;stroke-linecap:butt;stroke-linejoin:miter;stroke-miterlimit:3.25;stroke-dasharray:none;stroke-opacity:1"
           id="path22996" /></g></g><g
       id="g23037"
       inkscape:label="4"
       transform="translate(1079.5739,-0.53029956)"><g
         id="g23039" /><g
         id="g23041"><g
           id="g23043"
           clip-path="url(#clipPath23047)"><path
             d="m 64.41,395.484 v -2.785 l 0.004,-0.121 v -0.969 l 0.004,-0.121 v -0.605 l 0.004,-0.242 v -0.246 l 0.004,-0.243 v -0.242 l 0.004,-0.242 v -0.242 l 0.004,-0.242 0.004,-0.121 v -0.122 l 0.003,-0.242 v -0.121 l 0.004,-0.121 v -0.242 l 0.008,-0.485 0.004,-0.128 0.004,-0.133 0.004,-0.262 0.012,-0.527 v -0.129 l 0.003,-0.133 0.008,-0.262 0.012,-0.527 0.004,-0.129 0.004,-0.133 0.008,-0.262 0.015,-0.527 0.004,-0.129 0.004,-0.133 0.012,-0.261 0.019,-0.528 0.004,-0.129 0.008,-0.132 0.008,-0.262 0.023,-0.527 0.008,-0.129 0.004,-0.133 0.012,-0.262 0.027,-0.527 0.008,-0.129 0.008,-0.133 0.015,-0.262 0.028,-0.527 0.066,-1.047 0.012,-0.125 0.008,-0.121 0.015,-0.246 0.035,-0.492 0.079,-0.981 0.011,-0.121 0.012,-0.125 0.019,-0.242 0.043,-0.492 0.094,-0.981 0.012,-0.121 0.012,-0.125 0.027,-0.246 0.051,-0.488 0.113,-0.981 0.246,-1.964 0.016,-0.118 0.015,-0.121 0.036,-0.242 0.21,-1.441 0.317,-1.922 0.023,-0.121 0.02,-0.121 0.043,-0.243 0.086,-0.48 0.183,-0.961 0.391,-1.922 0.027,-0.133 0.032,-0.129 0.054,-0.261 0.117,-0.52 0.243,-1.043 0.515,-2.09 0.032,-0.129 0.035,-0.128 0.07,-0.262 0.137,-0.524 0.289,-1.043 0.609,-2.085 0.078,-0.243 0.074,-0.246 0.153,-0.484 0.308,-0.977 0.653,-1.945 1.426,-3.895 0.101,-0.265 0.106,-0.262 0.207,-0.527 0.421,-1.055 0.883,-2.113 1.883,-4.219 4.145,-8.289 4.289,-7.73 4.968,-8.383 4.801,-7.825 4.727,-7.671 5.004,-8.325 4.441,-7.765 4.453,-8.422 3.93,-8.262 3.219,-7.711 0.05,-0.129 0.051,-0.132 0.102,-0.258 0.199,-0.524 0.395,-1.047 0.757,-2.089 1.422,-4.18 0.078,-0.242 0.078,-0.246 0.157,-0.489 0.304,-0.972 0.586,-1.953 0.071,-0.243 0.07,-0.246 0.141,-0.484 0.277,-0.977 0.527,-1.953 0.035,-0.129 0.106,-0.398 0.133,-0.528 0.269,-1.058 0.508,-2.113 0.031,-0.133 0.032,-0.129 0.058,-0.266 0.121,-0.527 0.235,-1.059 0.445,-2.113 0.023,-0.129 0.028,-0.129 0.051,-0.261 0.105,-0.52 0.199,-1.035 0.375,-2.078 0.047,-0.258 0.043,-0.258 0.09,-0.519 0.172,-1.04 0.32,-2.074 0.02,-0.121 0.015,-0.121 0.106,-0.726 0.136,-0.969 0.254,-1.938 0.016,-0.121 0.016,-0.117 0.027,-0.242 0.176,-1.453 0.211,-1.938 0.011,-0.129 0.016,-0.133 0.027,-0.261 0.051,-0.528 0.102,-1.046 0.011,-0.133 0.012,-0.129 0.024,-0.266 0.046,-0.523 0.09,-1.051 0.012,-0.129 0.012,-0.133 0.019,-0.261 0.043,-0.524 0.078,-1.051 0.141,-2.097 0.008,-0.125 0.008,-0.121 0.015,-0.247 0.031,-0.488 0.055,-0.98 0.008,-0.121 0.004,-0.125 0.015,-0.246 0.024,-0.489 0.051,-0.98 0.004,-0.121 0.004,-0.125 0.011,-0.243 0.024,-0.492 0.039,-0.98 0.004,-0.121 0.007,-0.121 0.008,-0.246 0.02,-0.489 0.031,-0.98 0.008,-0.242 0.008,-0.239 0.015,-0.48 0.008,-0.242 0.004,-0.239 0.016,-0.48 v -0.121 l 0.004,-0.121 0.007,-0.239 0.012,-0.48 0.02,-0.961 v -0.121 l 0.004,-0.121 0.003,-0.238 0.008,-0.481 0.004,-0.121 v -0.117 l 0.004,-0.242 0.008,-0.481 0.004,-0.121 v -0.117 l 0.004,-0.242 v -0.121 l 0.004,-0.118 v -0.242 l 0.003,-0.121 v -0.117 l 0.004,-0.242 0.004,-0.481 v -0.258 l 0.004,-0.261 v -0.262 l 0.004,-0.262 v -0.519 l 0.004,-0.129 v -1.043 l 0.004,-0.133 v -1.43 l -0.004,-0.132 v -1.043 l -0.004,-0.258 v -0.524 l -0.004,-0.129 v -0.519 l -0.004,-0.133 v -0.39 l -0.004,-0.129 v -0.262 l -0.007,-0.52 v -0.246 l -0.004,-0.242 -0.004,-0.484 -0.012,-0.973 -0.004,-0.121 v -0.121 l -0.004,-0.246 -0.008,-0.485 -0.015,-0.972 v -0.121 l -0.004,-0.121 -0.004,-0.247 -0.008,-0.484 -0.058,-2.918 -0.004,-0.133 v -0.133 l -0.008,-0.261 -0.035,-1.582 -0.055,-2.11 -0.113,-4.214 -0.016,-0.516 -0.016,-0.52 -0.093,-3.105 -0.133,-4.137 -0.246,-7.722 -0.258,-8.375 -0.219,-7.817 v -0.121 l -0.004,-0.117 -0.007,-0.242 -0.012,-0.477 -0.024,-0.961 -0.046,-1.914 -0.086,-3.832 -0.008,-0.258 -0.004,-0.261 -0.035,-1.559 -0.039,-2.078 -0.004,-0.133 v -0.129 l -0.008,-0.258 -0.008,-0.519 -0.019,-1.039 -0.039,-2.082 v -0.121 l -0.004,-0.122 -0.028,-1.695 -0.027,-1.941 -0.004,-0.121 v -0.121 l -0.027,-1.696 -0.024,-1.941 -0.004,-0.129 v -0.133 l -0.004,-0.262 -0.007,-0.527 -0.036,-3.152 v -0.133 l -0.003,-0.133 v -0.262 l -0.008,-0.523 -0.008,-1.055 -0.02,-2.101 -0.004,-0.121 v -0.125 l -0.003,-0.247 -0.004,-0.488 -0.008,-0.98 -0.016,-1.965 v -0.492 l -0.004,-0.489 -0.007,-0.984 -0.012,-1.961 v -0.242 l -0.004,-0.242 v -0.481 l -0.008,-0.961 v -0.48 l -0.004,-0.481 -0.004,-0.964 v -0.239 l -0.004,-0.242 v -0.48 l -0.004,-0.965 -0.007,-1.922 v -0.524 l -0.004,-0.523 v -1.172 l -0.004,-0.133 v -0.781 l -0.004,-1.043 v -1.566 l -0.004,-0.524 v -1.043 l -0.004,-1.043 v -4.507 l -0.004,-0.122 v -6.07 l 0.004,-0.266 v -5.539 l 0.004,-0.257 v -1.555 l 0.004,-2.074 v -2.071 l 0.004,-2.074 v -1.933 l 0.004,-1.934 0.008,-3.871 0.011,-8.387 0.008,-7.832 v -0.238 l 0.004,-0.238 v -1.442 l 0.004,-1.918 0.004,-3.84 v -2.082 l 0.004,-2.082 0.004,-4.164 v -1.945 l 0.004,-1.941 V 8.633 L 128.316,8.09 V 3.754 L 128.32,2.668 V 0.5"
             style="fill:none;stroke:#000000;stroke-width:2;stroke-linecap:square;stroke-linejoin:miter;stroke-miterlimit:3.25;stroke-dasharray:none;stroke-opacity:1"
             id="path23049" /></g></g><g
         id="g23051"><g
           id="g23053"
           clip-path="url(#clipPath23057)"><path
             d="m 128.32,395.484 -0.117,-0.121 -0.113,-0.121 -0.231,-0.242 -0.449,-0.484 -0.883,-0.969 -1.675,-1.938 -0.102,-0.121 -0.098,-0.121 -0.199,-0.242 -0.394,-0.484 -0.766,-0.973 -1.441,-1.938 -0.094,-0.128 -0.094,-0.133 -0.184,-0.262 -0.363,-0.527 -0.699,-1.051 -1.301,-2.102 -0.074,-0.129 -0.078,-0.132 -0.149,-0.262 -0.296,-0.527 -0.567,-1.051 -1.039,-2.098 -0.055,-0.125 -0.054,-0.121 -0.114,-0.246 -0.214,-0.492 -0.414,-0.981 -0.047,-0.121 -0.051,-0.125 -0.098,-0.242 -0.187,-0.492 -0.36,-0.981 -0.043,-0.121 -0.043,-0.125 -0.082,-0.246 -0.16,-0.488 -0.304,-0.981 -0.04,-0.125 -0.035,-0.121 -0.07,-0.246 -0.133,-0.488 -0.254,-0.984 -0.027,-0.118 -0.031,-0.121 -0.055,-0.242 -0.109,-0.48 -0.024,-0.121 -0.027,-0.118 -0.051,-0.242 -0.094,-0.48 -0.047,-0.242 -0.043,-0.239 -0.085,-0.48 -0.149,-0.961 -0.019,-0.121 -0.047,-0.364 -0.063,-0.48 -0.012,-0.117 -0.015,-0.121 -0.028,-0.242 -0.046,-0.481 -0.012,-0.121 -0.012,-0.117 -0.023,-0.242 -0.008,-0.122 -0.012,-0.121 -0.015,-0.238 -0.008,-0.121 -0.012,-0.121 -0.016,-0.238 -0.003,-0.121 -0.008,-0.122 -0.012,-0.238 -0.008,-0.133 -0.008,-0.129 -0.004,-0.128 -0.003,-0.133 -0.004,-0.129 -0.008,-0.133 -0.004,-0.129 v -0.129 l -0.004,-0.133 -0.004,-0.129 -0.004,-0.132 v -0.129 l -0.004,-0.129 v -0.914 l 0.004,-0.129 v -0.133 l 0.004,-0.129 0.004,-0.133 v -0.129 l 0.004,-0.128 0.004,-0.133 0.004,-0.129 0.004,-0.133 0.007,-0.129 0.008,-0.262 0.016,-0.257 0.012,-0.262 0.007,-0.133 0.008,-0.129 0.016,-0.262 0.012,-0.128 0.007,-0.133 0.02,-0.258 0.043,-0.524 0.012,-0.128 0.011,-0.133 0.028,-0.258 0.054,-0.524 0.016,-0.128 0.016,-0.133 0.031,-0.258 0.062,-0.523 0.02,-0.122 0.016,-0.121 0.031,-0.246 0.074,-0.484 0.156,-0.977 0.039,-0.242 0.043,-0.242 0.09,-0.488 0.192,-0.973 0.023,-0.121 0.027,-0.121 0.051,-0.246 0.106,-0.485 0.226,-0.976 0.496,-1.946 0.035,-0.132 0.039,-0.133 0.071,-0.262 0.152,-0.527 0.313,-1.055 0.671,-2.113 0.043,-0.129 0.047,-0.133 0.09,-0.266 0.18,-0.527 0.375,-1.055 0.793,-2.109 0.101,-0.258 0.102,-0.261 0.207,-0.516 0.418,-1.035 0.875,-2.074 1.867,-4.145 3.801,-7.73 4.371,-8.383 4.105,-7.825 3.868,-7.671 3.855,-8.325 0.051,-0.121 0.055,-0.121 0.316,-0.726 0.414,-0.973 0.805,-1.941 1.527,-3.883 0.047,-0.133 0.051,-0.133 0.097,-0.262 0.196,-0.527 0.383,-1.051 0.738,-2.105 0.047,-0.133 0.043,-0.129 0.089,-0.266 0.176,-0.523 0.348,-1.055 0.66,-2.105 0.156,-0.516 0.153,-0.515 0.3,-1.036 0.575,-2.062 0.031,-0.133 0.105,-0.387 0.133,-0.515 0.262,-1.031 0.496,-2.067 0.109,-0.484 0.106,-0.481 0.211,-0.965 0.394,-1.925 0.047,-0.242 0.043,-0.239 0.094,-0.484 0.176,-0.961 0.324,-1.93 0.023,-0.129 0.02,-0.132 0.039,-0.258 0.082,-0.524 0.156,-1.047 0.016,-0.129 0.019,-0.132 0.036,-0.258 0.074,-0.524 0.133,-1.046 0.015,-0.129 0.02,-0.133 0.031,-0.262 0.059,-0.519 0.117,-1.047 0.015,-0.129 0.016,-0.133 0.027,-0.262 0.051,-0.519 0.098,-1.047 0.023,-0.242 0.02,-0.246 0.043,-0.489 0.078,-0.972 0.008,-0.125 0.007,-0.121 0.02,-0.243 0.035,-0.488 0.059,-0.976 0.015,-0.243 0.016,-0.246 0.023,-0.484 0.008,-0.125 0.008,-0.121 0.012,-0.242 0.023,-0.489 0.004,-0.121 0.004,-0.125 0.012,-0.242 0.019,-0.488 0.008,-0.242 0.012,-0.247 0.015,-0.488 0.004,-0.129 0.016,-0.531 0.004,-0.129 0.004,-0.266 0.008,-0.265 0.004,-0.262 0.003,-0.133 v -0.132 l 0.008,-0.266 v -0.129 l 0.004,-0.133 v -0.133 l 0.004,-0.132 v -0.266 l 0.004,-0.129 v -0.266 l 0.004,-0.132 v -0.528 l 0.004,-0.133 v -1.058 l -0.004,-0.129 v -0.531 l -0.004,-0.129 v -0.133 l -0.004,-0.266 v -0.132 l -0.004,-0.133 v -0.262 l -0.008,-0.266 -0.004,-0.265 v -0.129 l -0.003,-0.133 -0.004,-0.266 -0.012,-0.527 -0.008,-0.258 -0.008,-0.261 -0.015,-0.52 -0.008,-0.258 -0.008,-0.262 -0.016,-0.515 -0.007,-0.133 -0.012,-0.387 -0.07,-1.558 -0.004,-0.129 -0.008,-0.129 -0.012,-0.258 -0.027,-0.519 -0.059,-1.04 -0.008,-0.128 -0.004,-0.129 -0.015,-0.262 -0.035,-0.52 -0.067,-1.035 -0.015,-0.242 -0.02,-0.242 -0.105,-1.453 -0.157,-1.938 -0.011,-0.121 -0.012,-0.117 -0.02,-0.242 -0.128,-1.453 -0.188,-1.938 -0.012,-0.129 -0.015,-0.133 -0.024,-0.261 -0.054,-0.528 -0.11,-1.046 -0.234,-2.102 -0.496,-4.195 -1.032,-7.84 -1.085,-7.688 -1.211,-8.336 -1.11,-7.781 -1.14,-8.433 -1.039,-8.278 -0.879,-7.722 -0.848,-8.375 -0.691,-7.817 -0.594,-7.664 -0.559,-8.316 -0.445,-7.758 -0.422,-8.41 -0.344,-7.852 -0.297,-7.699 -0.296,-8.352 -0.254,-7.797 -0.262,-8.445 -0.246,-8.293 -0.227,-7.738 -0.246,-8.387 -0.226,-7.832 -0.223,-7.676 -0.234,-8.328 -0.211,-7.773 -0.004,-0.137 V 8.906 L 136.547,8.633 136.531,8.09 136.504,7.008 136.453,4.84 136.445,4.566 136.441,4.297 136.426,3.754 136.402,2.668 136.398,2.535 136.395,2.398 136.391,2.125 136.379,1.586 136.371,1.313 136.367,1.043 136.359,0.77 136.355,0.637 V 0.5"
             style="fill:none;stroke:#000000;stroke-width:2;stroke-linecap:butt;stroke-linejoin:miter;stroke-miterlimit:3.25;stroke-dasharray:4, 4;stroke-dashoffset:0;stroke-opacity:1"
             id="path23059" /></g></g><g
         id="g23061"><path
           d="m 64.41,395.484 v -4"
           style="fill:none;stroke:#666666;stroke-width:0.2;stroke-linecap:butt;stroke-linejoin:miter;stroke-miterlimit:3.25;stroke-dasharray:none;stroke-opacity:1"
           id="path23063" /><text
           transform="translate(34.297998,425.64258)"
           style="font-variant:normal;font-weight:normal;font-size:30px;font-family:MathematicaSans;-inkscape-font-specification:MathematicaSans;writing-mode:lr-tb;fill:#000000;fill-opacity:1;fill-rule:nonzero;stroke:none"
           id="text23067"><tspan
             x="0"
             y="0"
             id="tspan23065">-</tspan></text><text
           transform="translate(52.777998,425.64258)"
           style="font-variant:normal;font-weight:normal;font-size:30px;font-family:Arial;-inkscape-font-specification:ArialMT;writing-mode:lr-tb;fill:#000000;fill-opacity:1;fill-rule:nonzero;stroke:none"
           id="text23071"><tspan
             x="0 16.68 24.99"
             y="0"
             sodipodi:role="line"
             id="tspan23069">0.5</tspan></text><path
           d="m 192.23,395.484 v -4"
           style="fill:none;stroke:#666666;stroke-width:0.2;stroke-linecap:butt;stroke-linejoin:miter;stroke-miterlimit:3.25;stroke-dasharray:none;stroke-opacity:1"
           id="path23073" /><text
           transform="translate(171.37739,425.64258)"
           style="font-variant:normal;font-weight:normal;font-size:30px;font-family:Arial;-inkscape-font-specification:ArialMT;writing-mode:lr-tb;fill:#000000;fill-opacity:1;fill-rule:nonzero;stroke:none"
           id="text23077"><tspan
             x="0 16.68 24.99"
             y="0"
             sodipodi:role="line"
             id="tspan23075">0.5</tspan></text><path
           d="M 0.5,395.484 H 256.141"
           style="fill:none;stroke:#666666;stroke-width:0.2;stroke-linecap:butt;stroke-linejoin:miter;stroke-miterlimit:3.25;stroke-dasharray:none;stroke-opacity:1"
           id="path23079" /><path
           d="m 128.32,395.484 h 4"
           style="fill:none;stroke:#666666;stroke-width:0.2;stroke-linecap:butt;stroke-linejoin:miter;stroke-miterlimit:3.25;stroke-dasharray:none;stroke-opacity:1"
           id="path23081" /><path
           d="m 128.32,282.633 h 4"
           style="fill:none;stroke:#666666;stroke-width:0.2;stroke-linecap:butt;stroke-linejoin:miter;stroke-miterlimit:3.25;stroke-dasharray:none;stroke-opacity:1"
           id="path23083" /><text
           transform="translate(108.63506,293.03209)"
           style="font-variant:normal;font-weight:normal;font-size:30px;font-family:Arial;-inkscape-font-specification:ArialMT;writing-mode:lr-tb;fill:#000000;fill-opacity:1;fill-rule:nonzero;stroke:none"
           id="text23087"><tspan
             x="0"
             y="0"
             id="tspan23085">2</tspan></text><path
           d="m 128.32,169.777 h 4"
           style="fill:none;stroke:#666666;stroke-width:0.2;stroke-linecap:butt;stroke-linejoin:miter;stroke-miterlimit:3.25;stroke-dasharray:none;stroke-opacity:1"
           id="path23089" /><text
           transform="translate(108.63506,180.17941)"
           style="font-variant:normal;font-weight:normal;font-size:30px;font-family:Arial;-inkscape-font-specification:ArialMT;writing-mode:lr-tb;fill:#000000;fill-opacity:1;fill-rule:nonzero;stroke:none"
           id="text23093"><tspan
             x="0"
             y="0"
             id="tspan23091">4</tspan></text><path
           d="m 128.32,56.926 h 4"
           style="fill:none;stroke:#666666;stroke-width:0.2;stroke-linecap:butt;stroke-linejoin:miter;stroke-miterlimit:3.25;stroke-dasharray:none;stroke-opacity:1"
           id="path23095" /><text
           transform="translate(108.63506,67.32673)"
           style="font-variant:normal;font-weight:normal;font-size:30px;font-family:Arial;-inkscape-font-specification:ArialMT;writing-mode:lr-tb;fill:#000000;fill-opacity:1;fill-rule:nonzero;stroke:none"
           id="text23099"><tspan
             x="0"
             y="0"
             id="tspan23097">6</tspan></text><path
           d="M 128.32,395.484 V 0.5"
           style="fill:none;stroke:#666666;stroke-width:0.2;stroke-linecap:butt;stroke-linejoin:miter;stroke-miterlimit:3.25;stroke-dasharray:none;stroke-opacity:1"
           id="path23101" /></g></g><g
       id="g23142"
       inkscape:label="5"
       transform="translate(1349.5739,-0.53029956)"><g
         id="g23144" /><g
         id="g23146"><g
           id="g23148"
           clip-path="url(#clipPath23152)"><path
             d="m 192.23,395.484 -0.175,-0.121 -0.172,-0.121 -0.348,-0.242 -0.691,-0.484 -1.387,-0.969 -2.766,-1.938 -5.503,-3.879 -11.661,-8.402 -10.339,-7.851 -9.418,-7.692 -9.235,-8.347 -7.566,-7.79 -0.117,-0.132 -0.122,-0.133 -0.234,-0.262 -0.469,-0.527 -0.922,-1.055 -1.781,-2.113 -3.316,-4.219 -0.195,-0.258 -0.192,-0.261 -0.379,-0.516 -0.742,-1.035 -1.426,-2.074 -0.344,-0.516 -0.339,-0.52 -0.661,-1.035 -1.265,-2.074 -0.141,-0.242 -0.14,-0.238 -0.282,-0.485 -0.543,-0.965 -1.039,-1.933 -0.25,-0.485 -0.246,-0.484 -0.476,-0.965 -0.903,-1.933 -0.058,-0.129 -0.059,-0.133 -0.113,-0.262 -0.231,-0.523 -0.441,-1.047 -0.824,-2.098 -0.051,-0.129 -0.047,-0.133 -0.098,-0.261 -0.187,-0.524 -0.367,-1.047 -0.672,-2.097 -0.039,-0.121 -0.035,-0.121 -0.075,-0.247 -0.144,-0.488 -0.274,-0.98 -0.031,-0.121 -0.035,-0.122 -0.062,-0.246 -0.129,-0.488 -0.243,-0.976 -0.031,-0.125 -0.027,-0.122 -0.059,-0.246 -0.113,-0.488 -0.211,-0.976 -0.383,-1.958 -0.023,-0.121 -0.02,-0.117 -0.043,-0.242 -0.082,-0.48 -0.152,-0.957 -0.016,-0.122 -0.019,-0.117 -0.035,-0.242 -0.067,-0.48 -0.129,-0.957 -0.015,-0.122 -0.012,-0.117 -0.031,-0.242 -0.055,-0.48 -0.012,-0.118 -0.015,-0.121 -0.024,-0.238 -0.051,-0.48 -0.011,-0.122 -0.012,-0.117 -0.019,-0.242 -0.043,-0.48 -0.012,-0.118 -0.008,-0.121 -0.02,-0.238 -0.039,-0.48 -0.007,-0.129 -0.008,-0.133 -0.02,-0.258 -0.031,-0.519 -0.008,-0.133 -0.008,-0.129 -0.015,-0.262 -0.024,-0.519 -0.007,-0.129 -0.004,-0.129 -0.012,-0.262 -0.008,-0.129 -0.004,-0.133 -0.012,-0.386 -0.003,-0.133 -0.008,-0.258 -0.004,-0.133 -0.004,-0.129 -0.004,-0.258 -0.004,-0.132 -0.004,-0.129 v -0.129 l -0.004,-0.133 v -0.129 l -0.004,-0.129 v -0.262 l -0.004,-0.128 v -1.301 l 0.004,-0.129 v -0.262 l 0.004,-0.129 v -0.133 l 0.004,-0.128 v -0.129 l 0.004,-0.129 v -0.133 l 0.008,-0.258 0.008,-0.262 v -0.121 l 0.027,-0.847 0.004,-0.125 0.008,-0.121 0.008,-0.243 0.023,-0.484 0.008,-0.242 0.015,-0.242 0.024,-0.489 0.059,-0.968 0.015,-0.243 0.02,-0.242 0.035,-0.488 0.074,-0.969 0.023,-0.242 0.02,-0.242 0.043,-0.488 0.094,-0.969 0.015,-0.133 0.012,-0.133 0.027,-0.262 0.059,-0.527 0.117,-1.051 0.266,-2.105 0.019,-0.133 0.016,-0.129 0.039,-0.266 0.07,-0.523 0.153,-1.055 0.328,-2.105 0.023,-0.129 0.02,-0.129 0.129,-0.773 0.175,-1.036 0.375,-2.062 0.805,-4.133 1.668,-7.711 1.945,-8.359 1.84,-7.805 1.926,-8.453 1.746,-8.301 1.453,-7.746 0.024,-0.129 0.023,-0.133 0.043,-0.261 0.09,-0.528 0.18,-1.046 0.347,-2.102 0.649,-4.195 0.019,-0.125 0.016,-0.121 0.035,-0.247 0.07,-0.488 0.141,-0.98 0.27,-1.961 0.496,-3.918 0.031,-0.242 0.027,-0.239 0.059,-0.48 0.109,-0.961 0.211,-1.922 0.016,-0.121 0.011,-0.121 0.028,-0.238 0.047,-0.481 0.101,-0.961 0.188,-1.922 0.023,-0.258 0.028,-0.261 0.046,-0.524 0.094,-1.039 0.176,-2.086 0.012,-0.129 0.011,-0.132 0.02,-0.258 0.043,-0.524 0.078,-1.043 0.152,-2.082 0.008,-0.121 0.012,-0.125 0.047,-0.726 0.066,-0.973 0.117,-1.945 0.016,-0.242 0.012,-0.247 0.031,-0.484 0.152,-2.918 0.008,-0.133 0.004,-0.133 0.012,-0.261 0.027,-0.528 0.047,-1.054 0.004,-0.133 0.008,-0.129 0.011,-0.266 0.02,-0.527 0.043,-1.055 0.008,-0.129 0.004,-0.132 0.011,-0.262 0.02,-0.527 0.105,-3.164 0.016,-0.516 0.012,-0.52 0.031,-1.035 v -0.129 l 0.012,-0.386 0.011,-0.52 0.024,-1.035 0.008,-0.258 0.004,-0.258 0.011,-0.519 0.02,-1.035 0.008,-0.258 0.011,-0.774 0.016,-1.035 0.004,-0.121 v -0.121 l 0.004,-0.242 0.008,-0.481 0.011,-0.968 0.004,-0.118 v -0.121 l 0.004,-0.242 0.004,-0.484 0.012,-0.965 v -0.121 l 0.004,-0.121 v -0.239 l 0.004,-0.484 v -0.121 l 0.003,-0.121 v -0.238 l 0.004,-0.485 v -0.121 l 0.004,-0.121 v -0.242 l 0.004,-0.481 v -0.242 l 0.004,-0.242 v -0.613 l 0.004,-0.129 v -0.524 l 0.004,-0.261 v -1.18 l 0.004,-0.129 v -5.234 l -0.004,-0.262 v -1.012 l -0.004,-0.488 v -0.488 l -0.004,-0.489 v -0.488 l -0.004,-0.488 -0.004,-0.981 -0.004,-0.121 v -0.367 l -0.004,-0.488 -0.003,-0.977 -0.016,-1.953 v -0.121 l -0.004,-0.117 v -0.242 l -0.004,-0.477 -0.008,-0.961 -0.019,-1.914 -0.035,-3.832 -0.004,-0.129 v -0.129 l -0.004,-0.261 -0.004,-0.52 -0.035,-3.117 -0.047,-4.16 -0.09,-7.758 -0.094,-8.41 v -0.121 l -0.004,-0.125 v -0.247 l -0.007,-0.488 -0.008,-0.98 -0.02,-1.965 -0.039,-3.926 v -0.242 l -0.004,-0.242 -0.012,-1.442 -0.015,-1.925 v -0.239 l -0.004,-0.242 -0.004,-0.48 -0.008,-0.965 -0.011,-1.922 -0.004,-0.133 v -0.391 l -0.004,-0.523 -0.024,-3.129 v -0.262 l -0.004,-0.261 v -0.524 l -0.007,-1.043 -0.012,-2.086 v -0.246 l -0.004,-0.242 v -0.488 l -0.008,-0.973 -0.008,-1.949 v -0.242 l -0.004,-0.246 V 76.57 l -0.004,-0.972 -0.007,-1.95 -0.004,-0.132 v -0.922 l -0.004,-1.055 -0.008,-2.113 V 69.16 l -0.004,-0.262 v -0.527 l -0.004,-1.058 -0.004,-2.11 v -0.262 l -0.004,-0.257 v -0.52 l -0.003,-1.035 v -1.035 l -0.004,-1.039 V 60.02 l -0.004,-1.036 v -2.316 l -0.004,-0.242 v -2.418 l -0.004,-0.965 v -5.18 l -0.004,-0.261 V 33.934 l 0.004,-0.981 v -5.758 l 0.004,-1.918 v -4.164 l 0.004,-4.164 0.008,-7.773 V 7.008 L 128.316,4.84 V 2.125 L 128.32,1.586 V 0.5"
             style="fill:none;stroke:#000000;stroke-width:2;stroke-linecap:square;stroke-linejoin:miter;stroke-miterlimit:3.25;stroke-dasharray:none;stroke-opacity:1"
             id="path23154" /></g></g><g
         id="g23156"><g
           id="g23158"
           clip-path="url(#clipPath23162)"><path
             d="m 128.32,395.484 -0.922,-0.484 -0.914,-0.484 -1.808,-0.969 -3.524,-1.938 -6.703,-3.879 -0.219,-0.128 -0.218,-0.133 -0.434,-0.262 -0.863,-0.527 -1.699,-1.051 -3.301,-2.102 -6.184,-4.199 -0.172,-0.125 -0.171,-0.121 -1.02,-0.738 -1.336,-0.981 -2.578,-1.961 -4.809,-3.925 -0.136,-0.118 -0.141,-0.121 -0.277,-0.242 -0.551,-0.48 -1.078,-0.961 -2.071,-1.922 -0.5,-0.485 -0.492,-0.48 -0.965,-0.961 -1.847,-1.922 -0.121,-0.133 -0.121,-0.129 -0.243,-0.261 -0.472,-0.52 -0.926,-1.043 -1.75,-2.09 -0.211,-0.257 -0.207,-0.262 -0.41,-0.524 -0.797,-1.043 -1.5,-2.085 -0.086,-0.122 -0.082,-0.121 -0.164,-0.246 -0.328,-0.484 -0.629,-0.977 -1.184,-1.945 -0.14,-0.242 -0.137,-0.246 -0.274,-0.485 -0.527,-0.976 -0.973,-1.946 -0.125,-0.265 -0.121,-0.262 -0.238,-0.527 -0.457,-1.055 -0.109,-0.266 -0.11,-0.261 -0.207,-0.528 -0.398,-1.058 -0.051,-0.129 -0.141,-0.399 -0.179,-0.527 -0.344,-1.055 -0.039,-0.132 -0.039,-0.129 -0.082,-0.266 -0.152,-0.527 -0.286,-1.055 -0.035,-0.129 -0.031,-0.129 -0.066,-0.261 -0.125,-0.516 -0.028,-0.129 -0.031,-0.133 -0.059,-0.258 -0.109,-0.515 -0.027,-0.133 -0.028,-0.129 -0.05,-0.258 -0.098,-0.519 -0.18,-1.035 -0.023,-0.129 -0.059,-0.387 -0.074,-0.52 -0.016,-0.129 -0.019,-0.128 -0.031,-0.262 -0.079,-0.645 -0.011,-0.133 -0.028,-0.257 -0.015,-0.129 -0.035,-0.387 -0.012,-0.133 -0.012,-0.129 -0.019,-0.257 -0.039,-0.52 -0.016,-0.242 -0.016,-0.238 -0.015,-0.243 -0.012,-0.242 -0.004,-0.121 -0.008,-0.121 -0.019,-0.606 -0.004,-0.117 -0.008,-0.242 v -0.121 l -0.004,-0.121 v -0.121 l -0.004,-0.121 v -0.242 l -0.004,-0.122 v -0.48 l 0.004,-0.121 v -0.242 l 0.004,-0.121 v -0.121 l 0.004,-0.122 v -0.121 l 0.012,-0.363 v -0.121 l 0.004,-0.121 0.007,-0.117 0.012,-0.364 0.008,-0.121 0.012,-0.242 0.004,-0.121 0.007,-0.121 0.012,-0.242 0.008,-0.121 0.008,-0.118 0.023,-0.363 0.012,-0.121 0.015,-0.242 0.04,-0.484 0.011,-0.129 0.012,-0.133 0.027,-0.262 0.051,-0.523 0.016,-0.129 0.015,-0.133 0.028,-0.262 0.062,-0.523 0.02,-0.133 0.015,-0.129 0.106,-0.785 0.16,-1.051 0.023,-0.129 0.02,-0.133 0.043,-0.261 0.094,-0.524 0.195,-1.047 0.445,-2.097 0.028,-0.121 0.031,-0.121 0.055,-0.247 0.117,-0.488 0.246,-0.98 0.531,-1.953 0.035,-0.125 0.035,-0.122 0.071,-0.246 0.144,-0.488 0.301,-0.976 0.629,-1.958 0.043,-0.121 0.039,-0.117 0.082,-0.242 0.164,-0.48 0.34,-0.957 0.703,-1.918 1.523,-3.836 3.723,-8.325 3.824,-7.765 4.328,-8.422 4.258,-8.262 3.84,-7.711 3.91,-8.359 3.332,-7.805 3.211,-8.453 2.715,-8.301 0.035,-0.121 0.039,-0.121 0.071,-0.242 0.144,-0.484 0.281,-0.969 0.547,-1.938 1.024,-3.871 0.035,-0.129 0.031,-0.133 0.067,-0.261 0.132,-0.528 0.254,-1.046 0.492,-2.102 0.907,-4.195 0.023,-0.125 0.024,-0.121 0.05,-0.247 0.098,-0.488 0.191,-0.98 0.368,-1.961 0.679,-3.918 0.039,-0.242 0.039,-0.239 0.223,-1.441 0.289,-1.922 0.031,-0.242 0.036,-0.238 0.07,-0.481 0.133,-0.961 0.25,-1.922 0.019,-0.129 0.016,-0.129 0.031,-0.261 0.066,-0.524 0.125,-1.039 0.239,-2.086 0.015,-0.129 0.016,-0.132 0.027,-0.258 0.055,-0.524 0.109,-1.043 0.207,-2.082 0.012,-0.121 0.012,-0.125 0.023,-0.242 0.043,-0.484 0.09,-0.973 0.168,-1.945 0.008,-0.121 0.012,-0.121 0.019,-0.247 0.039,-0.484 0.074,-0.973 0.145,-1.945 0.012,-0.133 0.008,-0.133 0.019,-0.261 0.106,-1.582 0.132,-2.11 0.008,-0.129 0.008,-0.132 0.016,-0.262 0.031,-0.527 0.058,-1.055 0.114,-2.109 0.015,-0.258 0.012,-0.258 0.027,-0.52 0.141,-3.105 0.008,-0.129 0.004,-0.129 0.011,-0.258 0.024,-0.519 0.043,-1.035 0.078,-2.067 0.016,-0.484 0.019,-0.481 0.035,-0.968 0.063,-1.93 0.008,-0.242 0.007,-0.239 0.016,-0.484 0.027,-0.965 0.059,-1.929 0.004,-0.133 v -0.129 l 0.023,-0.785 0.082,-3.141 0.098,-4.187 v -0.122 l 0.004,-0.125 0.004,-0.242 0.012,-0.488 0.019,-0.977 0.043,-1.957 0.074,-3.906 0.145,-7.664 0.148,-8.316 0.149,-7.758 0.172,-8.41 0.171,-7.852 0.176,-7.699 0.203,-8.352 0.192,-7.797 0.211,-8.445 0.203,-8.293 0.191,-7.738 0.203,-8.387 0.188,-7.832 0.191,-7.676 0.215,-8.328 0.219,-7.773 0.004,-0.137 0.004,-0.133 0.007,-0.273 0.016,-0.543 0.035,-1.082 0.067,-2.168 0.007,-0.274 0.012,-0.269 0.016,-0.543 0.035,-1.086 0.004,-0.133 0.004,-0.137 0.011,-0.273 0.016,-0.539 0.008,-0.137 0.004,-0.136 0.008,-0.27 0.004,-0.137 0.007,-0.136 0.004,-0.133 0.004,-0.137"
             style="fill:none;stroke:#000000;stroke-width:2;stroke-linecap:butt;stroke-linejoin:miter;stroke-miterlimit:3.25;stroke-dasharray:4, 4;stroke-dashoffset:0;stroke-opacity:1"
             id="path23164" /></g></g><g
         id="g23166"><path
           d="m 64.41,395.484 v -4"
           style="fill:none;stroke:#666666;stroke-width:0.2;stroke-linecap:butt;stroke-linejoin:miter;stroke-miterlimit:3.25;stroke-dasharray:none;stroke-opacity:1"
           id="path23168" /><text
           transform="translate(34.297998,425.64258)"
           style="font-variant:normal;font-weight:normal;font-size:30px;font-family:MathematicaSans;-inkscape-font-specification:MathematicaSans;writing-mode:lr-tb;fill:#000000;fill-opacity:1;fill-rule:nonzero;stroke:none"
           id="text23172"><tspan
             x="0"
             y="0"
             id="tspan23170">-</tspan></text><text
           transform="translate(52.777998,425.64258)"
           style="font-variant:normal;font-weight:normal;font-size:30px;font-family:Arial;-inkscape-font-specification:ArialMT;writing-mode:lr-tb;fill:#000000;fill-opacity:1;fill-rule:nonzero;stroke:none"
           id="text23176"><tspan
             x="0 16.68 24.99"
             y="0"
             sodipodi:role="line"
             id="tspan23174">0.5</tspan></text><path
           d="m 192.23,395.484 v -4"
           style="fill:none;stroke:#666666;stroke-width:0.2;stroke-linecap:butt;stroke-linejoin:miter;stroke-miterlimit:3.25;stroke-dasharray:none;stroke-opacity:1"
           id="path23178" /><text
           transform="translate(171.37739,425.64258)"
           style="font-variant:normal;font-weight:normal;font-size:30px;font-family:Arial;-inkscape-font-specification:ArialMT;writing-mode:lr-tb;fill:#000000;fill-opacity:1;fill-rule:nonzero;stroke:none"
           id="text23182"><tspan
             x="0 16.68 24.99"
             y="0"
             sodipodi:role="line"
             id="tspan23180">0.5</tspan></text><path
           d="M 0.5,395.484 H 256.141"
           style="fill:none;stroke:#666666;stroke-width:0.2;stroke-linecap:butt;stroke-linejoin:miter;stroke-miterlimit:3.25;stroke-dasharray:none;stroke-opacity:1"
           id="path23184" /><path
           d="m 128.32,395.484 h 4"
           style="fill:none;stroke:#666666;stroke-width:0.2;stroke-linecap:butt;stroke-linejoin:miter;stroke-miterlimit:3.25;stroke-dasharray:none;stroke-opacity:1"
           id="path23186" /><path
           d="m 128.32,282.633 h 4"
           style="fill:none;stroke:#666666;stroke-width:0.2;stroke-linecap:butt;stroke-linejoin:miter;stroke-miterlimit:3.25;stroke-dasharray:none;stroke-opacity:1"
           id="path23188" /><text
           transform="translate(108.63506,293.03209)"
           style="font-variant:normal;font-weight:normal;font-size:30px;font-family:Arial;-inkscape-font-specification:ArialMT;writing-mode:lr-tb;fill:#000000;fill-opacity:1;fill-rule:nonzero;stroke:none"
           id="text23192"><tspan
             x="0"
             y="0"
             id="tspan23190">2</tspan></text><path
           d="m 128.32,169.777 h 4"
           style="fill:none;stroke:#666666;stroke-width:0.2;stroke-linecap:butt;stroke-linejoin:miter;stroke-miterlimit:3.25;stroke-dasharray:none;stroke-opacity:1"
           id="path23194" /><text
           transform="translate(108.63506,180.17941)"
           style="font-variant:normal;font-weight:normal;font-size:30px;font-family:Arial;-inkscape-font-specification:ArialMT;writing-mode:lr-tb;fill:#000000;fill-opacity:1;fill-rule:nonzero;stroke:none"
           id="text23198"><tspan
             x="0"
             y="0"
             id="tspan23196">4</tspan></text><path
           d="m 128.32,56.926 h 4"
           style="fill:none;stroke:#666666;stroke-width:0.2;stroke-linecap:butt;stroke-linejoin:miter;stroke-miterlimit:3.25;stroke-dasharray:none;stroke-opacity:1"
           id="path23200" /><text
           transform="translate(108.63506,67.32673)"
           style="font-variant:normal;font-weight:normal;font-size:30px;font-family:Arial;-inkscape-font-specification:ArialMT;writing-mode:lr-tb;fill:#000000;fill-opacity:1;fill-rule:nonzero;stroke:none"
           id="text23204"><tspan
             x="0"
             y="0"
             id="tspan23202">6</tspan></text><path
           d="M 128.32,395.484 V 0.5"
           style="fill:none;stroke:#666666;stroke-width:0.2;stroke-linecap:butt;stroke-linejoin:miter;stroke-miterlimit:3.25;stroke-dasharray:none;stroke-opacity:1"
           id="path23206" /></g></g><text
       xml:space="preserve"
       style="font-style:normal;font-weight:normal;font-size:30px;line-height:1.25;font-family:sans-serif;fill:#000000;fill-opacity:1;stroke:none;stroke-width:0.75"
       x="1539.2275"
       y="487.76883"
       id="text3851"><tspan
         sodipodi:role="line"
         id="tspan3849"
         style="text-align:end;text-anchor:end;stroke-width:0.75"
         x="1539.2275"
         y="487.76883">$\tilde{w}^{+}$</tspan></text><text
       xml:space="preserve"
       style="font-style:normal;font-weight:normal;font-size:30px;line-height:1.25;font-family:sans-serif;fill:#000000;fill-opacity:1;stroke:none;stroke-width:0.75"
       x="-11.581238"
       y="34.835697"
       id="text16934"><tspan
         sodipodi:role="line"
         id="tspan16932"
         style="stroke-width:0.75"
         x="-11.581238"
         y="34.835697">$\check{y}^+$</tspan></text></g></svg>
